<svg width="27" height="40" viewBox="0 0 27 40" xmlns="http://www.w3.org/2000/svg">
<path d="M13.5039 0C6.05754 0 0 6.03125 0 13.4453C0 16.3359 0.902354 19.0859 2.62075 21.4062L12.8527 36.5234C13.0017 36.7422 13.245 36.8672 13.5039 36.8672C13.7629 36.8672 14.0139 36.7344 14.1552 36.5234L24.3871 21.4062C26.0976 19.0859 27.0078 16.3359 27.0078 13.4453C27 6.03125 20.9425 0 13.5039 0ZM23.1003 20.4922C23.0924 20.5078 23.0846 20.5156 23.0689 20.5312L13.4961 34.6797L3.92328 20.5312C3.91543 20.5156 3.89974 20.5 3.89189 20.4844C2.36966 18.4297 1.56931 16 1.56931 13.4375C1.56931 6.89062 6.92066 1.5625 13.4961 1.5625C20.0715 1.5625 25.4228 6.89062 25.4228 13.4375C25.4307 16 24.6225 18.4375 23.1003 20.4922Z"/>
<path d="M19.0122 12.5781C18.5806 12.5781 18.2275 12.9297 18.2275 13.3594C18.2275 15.9531 16.109 18.0625 13.5039 18.0625C10.8989 18.0625 8.78028 15.9531 8.78028 13.3594C8.78028 10.7656 10.8989 8.65625 13.5039 8.65625C14.4533 8.65625 15.3635 8.9375 16.1404 9.46094C16.5013 9.70312 16.9878 9.60937 17.231 9.25C17.4743 8.89062 17.3801 8.40625 17.0192 8.16406C15.9756 7.46094 14.7594 7.09375 13.4961 7.09375C10.0279 7.09375 7.20312 9.90625 7.20312 13.3594C7.20312 16.8125 10.0279 19.625 13.4961 19.625C16.9642 19.625 19.789 16.8125 19.789 13.3594C19.7968 12.9297 19.4438 12.5781 19.0122 12.5781Z"/>
<path d="M22.9277 38.4297H4.041C3.60944 38.4297 3.25635 38.7812 3.25635 39.2109C3.25635 39.6406 3.60944 39.9922 4.041 39.9922H22.9277C23.3592 39.9922 23.7123 39.6406 23.7123 39.2109C23.7202 38.7812 23.3671 38.4297 22.9277 38.4297Z"/>
<path d="M18.3765 10H18.3608C17.9293 10 17.5762 10.3516 17.5762 10.7812C17.5762 11.2109 17.9293 11.5625 18.3608 11.5625H18.3765C18.8081 11.5625 19.1612 11.2109 19.1612 10.7812C19.169 10.3516 18.8159 10 18.3765 10Z"/>
</svg>
