<svg width="46" height="34" viewBox="0 0 46 34" fill="none" xmlns="http://www.w3.org/2000/svg">
<path d="M31.0275 19.8417L31.0276 19.8417L33.554 7.22349C31.5054 5.8608 29.1621 4.88257 26.613 4.39354V18.5553C26.613 19.6343 25.7355 20.5123 24.656 20.5123H21.3425C20.2635 20.5123 19.3855 19.6348 19.3855 18.5553V4.39354C16.8364 4.88257 14.4931 5.8603 12.4449 7.22298L14.9714 19.8411C15.0326 20.1446 14.8358 20.4408 14.5318 20.5015C14.5317 20.5015 14.5316 20.5016 14.5315 20.5016L14.5217 20.4526C14.488 20.4597 14.4542 20.4628 14.421 20.4628C14.1828 20.4628 13.9692 20.2951 13.9206 20.0518L31.0275 19.8417ZM31.0275 19.8417C30.967 20.1457 31.1632 20.4408 31.4672 20.502M31.0275 19.8417L13.8716 20.0616L11.4437 7.93469C6.89388 11.4112 4.04025 16.8854 4.04025 23.0056V26.5957H41.9587V23.0066C41.9587 16.8864 39.1051 11.4122 34.5553 7.93571L32.1274 20.062C32.0746 20.3293 31.84 20.5133 31.578 20.5133C31.5418 20.5133 31.5046 20.51 31.4672 20.502M31.4672 20.502C31.4671 20.502 31.467 20.502 31.4669 20.502L31.4773 20.4531L31.4674 20.5021C31.4673 20.5021 31.4673 20.5021 31.4672 20.502ZM42.2115 31.6717L42.2035 31.6224L42.2115 31.6717C44.4355 31.311 46.05 29.4118 46.05 27.1558C46.05 26.8455 45.7992 26.5947 45.4889 26.5947H43.082V23.0056C43.082 13.2143 36.1839 4.98542 26.6135 3.25275V2.5514C26.6135 1.47243 25.7355 0.59444 24.6565 0.59444H21.343C20.264 0.59444 19.386 1.47243 19.386 2.5514V3.25275C9.81557 4.98542 2.91751 13.2137 2.91751 23.0056V26.5947H0.511111C0.201396 26.5947 -0.05 26.8455 -0.05 27.1558C-0.05 29.4118 1.56446 31.311 3.78905 31.6712C10.1627 32.7036 16.5813 33.22 23 33.22C29.4192 33.22 35.8373 32.7036 42.2115 31.6717ZM34.5111 7.90201L34.522 7.84753C34.5368 7.85872 34.5515 7.86993 34.5662 7.88115L34.5111 7.90201ZM3.9686 30.5636L3.9606 30.6129L3.96859 30.5636C2.47813 30.3224 1.35112 29.1654 1.11725 27.7169H44.8833C44.6494 29.1653 43.5219 30.3219 42.0319 30.5636C29.4031 32.6092 16.5964 32.6092 3.9686 30.5636ZM20.5082 2.5514C20.5082 2.0909 20.8825 1.71666 21.343 1.71666H24.6565C25.117 1.71666 25.4912 2.0909 25.4912 2.5514V18.5553C25.4912 19.0158 25.117 19.39 24.6565 19.39H21.343C20.8825 19.39 20.5082 19.0158 20.5082 18.5553V2.5514Z" fill="#006CAB" stroke="#006CAB" stroke-width="0.1"/>
</svg>
