<svg width="38" height="42" viewBox="0 0 38 42" fill="none" xmlns="http://www.w3.org/2000/svg">
<path d="M12.7122 0H7.55171C4.94036 0.00222314 2.82449 2.11948 2.82449 4.73111V35.2406C1.30859 35.5858 0.232868 36.9327 0.231201 38.4872V41.9728H37.7347V38.4872C37.7316 36.9213 36.6409 35.568 35.1111 35.2331V4.73111C35.1111 2.11837 32.9927 0 30.38 0C30.3789 0 30.3772 0 30.3761 0H25.2273C22.6174 0.00416839 20.5037 2.12115 20.5037 4.73111V9.80404C20.0152 9.90908 19.6659 10.3409 19.6645 10.8406V12.4468H18.3092V10.8406C18.3072 10.3312 17.9438 9.89491 17.4433 9.80015V4.73111C17.4433 2.11837 15.3249 0 12.7122 0ZM25.326 12.4582V10.8406C25.3249 10.3198 24.9447 9.87712 24.4298 9.79653V4.73111C24.4298 4.29066 24.7869 3.93384 25.2273 3.93384H30.3761C30.8166 3.93384 31.1734 4.29066 31.1734 4.73111V35.157H28.3789V15.7921C28.385 14.0552 27.0567 12.6046 25.326 12.4582ZM20.7999 10.9167H24.1869V12.4354H20.7999V10.9167ZM27.2548 35.1534H10.73V17.2691H27.2398L27.2548 35.1534ZM9.60978 15.7882V35.1534H6.75833V4.73111C6.75833 4.29066 7.11514 3.93384 7.5556 3.93384H12.7122C13.1526 3.93384 13.5094 4.29066 13.5094 4.73111V9.79625C13.009 9.89102 12.6455 10.3273 12.6438 10.8367V12.4582C10.9187 12.6041 9.59283 14.0458 9.59088 15.7768L9.60978 15.7882ZM13.7868 10.9281H17.1737V12.4468H13.7829L13.7868 10.9281ZM3.96357 4.73111C3.96579 2.7503 5.5709 1.14519 7.55171 1.14297H12.7122C14.693 1.14519 16.2981 2.7503 16.3003 4.73111V9.78125H14.6485V4.73111C14.6485 3.66151 13.7818 2.79448 12.7119 2.79448H7.55171C6.4821 2.79448 5.61536 3.66151 5.61536 4.73111V35.157H3.96357V4.73111ZM36.5956 38.4872V40.8338H1.37028V38.4872C1.3725 37.2781 2.35235 36.2986 3.56118 36.2963H34.4011C35.613 36.2938 36.5973 37.2751 36.5995 38.4872H36.5956ZM21.6428 4.73111C21.645 2.7503 23.2501 1.14519 25.2309 1.14297H30.3761C32.3569 1.14519 33.962 2.7503 33.9642 4.73111V35.157H32.3238V4.73111C32.3238 3.66151 31.4571 2.79448 30.3872 2.79448H25.227C24.1574 2.79448 23.2907 3.66151 23.2907 4.73111V9.78125H21.6428V4.73111ZM25.0603 13.5859C26.2691 13.5881 27.2487 14.5679 27.2512 15.7768V16.1261H10.73V15.7768C10.7319 14.5721 11.7048 13.5942 12.9095 13.5859H25.0603Z" fill="#006CAB"/>
</svg>
