<svg width="59" height="55" viewBox="0 0 59 55" fill="none" xmlns="http://www.w3.org/2000/svg">
<g clip-path="url(#clip0)">
<path d="M16.9943 52.1273C16.6599 48.4665 14.9822 45.7878 13.2797 43.0406C9.91177 37.6769 6.34577 31.9963 14.394 17.4465C14.6855 16.8921 14.475 16.2055 13.9235 15.9114C13.3769 15.6057 12.6869 15.8029 12.3824 16.3517C12.3823 16.352 12.3821 16.3523 12.382 16.3526C3.67746 32.0708 7.61492 38.3295 11.3295 44.2526C12.9082 46.7387 14.425 49.2248 14.7345 52.3324C14.791 52.9589 15.3425 53.4208 15.9666 53.3641C16.5906 53.3074 17.0507 52.7537 16.9943 52.1273Z" fill="black" fill-opacity="0.05"/>
<path d="M44.346 17.49C43.9853 18.4855 43.476 19.4203 42.8354 20.262C41.7066 21.7887 40.0665 22.8548 38.2169 23.2639C36.2482 23.6928 33.8832 23.4255 31.184 22.2011C27.2775 20.4298 22.7271 16.7131 17.7248 10.3177C20.5726 10.0256 25.6307 9.10572 29.401 6.22809C32.5893 3.79174 35.4681 2.89675 37.8516 3.1205C38.8758 3.20222 39.8694 3.50988 40.7614 4.0217C41.6416 4.53383 42.4102 5.21874 43.0211 6.03542C44.0004 7.37417 44.6496 8.92688 44.9155 10.5663C45.7232 10.7189 46.5196 10.9265 47.2991 11.1878C47.0802 8.81734 46.2243 6.55097 44.8227 4.63079C44.0239 3.56783 43.0194 2.67782 41.8696 2.01419C40.6873 1.3358 39.3701 0.928398 38.0126 0.820876C35.1028 0.578483 31.6854 1.60399 28.0018 4.41947C23.3833 7.94348 16.4309 8.14858 15.5765 8.14858C14.9487 8.10725 14.4064 8.58458 14.3652 9.2148C14.3476 9.48469 14.4258 9.7521 14.5859 9.96963C20.3807 17.7448 25.6864 22.1825 30.2429 24.2646C33.4251 25.7003 36.2668 26.0048 38.6874 25.5076C41.0719 24.9818 43.1856 23.6062 44.637 21.6355C45.3989 20.6234 46.0062 19.5026 46.4385 18.3104L46.259 18.2234C45.6427 17.926 45.0028 17.6807 44.346 17.49Z" fill="black" fill-opacity="0.05"/>
<path d="M60.7769 27.3287C51.5523 11.8963 44.1851 12.1822 37.2202 12.4557C34.2609 12.5738 31.3821 12.6857 28.5528 11.3743C27.9622 11.1668 27.3159 11.4795 27.1094 12.0724C26.9316 12.583 27.1365 13.1487 27.5994 13.4253C30.924 14.9604 34.069 14.8423 37.3007 14.7118C43.6155 14.4881 50.3017 14.227 58.8267 28.4971C59.1482 29.0377 59.8453 29.2145 60.3838 28.8918C60.9222 28.5692 61.0983 27.8694 60.7769 27.3287Z" fill="black" fill-opacity="0.05"/>
<path d="M25.0115 44.408C24.6649 40.9275 23.5009 38.3047 21.8356 36.4588C20.1954 34.6502 17.9592 33.498 15.5394 33.2144C14.2871 33.0572 13.0184 33.0886 11.7752 33.3077C11.7752 33.376 11.7752 33.4382 11.7752 33.5066C11.8288 34.1985 11.9407 34.8846 12.1095 35.5576C13.1455 35.3697 14.2038 35.3404 15.2484 35.4706C17.1255 35.6808 18.8642 36.5635 20.1454 37.9566C21.4951 39.4545 22.4485 41.6422 22.7456 44.6007C23.1728 48.8767 22.2442 54.6879 19.2416 62.2643C17.5638 59.9273 14.2392 55.9869 9.87461 54.1472C6.16002 52.5872 3.96223 50.5424 2.9469 48.3733C2.50131 47.4525 2.26249 46.4447 2.24732 45.4211C2.25243 44.3971 2.46308 43.3845 2.86642 42.444C3.53118 40.9225 4.54526 39.5808 5.82571 38.5284C5.56522 37.7438 5.35829 36.9423 5.20661 36.1294C3.26976 37.5042 1.74183 39.3819 0.786254 41.5614C0.268534 42.7818 0.00108342 44.0946 0 45.4211C0.00557188 46.789 0.312025 48.1388 0.897692 49.3739C2.13589 52.0278 4.74229 54.4891 9.00168 56.2852C14.685 58.6719 18.4615 65.204 18.4986 65.2724C18.8079 65.8186 19.4994 66.0095 20.0434 65.6992C20.2617 65.5746 20.4327 65.3809 20.5293 65.1481C24.3367 56.2293 25.513 49.3988 25.0115 44.408Z" fill="black" fill-opacity="0.05"/>
<path d="M57.2449 42.2917C56.8841 41.7768 56.1761 41.653 55.6631 42.0152C52.6729 44.1345 51.2056 46.9376 49.695 49.8152C46.7481 55.4089 43.6341 61.3693 27.0608 61.6241C26.4351 61.6343 25.9362 62.1519 25.9464 62.7801C25.9567 63.4083 26.4722 63.9091 27.098 63.8988C45.0208 63.6005 48.4568 57.0621 51.7071 50.8469C53.0815 48.2303 54.4249 45.6697 56.9694 43.8797C57.4823 43.5177 57.6057 42.8067 57.2449 42.2917Z" fill="black" fill-opacity="0.05"/>
<path d="M65.8004 32.5306C65.5894 32.4097 65.3455 32.3597 65.1044 32.3878L65.1353 32.4189C55.5331 33.5625 49.0512 35.9616 44.9651 38.9076C42.1359 40.9524 40.4519 43.2582 39.6966 45.6386C38.9563 47.967 39.0794 50.4857 40.0433 52.7301C40.5356 53.898 41.1992 54.9852 42.012 55.9558L42.173 55.844C42.7435 55.4508 43.28 55.0102 43.7765 54.5263C43.0989 53.7233 42.5459 52.8224 42.1359 51.8538C41.384 50.1028 41.2894 48.1377 41.8696 46.3223C42.4887 44.3956 43.8941 42.4813 46.3024 40.7286C49.7755 38.2425 55.2483 36.1232 63.2842 34.9485C62.1141 37.5775 60.3745 42.4067 60.975 47.1427C61.4827 51.1391 60.8202 54.0851 59.452 56.0615C58.8702 56.9097 58.1092 57.6184 57.2233 58.1374C56.3395 58.6469 55.3624 58.9724 54.3507 59.0945C52.7045 59.2757 51.0391 59.0626 49.4907 58.473C48.9472 59.0947 48.3618 59.6783 47.7387 60.2194C49.8918 61.2139 52.2733 61.6026 54.6292 61.3444C55.9379 61.1837 57.201 60.7611 58.3438 60.1014C59.5209 59.4118 60.5314 58.4694 61.3031 57.3418C62.9685 54.9303 63.7795 51.4498 63.2099 46.8444C62.4299 40.6913 66.2126 34.1094 66.2249 34.0908C66.5368 33.5423 66.3468 32.8439 65.8004 32.5306Z" fill="black" fill-opacity="0.05"/>
</g>
<defs>
<clipPath id="clip0">
<rect width="59" height="55" fill="white"/>
</clipPath>
</defs>
</svg>
