<svg width="40" height="40" viewBox="0 0 40 40" fill="none" xmlns="http://www.w3.org/2000/svg">
<path d="M20 0C8.96104 0 -3.05176e-05 8.96106 -3.05176e-05 20C-3.05176e-05 31.0389 8.96104 40 20 40C31.0389 40 40 31.0389 40 20C40 15.8425 38.7092 11.9852 36.5357 8.78572C36.5255 8.7611 36.5135 8.73723 36.5 8.71429C36.4925 8.70341 36.4896 8.68943 36.4821 8.67857C36.4707 8.66615 36.4588 8.65423 36.4464 8.64286C32.8374 3.42523 26.8211 0 20 0ZM19.0357 1.16071C19.1667 1.15408 19.2969 1.16467 19.4285 1.16071V20C19.4286 20.1515 19.4888 20.2969 19.5959 20.404C19.7031 20.5112 19.8484 20.5714 20 20.5714H38.8393C38.5345 30.7255 30.2282 38.8571 20 38.8571C9.57868 38.8571 1.14283 30.4213 1.14283 20C1.14283 9.90438 9.0661 1.66566 19.0357 1.16071ZM20.5714 1.16071C21.542 1.18984 22.5002 1.27615 23.4285 1.44643V19.4286H20.5714V1.16071ZM24.5714 1.69643C25.5575 1.94176 26.5108 2.26714 27.4285 2.66071V19.4286H24.5714V1.69643ZM28.5714 3.19643C29.5804 3.71172 30.5349 4.3185 31.4285 5V19.4286H28.5714V3.19643ZM32.5714 5.94643C33.6418 6.90483 34.5999 7.98253 35.4285 9.16072V19.4286H32.5714V5.94643ZM36.5714 10.9643C37.9483 13.487 38.7476 16.3731 38.8393 19.4286H36.5714V10.9643Z" fill="#006CAB"/>
</svg>
