<svg width="59" height="52" viewBox="0 0 59 52" fill="none" xmlns="http://www.w3.org/2000/svg">
<g opacity="0.05" clip-path="url(#clip0)">
<path d="M35.4 0C15.8611 0 0 15.8611 0 35.4C0 54.9389 15.8611 70.8 35.4 70.8C54.9389 70.8 70.8 54.9389 70.8 35.4C70.8 28.0413 68.5154 21.2138 64.6682 15.5507C64.6501 15.5071 64.629 15.4649 64.605 15.4243C64.5918 15.405 64.5866 15.3803 64.5734 15.3611C64.5533 15.3391 64.5322 15.318 64.5102 15.2979C58.1222 6.06265 47.4733 0 35.4 0ZM33.6932 2.05446C33.925 2.04272 34.1555 2.06146 34.3886 2.05446V35.4C34.3886 35.6682 34.4952 35.9255 34.6848 36.1152C34.8745 36.3048 35.1318 36.4114 35.4 36.4114H68.7455C68.2062 54.3841 53.504 68.7771 35.4 68.7771C16.9543 68.7771 2.02286 53.8456 2.02286 35.4C2.02286 17.5307 16.047 2.94821 33.6932 2.05446ZM36.4114 2.05446C38.1295 2.10602 39.8254 2.25878 41.4686 2.56018V34.3886H36.4114V2.05446ZM43.4914 3.00268C45.2368 3.43691 46.9241 4.01283 48.5486 4.70946V34.3886H43.4914V3.00268ZM50.5714 5.65768C52.3574 6.56974 54.0468 7.64374 55.6286 8.85V34.3886H50.5714V5.65768ZM57.6514 10.5252C59.546 12.2216 61.2418 14.1291 62.7086 16.2145V34.3886H57.6514V10.5252ZM64.7314 19.4068C67.1685 23.8719 68.5832 28.9803 68.7455 34.3886H64.7314V19.4068Z" fill="black"/>
</g>
<defs>
<clipPath id="clip0">
<rect width="59" height="52" fill="white"/>
</clipPath>
</defs>
</svg>
