<svg width="58" height="51" viewBox="0 0 58 51" fill="none" xmlns="http://www.w3.org/2000/svg">
<g clip-path="url(#clip0)">
<path d="M24.8706 -3.8147e-06H16.1469C11.7325 0.00375435 8.15568 3.58293 8.15568 7.99783V59.5734C5.59309 60.1569 3.77461 62.4338 3.77179 65.0617V70.9541H67.1705V65.0617C67.1654 62.4146 65.3215 60.1268 62.7354 59.5607V7.99783C62.7354 3.58105 59.1544 -3.8147e-06 54.7376 -3.8147e-06C54.7357 -3.8147e-06 54.7329 -3.8147e-06 54.731 -3.8147e-06H46.0271C41.615 0.00704274 38.042 3.58575 38.042 7.99783V16.5735C37.2161 16.7511 36.6256 17.4811 36.6233 18.3257V21.041H34.3322V18.3257C34.3289 17.4646 33.7144 16.7271 32.8684 16.5669V7.99783C32.8684 3.58105 29.2873 -3.8147e-06 24.8706 -3.8147e-06ZM46.1939 21.0603V18.3257C46.192 17.4454 45.5494 16.697 44.6789 16.5608V7.99783C44.6789 7.25325 45.2825 6.65006 46.0271 6.65006H54.731C55.4756 6.65006 56.0788 7.25325 56.0788 7.99783V59.432H51.3548V26.6961C51.3651 23.76 49.1196 21.3078 46.1939 21.0603ZM38.5427 18.4544H44.2683V21.0217H38.5427V18.4544ZM49.4546 59.4259H21.5197V29.1929H49.4292L49.4546 59.4259ZM19.6261 26.6895V59.4259H14.8057V7.99783C14.8057 7.25325 15.4089 6.65006 16.1535 6.65006H24.8706C25.6151 6.65006 26.2183 7.25325 26.2183 7.99783V16.5603C25.3723 16.7205 24.7578 17.4581 24.755 18.3191V21.0603C21.8387 21.3069 19.5974 23.7441 19.5941 26.6702L19.6261 26.6895ZM26.6872 18.4737H32.4127V21.041H26.6806L26.6872 18.4737ZM10.0813 7.99783C10.085 4.64931 12.7984 1.93592 16.1469 1.93216H24.8706C28.2191 1.93592 30.9325 4.64931 30.9362 7.99783V16.535H28.1439V7.99783C28.1439 6.18969 26.6787 4.724 24.8701 4.724H16.1469C14.3388 4.724 12.8736 6.18969 12.8736 7.99783V59.432H10.0813V7.99783ZM65.2449 65.0617V69.0285H5.69738V65.0617C5.70113 63.0178 7.35754 61.3618 9.40104 61.3581H61.5352C63.5838 61.3538 65.2477 63.0126 65.2515 65.0617H65.2449ZM39.9676 7.99783C39.9713 4.64931 42.6847 1.93592 46.0332 1.93216H54.731C58.0795 1.93592 60.7929 4.64931 60.7967 7.99783V59.432H58.0236V7.99783C58.0236 6.18969 56.5584 4.724 54.7498 4.724H46.0266C44.2185 4.724 42.7533 6.18969 42.7533 7.99783V16.535H39.9676V7.99783ZM45.7448 22.9666C47.7883 22.9703 49.4442 24.6267 49.4485 26.6702V27.2607H21.5197V26.6702C21.523 24.6338 23.1676 22.9807 25.2041 22.9666H45.7448Z" fill="black" fill-opacity="0.05"/>
</g>
<defs>
<clipPath id="clip0">
<rect width="58" height="51" fill="white"/>
</clipPath>
</defs>
</svg>
