<svg width="42" height="42" viewBox="0 0 42 42" fill="none" xmlns="http://www.w3.org/2000/svg">
<path d="M10.7534 32.856C10.5419 30.5486 9.48024 28.8602 8.40294 27.1287C6.27184 23.7479 4.01539 20.1673 9.10808 10.9966C9.29249 10.6472 9.1593 10.2144 8.81035 10.029C8.46444 9.83634 8.02784 9.96062 7.8352 10.3065C7.8351 10.3067 7.835 10.3069 7.83491 10.3071C2.32696 20.2144 4.81846 24.1592 7.16894 27.8926C8.16789 29.4595 9.12767 31.0265 9.32354 32.9852C9.35928 33.3801 9.70823 33.6713 10.1031 33.6355C10.498 33.5998 10.7892 33.2509 10.7534 32.856Z" fill="#fff"/>
<path d="M28.0607 11.024C27.8325 11.6515 27.5102 12.2407 27.1049 12.7712C26.3906 13.7335 25.3528 14.4055 24.1824 14.6633C22.9367 14.9336 21.4402 14.7652 19.7322 13.9934C17.2603 12.877 14.381 10.5343 11.2157 6.50327C13.0177 6.31915 16.2183 5.73936 18.604 3.92558C20.6215 2.38994 22.4431 1.82583 23.9513 1.96686C24.5994 2.01837 25.2281 2.21229 25.7925 2.53489C26.3495 2.85769 26.8358 3.28939 27.2224 3.80414C27.842 4.64796 28.2529 5.62664 28.4211 6.65996C28.9322 6.75614 29.4361 6.88698 29.9293 7.05171C29.7909 5.55759 29.2493 4.12909 28.3624 2.9188C27.8569 2.24882 27.2213 1.68784 26.4937 1.26955C25.7456 0.841961 24.9122 0.585172 24.0532 0.5174C22.212 0.36462 20.0495 1.011 17.7186 2.7856C14.7962 5.0068 10.3969 5.13608 9.85632 5.13608C9.45909 5.11002 9.11592 5.41088 9.08987 5.80811C9.0787 5.97823 9.12816 6.14678 9.22952 6.28389C12.8963 11.1846 16.2535 13.9817 19.1368 15.294C21.1503 16.199 22.9484 16.3909 24.4802 16.0775C25.989 15.7461 27.3265 14.8791 28.2448 13.6369C28.727 12.999 29.1113 12.2926 29.3848 11.5411L29.2712 11.4863C28.8812 11.2988 28.4764 11.1442 28.0607 11.024Z" fill="#fff"/>
<path d="M38.4577 17.2253C32.6207 7.4983 27.9589 7.6785 23.5518 7.85087C21.6792 7.9253 19.8576 7.99581 18.0673 7.16923C17.6936 7.03849 17.2846 7.23553 17.154 7.60926C17.0414 7.93108 17.1711 8.28766 17.464 8.46199C19.5677 9.4296 21.5578 9.35517 23.6027 9.2729C27.5985 9.13188 31.8293 8.96734 37.2237 17.9618C37.4271 18.3025 37.8682 18.414 38.2089 18.2106C38.5497 18.0073 38.6611 17.5662 38.4577 17.2253Z" fill="#fff"/>
<path d="M15.8265 27.9905C15.6071 25.7967 14.8707 24.1436 13.8169 22.9801C12.779 21.8401 11.364 21.1139 9.83281 20.9352C9.04041 20.836 8.23762 20.8558 7.451 20.9939C7.451 21.037 7.451 21.0762 7.451 21.1193C7.48488 21.5554 7.55569 21.9879 7.66254 22.412C8.31803 22.2936 8.98772 22.2751 9.64869 22.3572C10.8365 22.4897 11.9367 23.0461 12.7474 23.9242C13.6014 24.8683 14.2047 26.2472 14.3927 28.1119C14.663 30.8071 14.0754 34.47 12.1754 39.2453C11.1138 37.7724 9.01014 35.2887 6.24834 34.1291C3.89787 33.1459 2.50717 31.857 1.86471 30.4898C1.58275 29.9095 1.43163 29.2742 1.42204 28.629C1.42527 27.9836 1.55856 27.3454 1.81378 26.7526C2.23442 25.7936 2.8761 24.9479 3.68632 24.2846C3.5215 23.79 3.39056 23.2848 3.29458 22.7724C2.069 23.639 1.10218 24.8225 0.497517 26.1963C0.16992 26.9655 0.000685554 27.793 0 28.629C0.00352571 29.4913 0.19744 30.342 0.568031 31.1205C1.35152 32.7933 3.00077 34.3446 5.69598 35.4768C9.2922 36.9811 11.6818 41.0983 11.7054 41.1414C11.901 41.4856 12.3386 41.606 12.6829 41.4104C12.8209 41.3319 12.9292 41.2097 12.9903 41.063C15.3995 35.4415 16.1438 31.1362 15.8265 27.9905Z" fill="#fff"/>
<path d="M36.2227 26.6566C35.9945 26.332 35.5464 26.254 35.2218 26.4823C33.3297 27.8181 32.4013 29.5849 31.4454 31.3987C29.5807 34.9244 27.6102 38.6812 17.1232 38.8418C16.7273 38.8483 16.4116 39.1745 16.4181 39.5705C16.4245 39.9664 16.7508 40.2821 17.1467 40.2756C28.4877 40.0876 30.6619 35.9664 32.7186 32.049C33.5883 30.3997 34.4383 28.7857 36.0484 27.6575C36.373 27.4293 36.451 26.9812 36.2227 26.6566Z" fill="#fff"/>
<path d="M41.6364 20.5041C41.5029 20.428 41.3485 20.3964 41.196 20.4141L41.2155 20.4337C35.1396 21.1545 31.038 22.6667 28.4525 24.5236C26.6622 25.8124 25.5967 27.2658 25.1187 28.7662C24.6503 30.2337 24.7282 31.8213 25.3381 33.236C25.6496 33.9721 26.0695 34.6573 26.5839 35.2691L26.6857 35.1986C27.0467 34.9508 27.3861 34.6731 27.7003 34.3681C27.2716 33.862 26.9216 33.2941 26.6622 32.6836C26.1864 31.58 26.1266 30.3414 26.4937 29.1971C26.8855 27.9827 27.7748 26.7761 29.2986 25.6714C31.4963 24.1044 34.9594 22.7685 40.0442 22.0281C39.3038 23.6852 38.203 26.7291 38.583 29.7142C38.9042 32.2331 38.4851 34.09 37.6193 35.3357C37.2512 35.8704 36.7696 36.317 36.209 36.6442C35.6498 36.9653 35.0315 37.1705 34.3913 37.2474C33.3497 37.3616 32.2959 37.2274 31.3161 36.8557C30.9722 37.2475 30.6018 37.6154 30.2075 37.9565C31.5699 38.5833 33.0768 38.8283 34.5676 38.6656C35.3957 38.5643 36.1949 38.2979 36.9181 37.8821C37.6629 37.4474 38.3023 36.8534 38.7906 36.1427C39.8444 34.6227 40.3576 32.429 39.9972 29.5261C39.5036 25.6479 41.8972 21.4993 41.905 21.4875C42.1024 21.1418 41.9821 20.7016 41.6364 20.5041Z" fill="#fff"/>
</svg>
