<svg width="66" height="49" viewBox="0 0 66 49" fill="none" xmlns="http://www.w3.org/2000/svg">
<path d="M74.1667 43.225H70.1608V37.2917C70.1608 21.3442 58.91 7.94583 43.31 5.15416V3.94249C43.31 2.22833 41.915 0.833326 40.2008 0.833326H34.7983C33.0842 0.833326 31.6892 2.22833 31.6892 3.94249V5.15416C16.0892 7.94583 4.83833 21.3433 4.83833 37.2917V43.225H0.833333C0.373333 43.225 0 43.5975 0 44.0583C0 47.6967 2.60333 50.7592 6.19083 51.34C16.5783 53.0225 27.0392 53.8642 37.5 53.8642C47.9617 53.8642 58.4217 53.0225 68.81 51.3408C72.3967 50.7592 75 47.6967 75 44.0583C75 43.5975 74.6275 43.225 74.1667 43.225ZM33.3558 3.94249C33.3558 3.14666 34.0025 2.49999 34.7983 2.49999H40.2008C40.9967 2.49999 41.6433 3.14666 41.6433 3.94249V30.0358C41.6433 30.8317 40.9967 31.4783 40.2008 31.4783H34.7983C34.0025 31.4783 33.3558 30.8317 33.3558 30.0358V3.94249ZM6.50583 37.2917C6.50583 27.2408 11.2142 18.255 18.7125 12.5758L22.6967 32.4758C22.7758 32.8725 23.1242 33.1458 23.5125 33.1458C23.5667 33.1458 23.6217 33.1408 23.6767 33.1292C24.1283 33.0392 24.4208 32.5992 24.33 32.1483L20.2 11.5217C23.585 9.26083 27.465 7.64416 31.6883 6.84749V30.0358C31.6883 31.7508 33.0833 33.145 34.7975 33.145H40.2C41.915 33.145 43.3092 31.75 43.3092 30.0358V6.84749C47.5325 7.64416 51.4125 9.26166 54.7983 11.5225L50.6683 32.1492C50.5783 32.6008 50.87 33.0392 51.3217 33.13C51.3767 33.1417 51.4317 33.1467 51.4858 33.1467C51.875 33.1467 52.2233 32.8733 52.3017 32.4767L56.2858 12.5775C63.7842 18.2567 68.4925 27.2425 68.4925 37.2933V43.2267H6.50583V37.2917ZM68.5433 49.695C47.9442 53.0317 27.055 53.0317 6.4575 49.695C3.96 49.2908 2.07917 47.3317 1.72667 44.8917H73.2742C72.9217 47.3317 71.04 49.29 68.5433 49.695Z" fill="black" fill-opacity="0.05"/>
<path d="M68.818 51.3902L68.81 51.3408L68.818 51.3902C72.4289 50.8046 75.05 47.7211 75.05 44.0583C75.05 43.5699 74.6551 43.175 74.1667 43.175H70.2108V37.2917C70.2108 21.334 58.9625 7.92447 43.36 5.11234V3.94249C43.36 2.20071 41.9426 0.783326 40.2008 0.783326H34.7983C33.0565 0.783326 31.6392 2.20071 31.6392 3.94249V5.11234C16.0367 7.92447 4.78833 21.3332 4.78833 37.2917V43.175H0.833333C0.345752 43.175 -0.05 43.5698 -0.05 44.0583C-0.05 47.7211 2.57108 50.8046 6.18284 51.3894C16.573 53.0723 27.0365 53.9142 37.5 53.9142C47.9644 53.9142 58.427 53.0723 68.818 51.3902ZM50.6193 32.1393L50.6193 32.1394C50.5239 32.618 50.833 33.0826 51.3115 33.179C51.3703 33.1914 51.4287 33.1967 51.4858 33.1967C51.8983 33.1967 52.2676 32.907 52.3507 32.4863L56.3192 12.6656C63.7683 18.3381 68.4425 27.2869 68.4425 37.2933V43.1767H6.55583V37.2917C6.55583 27.2852 11.23 18.3364 18.6791 12.6639L22.6476 32.4856C22.6476 32.4856 22.6476 32.4856 22.6476 32.4856C22.7316 32.9062 23.1008 33.1958 23.5125 33.1958C23.5697 33.1958 23.6282 33.1905 23.6869 33.1781C24.1655 33.0825 24.4753 32.6162 24.379 32.1385L20.2556 11.5447C23.6126 9.30782 27.4562 7.70498 31.6383 6.90787V30.0358C31.6383 31.7785 33.0557 33.195 34.7975 33.195H40.2C41.9426 33.195 43.3592 31.7776 43.3592 30.0358V6.90787C47.5413 7.70498 51.3849 9.30865 54.7427 11.5455L50.6193 32.1393ZM33.4058 3.94249C33.4058 3.17427 34.0301 2.54999 34.7983 2.54999H40.2008C40.9691 2.54999 41.5933 3.17427 41.5933 3.94249V30.0358C41.5933 30.804 40.9691 31.4283 40.2008 31.4283H34.7983C34.0301 31.4283 33.4058 30.804 33.4058 30.0358V3.94249ZM68.5353 49.6456C47.9415 52.9814 27.0577 52.9814 6.4655 49.6456C4.00931 49.2482 2.15501 47.3337 1.7847 44.9417H73.2161C72.8458 47.3336 70.9907 49.2473 68.5353 49.6456Z" stroke="black" stroke-opacity="0.05" stroke-width="0.1"/>
</svg>
