<svg width="50" height="50" viewBox="0 0 50 50" fill="none" xmlns="http://www.w3.org/2000/svg">
<path d="M46.3001 7.16782C46.682 7.54929 47.1832 7.74002 47.6845 7.74002C48.1861 7.74002 48.6874 7.54929 49.0692 7.16782C50.3101 5.92651 50.3101 3.90663 49.0692 2.66533L47.3362 0.932693C46.735 0.331116 45.9354 0 45.0851 0C44.2349 0 43.4353 0.331116 42.8341 0.932312C42.0689 1.69792 42.0689 2.93617 42.8341 3.7014L44.0495 4.91676L41.6191 7.34673L41.2705 6.99806C40.5071 6.23474 39.2651 6.23474 38.5017 6.99806L37.7998 7.70035C33.7326 5.60646 28.717 6.38504 25.4169 9.68475L2.36816 32.7347C0.841141 34.2621 0 36.2926 0 38.4521C0 40.612 0.841141 42.6422 2.36816 44.1696L5.8342 47.6357C7.41043 49.2119 9.48067 50 11.5509 50C13.6215 50 15.6921 49.2119 17.268 47.6357L40.4041 24.4987C43.6688 21.2337 44.4138 16.2514 42.3065 12.1975L43.0035 11.5005C43.7672 10.7368 43.7672 9.49478 43.0035 8.73146L42.6552 8.3828L43.3075 7.7301L45.5013 9.92393L45.3964 10.0178C45.0947 10.2871 45.0684 10.7502 45.3373 11.0519C45.4823 11.2141 45.6825 11.2968 45.8843 11.2968C46.0579 11.2968 46.2318 11.2354 46.3715 11.1111L47.7387 9.89113C48.0408 9.62181 48.0667 9.15871 47.7978 8.85658C47.5285 8.55522 47.0654 8.52852 46.7636 8.79784L46.5961 8.94699L44.3436 6.69441L45.0851 5.95245L46.3001 7.16782ZM39.4615 11.1729L40.8115 12.5164C42.8623 16.0664 42.2756 20.5551 39.3681 23.4627L37.4165 25.4143L30.0407 18.0386C29.7581 17.7559 29.2946 17.7505 29.0047 18.0386C28.7197 18.3247 28.7197 18.7897 29.0047 19.0746L36.3808 26.4503L18.3529 44.479L10.9779 37.1033C10.6888 36.8145 10.2261 36.8187 9.94148 37.1033C9.655 37.3898 9.65729 37.8544 9.94148 38.1386L17.3172 45.5147L16.2323 46.5996C13.6509 49.1814 9.45091 49.181 6.86989 46.5996L3.40385 43.1335C2.1534 41.8831 1.46484 40.2206 1.46484 38.4521C1.46484 36.6837 2.1534 35.0212 3.40385 33.7708L4.48914 32.6859L7.87048 36.0672C8.15277 36.3499 8.61588 36.3579 8.90656 36.0672C9.19037 35.7819 9.19342 35.3199 8.90656 35.0311C8.90465 35.0292 8.90274 35.0277 8.90083 35.0258L5.52483 31.6498L23.5523 13.6215C27.4403 17.5098 26.8768 16.9464 26.9337 17.0033C27.2022 17.2699 27.6253 17.289 27.9148 17.0525C28.2555 16.7747 28.2707 16.2682 27.9697 15.9672C27.9694 15.9668 27.969 15.9664 27.9686 15.966L24.5884 12.5858L26.453 10.7208C29.4182 7.7549 33.9859 7.14493 37.5603 9.23767C37.5645 9.23996 37.5687 9.24187 37.5732 9.24416C37.8506 9.40018 38.2042 9.35898 38.4388 9.13239C38.4419 9.12933 38.4453 9.12666 38.4483 9.12361L39.5378 8.03413C39.7301 7.84187 40.0429 7.84225 40.2348 8.03413L41.9678 9.76753C42.16 9.95941 42.16 10.2722 41.9678 10.4645L41.3986 11.0336L40.4953 10.1345C40.2084 9.84917 39.7446 9.84993 39.4596 10.1368C39.1739 10.4237 39.175 10.8875 39.4615 11.1729ZM43.8698 2.66533C43.6771 2.47269 43.6771 2.16103 43.8702 1.96838C44.1944 1.64375 44.6262 1.46484 45.0851 1.46484C45.5441 1.46484 45.9755 1.64375 46.3001 1.96838L48.0331 3.7014C48.7049 4.37279 48.7049 5.45998 48.0331 6.13174C47.8413 6.32401 47.5281 6.32401 47.3362 6.13174L43.8698 2.66533Z" fill="#006CAB"/>
<path d="M21.9828 27.0512C21.9832 27.0508 21.9835 27.0504 21.9835 27.05L24.0545 24.9794C24.3403 24.6933 24.3403 24.2294 24.0545 23.9433C23.7684 23.6576 23.3046 23.6576 23.0185 23.9433L21.4647 25.497L19.7386 23.7709L21.2923 22.2172C21.5784 21.9307 21.5784 21.4672 21.2923 21.1811C21.0062 20.895 20.5424 20.895 20.2563 21.1811L16.1127 25.3246C15.827 25.6107 15.827 26.0746 16.1127 26.3607C16.3992 26.6464 16.8627 26.6464 17.1488 26.3607L18.7025 24.8066L20.4287 26.5331L18.875 28.0868C18.5892 28.3729 18.5892 28.8368 18.875 29.1229C19.1614 29.409 19.6249 29.4086 19.911 29.1229L21.9816 27.0519C21.982 27.0515 21.9824 27.0515 21.9828 27.0512Z" fill="#006CAB"/>
<path d="M22.1206 28.2246C20.9754 29.3697 20.9754 31.2229 22.1206 32.3681L22.673 32.9205C22.9591 33.2066 23.4229 33.2066 23.709 32.9205C23.9951 32.6344 23.9951 32.1709 23.7087 31.8848C23.2131 31.3889 22.5192 30.8834 22.7767 29.9168L25.2281 32.3681C25.5138 32.6542 25.9776 32.6542 26.2637 32.3681C27.4089 31.2229 27.4089 29.3697 26.2637 28.2246C25.1193 27.0798 23.2658 27.0794 22.1206 28.2246ZM25.6076 30.6759L23.8128 28.8807C24.2942 28.7525 24.839 28.8708 25.2281 29.2606C25.611 29.6436 25.7385 30.1849 25.6076 30.6759Z" fill="#006CAB"/>
</svg>
