<svg width="40" height="40" viewBox="0 0 40 40" fill="none" xmlns="http://www.w3.org/2000/svg">
<g clip-path="url(#clip0)">
<path d="M35.6671 34.6749H33.9879V26.1425C33.9879 25.9178 33.8055 25.7355 33.5806 25.7355H31.6854V19.2159L31.8838 19.298C31.9858 19.3402 32.0912 19.3602 32.195 19.3602C32.5144 19.3602 32.8176 19.1708 32.9475 18.8573L34.1062 16.059C34.1886 15.8594 34.1886 15.6353 34.106 15.4358C34.0234 15.2363 33.8649 15.0779 33.6653 14.9953L16.0686 7.70942C16.7117 6.48293 17.2896 5.23341 17.7863 3.99579C17.9524 3.58169 17.7544 3.11102 17.3422 2.94046L10.3911 0.0621626C9.97927 -0.10857 9.50608 0.0843187 9.33101 0.494685C7.60986 4.5251 6.49971 9.01707 5.8372 14.6311C5.79445 14.9931 5.99759 15.3393 6.33445 15.4788L9.31372 16.7122C9.65005 16.8516 10.0385 16.7503 10.2643 16.4642C11.5566 14.8255 12.6722 13.2863 13.6748 11.7587L17.192 13.2149L17.0189 14.4135L16.4946 18.0438L14.0931 34.6749H8.47161H4.33284C3.88329 34.6749 3.5188 35.0392 3.5188 35.489V39.186C3.5188 39.6356 3.88329 40 4.33284 40H35.6671C36.1166 40 36.4811 39.6356 36.4811 39.186V35.489C36.4811 35.0392 36.1166 34.6749 35.6671 34.6749ZM30.0573 25.7355H28.1622C27.9371 25.7355 27.7548 25.9178 27.7548 26.1425V34.6749H25.9068L23.5051 18.0438L23.1651 15.6882L30.0571 18.5419V25.7355H30.0573ZM22.0159 20.2216L19.1548 18.0874L21.4301 16.1643L22.0159 20.2216ZM21.0608 21.7363L17.4322 24.0435L18.0859 19.5171L21.0608 21.7363ZM22.4158 22.9907L23.2898 29.0444L18.5801 25.4295L22.4158 22.9907ZM18.9242 34.6749L23.6124 31.2779L24.103 34.6749H18.9242ZM20.5225 14.5938L18.5568 16.2549L18.894 13.9196L20.5225 14.5938ZM17.0739 26.5239L21.9572 30.2723L15.8989 34.6619L17.0739 26.5239Z" fill="#006CAB"/>
</g>
<defs>
<clipPath id="clip0">
<rect width="40" height="40" fill="white"/>
</clipPath>
</defs>
</svg>
