<svg width="50" height="42" viewBox="0 0 50 42" fill="none" xmlns="http://www.w3.org/2000/svg">
<path d="M44.3848 30.3147C43.0412 30.3147 41.8068 30.7897 40.8394 31.5797L34.811 25.5509C36.1523 23.9743 36.9633 21.9331 36.9633 19.7061C36.9633 17.4787 36.1523 15.4374 34.811 13.8608L35.4958 13.1761C36.4071 13.8371 37.4928 14.1252 38.5681 14.045C39.7423 13.9543 40.8279 13.429 41.6248 12.5657C42.4179 11.7063 42.8543 10.5901 42.8543 9.42392C42.8543 6.83946 40.7608 4.78143 38.2206 4.78143C36.9175 4.78143 35.6888 5.31816 34.8068 6.27374C34.0137 7.13396 33.577 8.24937 33.577 9.41515C33.577 9.53722 33.5819 9.65738 33.5907 9.77182V9.77373C33.6201 10.1525 33.9405 10.4505 34.3204 10.4505C34.3399 10.4505 34.3586 10.4493 34.3769 10.4474C34.7794 10.4173 35.0822 10.0648 35.0517 9.66158C35.0517 9.66158 35.0517 9.66043 35.051 9.66043C35.0449 9.57727 35.0418 9.49716 35.0418 9.41515C35.0418 7.69167 36.4536 6.24513 38.2206 6.24513C39.9361 6.24513 41.3895 7.64742 41.3895 9.42392C41.3906 11.0715 40.1024 12.46 38.4579 12.584C37.4821 12.6527 36.6032 12.2952 35.9718 11.6639C35.6857 11.3782 35.2222 11.3782 34.9361 11.6639L33.7749 12.8247C32.1983 11.4835 30.1571 10.6729 27.9301 10.6729C25.7027 10.6729 23.6614 11.4835 22.0848 12.8247L17.2409 7.9812C17.8562 7.19423 18.224 6.20508 18.224 5.13086C18.224 2.5731 16.143 0.492188 13.5853 0.492188C11.0279 0.492188 8.94661 2.5731 8.94661 5.13086C8.94661 7.68861 11.0279 9.76953 13.5853 9.76953C14.5412 9.76953 15.4305 9.47885 16.1694 8.98141L21.0487 13.8608C19.8559 15.2631 19.083 17.0323 18.9266 18.9736H10.498C10.0933 18.9736 9.76562 19.3013 9.76562 19.7061C9.76562 21.9972 7.91168 23.8545 5.61523 23.8564C3.32413 23.8545 1.46484 22.0025 1.46484 19.7061C1.46484 17.4146 3.31879 15.5557 5.61523 15.5557C6.98433 15.5557 8.26454 16.2316 9.04198 17.3634C9.17854 17.5637 9.40437 17.682 9.64737 17.682C9.795 17.682 9.93767 17.6377 10.0605 17.5538C10.3935 17.3264 10.4786 16.8691 10.2509 16.5353C9.20296 15.0048 7.46956 14.0908 5.61523 14.0908C2.51427 14.0908 0 16.6032 0 19.7061C0 22.7918 2.49367 25.3175 5.61523 25.3213C8.46634 25.3179 10.8223 23.2034 11.1816 20.4385H18.9266C19.083 22.3794 19.8559 24.149 21.0487 25.5509L13.5719 33.0277C13.2919 33.3077 13.2809 33.7708 13.5723 34.0646C14.1708 34.6642 14.502 35.4608 14.502 36.3084C14.502 38.0513 13.0932 39.4803 11.3281 39.4822C9.57565 39.4803 8.1543 38.0643 8.1543 36.3084C8.1543 34.5788 9.56154 33.0857 11.4414 33.1368C11.8999 33.1368 12.1864 32.7992 12.1994 32.4307C12.2131 32.0264 11.8965 31.6865 11.4922 31.6728C8.85048 31.5824 6.68945 33.6957 6.68945 36.3088C6.68945 38.8761 8.77151 40.9474 11.3281 40.9474C13.8863 40.9474 15.9668 38.8749 15.9668 36.3088C15.9668 35.2918 15.6403 34.353 15.0845 33.5874L22.0848 26.587C23.6614 27.9283 25.7027 28.7389 27.9301 28.7389C30.1575 28.7389 32.1987 27.9283 33.7753 26.587L39.8342 32.6459C39.1655 33.5702 38.7695 34.7047 38.7695 35.93C38.7695 39.0264 41.2884 41.5452 44.3848 41.5452C47.4812 41.5452 50 39.0264 50 35.93C50 32.8336 47.4812 30.3147 44.3848 30.3147ZM10.4115 5.13086C10.4115 3.38068 11.8351 1.95703 13.5853 1.95703C15.3355 1.95703 16.7591 3.38068 16.7591 5.13086C16.7591 6.88104 15.3355 8.30469 13.5853 8.30469C11.8351 8.30469 10.4115 6.88104 10.4115 5.13086ZM27.9301 27.2744C23.7568 27.2744 20.3617 23.879 20.3617 19.7061C20.3617 15.5328 23.7568 12.1377 27.9301 12.1377C32.103 12.1377 35.4984 15.5328 35.4984 19.7061C35.4984 23.879 32.103 27.2744 27.9301 27.2744ZM44.3848 40.0804C42.0963 40.0804 40.2344 38.2184 40.2344 35.93C40.2344 33.6415 42.0963 31.7796 44.3848 31.7796C46.6732 31.7796 48.5352 33.6415 48.5352 35.93C48.5352 38.2184 46.6732 40.0804 44.3848 40.0804Z" fill="#006CAB"/>
</svg>
