<svg width="423" height="77" viewBox="0 0 423 77" fill="none" xmlns="http://www.w3.org/2000/svg">
<circle cx="294.5" cy="2.5" r="2.5" fill="#006CAB"/>
<path d="M294 5H295V39H294V5Z" fill="#E6E6E6"/>
<path d="M2 39H295V40H2V39Z" fill="#E6E6E6"/>
<path d="M2 40H3V72H2V40Z" fill="#E6E6E6"/>
<circle cx="2.5" cy="74.5" r="2.5" fill="#006CAB"/>
<circle cx="315.5" cy="2.5" r="2.5" fill="#006CAB"/>
<path d="M315 5H316V59H315V5Z" fill="#E6E6E6"/>
<path d="M211 59H316V60H211V59Z" fill="#E6E6E6"/>
<path d="M211 60H212V72H211V60Z" fill="#E6E6E6"/>
<circle cx="211.5" cy="74.5" r="2.5" fill="#006CAB"/>
<circle cx="336.5" cy="2.5" r="2.5" fill="#006CAB"/>
<path d="M336 5H337V40H336V5Z" fill="#E6E6E6"/>
<path d="M336 39H420V40H336V39Z" fill="#E6E6E6"/>
<path d="M420 39H421V72H420V39Z" fill="#E6E6E6"/>
<circle cx="420.5" cy="74.5" r="2.5" fill="#006CAB"/>
</svg>
