<svg width="50" height="50" viewBox="0 0 50 50" fill="none" xmlns="http://www.w3.org/2000/svg">
<path d="M25.0499 4.79015V3.27633C26.3332 3.30304 27.3693 4.35561 27.3693 5.64516C27.3693 6.95142 26.3062 8.01452 24.9999 8.01452C23.7104 8.01452 22.6578 6.97844 22.6311 5.69516H24.1449C24.1709 6.14472 24.5447 6.50161 24.9999 6.50161C25.4719 6.50161 25.8564 6.11797 25.8564 5.64516C25.8564 5.18917 25.4987 4.81611 25.0499 4.79015Z" fill="#006CAB" stroke="white" stroke-width="0.1"/>
<path d="M45.2114 10.4839C45.2114 10.0111 44.8268 9.62742 44.3549 9.62742C43.8997 9.62742 43.5259 9.98431 43.4999 10.4339H41.9861C42.0128 9.15059 43.0654 8.11452 44.3549 8.11452C45.6612 8.11452 46.7243 9.17761 46.7243 10.4839C46.7243 11.7734 45.6882 12.826 44.4049 12.8527V11.3389C44.8537 11.3129 45.2114 10.9399 45.2114 10.4839Z" fill="#006CAB" stroke="white" stroke-width="0.1"/>
<mask id="path-3-inside-1" fill="white">
<path d="M44.3548 24.1935C43.3919 24.1935 42.4847 24.4371 41.6903 24.8645L34.4629 15.0548L39.4089 13.2C40.371 14.9444 42.2266 16.129 44.3548 16.129C47.4677 16.129 50 13.596 50 10.4839C50 7.37177 47.4677 4.83871 44.3548 4.83871C41.2419 4.83871 38.7097 7.37177 38.7097 10.4839C38.7097 10.8976 38.7573 11.3008 38.8427 11.6895L25.8065 16.5782V11.2258C28.5379 10.8323 30.6452 8.48306 30.6452 5.64516C30.6452 2.53306 28.1129 0 25 0C21.8871 0 19.3548 2.53306 19.3548 5.64516C19.3548 8.48306 21.4621 10.8323 24.1935 11.2258V15.3226H19.3548V11.7629L16.6113 9.01935C17.3177 8.07661 17.7419 6.91129 17.7419 5.64516C17.7419 2.53306 15.2097 0 12.0968 0C8.98387 0 6.45161 2.53306 6.45161 5.64516C6.45161 8.75726 8.98387 11.2903 12.0968 11.2903C13.3629 11.2903 14.5282 10.8661 15.471 10.1597L17.7419 12.4306V15.3226H11.2258C10.8323 12.5919 8.48306 10.4839 5.64516 10.4839C2.53226 10.4839 0 13.0169 0 16.129C0 19.2411 2.53226 21.7742 5.64516 21.7742C8.48306 21.7742 10.8323 19.6661 11.2258 16.9355H14.2177L9.80403 30.729C9.49919 30.6782 9.18952 30.6452 8.87097 30.6452C5.75806 30.6452 3.22581 33.1782 3.22581 36.2903C3.22581 39.4024 5.75806 41.9355 8.87097 41.9355C11.9839 41.9355 14.5161 39.4024 14.5161 36.2903C14.5161 34.0637 13.2169 32.1395 11.3395 31.2218L15.9113 16.9355H24.1935V20.1613H16.9355V25H18.5484V31.9226C18.5484 32.5444 18.4008 33.1685 18.1226 33.725L12.4573 45.0556C12.2218 45.5274 12.0968 46.0556 12.0968 46.5839C12.0968 48.4677 13.629 50 15.5129 50H34.4871C36.371 50 37.9032 48.4677 37.9032 46.5839C37.9032 46.0565 37.7782 45.5274 37.5427 45.0556L31.8774 33.725C31.5992 33.1685 31.4516 32.5444 31.4516 31.9226V25H33.0645V20.1613H25.8065V18.3008L32.8935 15.6435L40.3936 25.8226C39.3556 26.8468 38.7097 28.2685 38.7097 29.8387C38.7097 32.9508 41.2419 35.4839 44.3548 35.4839C47.4677 35.4839 50 32.9508 50 29.8387C50 26.7266 47.4677 24.1935 44.3548 24.1935ZM44.3548 6.45161C46.5782 6.45161 48.3871 8.26048 48.3871 10.4839C48.3871 12.7073 46.5782 14.5161 44.3548 14.5161C42.1315 14.5161 40.3226 12.7073 40.3226 10.4839C40.3226 8.26048 42.1315 6.45161 44.3548 6.45161ZM12.0968 9.67742C9.87339 9.67742 8.06452 7.86855 8.06452 5.64516C8.06452 3.42177 9.87339 1.6129 12.0968 1.6129C14.3202 1.6129 16.129 3.42177 16.129 5.64516C16.129 7.86855 14.3202 9.67742 12.0968 9.67742ZM5.64516 20.1613C3.42177 20.1613 1.6129 18.3524 1.6129 16.129C1.6129 13.9056 3.42177 12.0968 5.64516 12.0968C7.86855 12.0968 9.67742 13.9056 9.67742 16.129C9.67742 18.3524 7.86855 20.1613 5.64516 20.1613ZM12.9032 36.2903C12.9032 38.5137 11.0944 40.3226 8.87097 40.3226C6.64758 40.3226 4.83871 38.5137 4.83871 36.2903C4.83871 34.0669 6.64758 32.2581 8.87097 32.2581C11.0944 32.2581 12.9032 34.0669 12.9032 36.2903ZM32.1637 37.9065L36.0992 45.7774C36.2242 46.0258 36.2903 46.3056 36.2903 46.5839C36.2903 47.5782 35.4815 48.3871 34.4871 48.3871H15.5129C14.5185 48.3871 13.7097 47.5782 13.7097 46.5839C13.7097 46.3056 13.7758 46.0266 13.9 45.7774L16.2363 41.1048C20.104 40.9823 22.7306 40.1177 25.0532 39.3403C27.2347 38.6097 29.2992 37.9218 32.1637 37.9065ZM31.4516 21.7742V23.3871H28.2258V25H29.8387V31.9226C29.8387 32.7944 30.0444 33.6669 30.4347 34.4468L31.3694 36.3161C28.6605 36.4395 26.65 37.104 24.5419 37.8105C22.4105 38.5242 20.2089 39.2532 17.0605 39.4565L19.5653 34.4468C19.9556 33.6669 20.1613 32.7944 20.1613 31.9226V25H26.6129V23.3871H18.5484V21.7742H31.4516ZM25 9.67742C22.7766 9.67742 20.9677 7.86855 20.9677 5.64516C20.9677 3.42177 22.7766 1.6129 25 1.6129C27.2234 1.6129 29.0323 3.42177 29.0323 5.64516C29.0323 7.86855 27.2234 9.67742 25 9.67742ZM44.3548 33.871C42.1315 33.871 40.3226 32.0621 40.3226 29.8387C40.3226 27.6153 42.1315 25.8065 44.3548 25.8065C46.5782 25.8065 48.3871 27.6153 48.3871 29.8387C48.3871 32.0621 46.5782 33.871 44.3548 33.871Z"/>
</mask>
<path d="M44.3548 24.1935C43.3919 24.1935 42.4847 24.4371 41.6903 24.8645L34.4629 15.0548L39.4089 13.2C40.371 14.9444 42.2266 16.129 44.3548 16.129C47.4677 16.129 50 13.596 50 10.4839C50 7.37177 47.4677 4.83871 44.3548 4.83871C41.2419 4.83871 38.7097 7.37177 38.7097 10.4839C38.7097 10.8976 38.7573 11.3008 38.8427 11.6895L25.8065 16.5782V11.2258C28.5379 10.8323 30.6452 8.48306 30.6452 5.64516C30.6452 2.53306 28.1129 0 25 0C21.8871 0 19.3548 2.53306 19.3548 5.64516C19.3548 8.48306 21.4621 10.8323 24.1935 11.2258V15.3226H19.3548V11.7629L16.6113 9.01935C17.3177 8.07661 17.7419 6.91129 17.7419 5.64516C17.7419 2.53306 15.2097 0 12.0968 0C8.98387 0 6.45161 2.53306 6.45161 5.64516C6.45161 8.75726 8.98387 11.2903 12.0968 11.2903C13.3629 11.2903 14.5282 10.8661 15.471 10.1597L17.7419 12.4306V15.3226H11.2258C10.8323 12.5919 8.48306 10.4839 5.64516 10.4839C2.53226 10.4839 0 13.0169 0 16.129C0 19.2411 2.53226 21.7742 5.64516 21.7742C8.48306 21.7742 10.8323 19.6661 11.2258 16.9355H14.2177L9.80403 30.729C9.49919 30.6782 9.18952 30.6452 8.87097 30.6452C5.75806 30.6452 3.22581 33.1782 3.22581 36.2903C3.22581 39.4024 5.75806 41.9355 8.87097 41.9355C11.9839 41.9355 14.5161 39.4024 14.5161 36.2903C14.5161 34.0637 13.2169 32.1395 11.3395 31.2218L15.9113 16.9355H24.1935V20.1613H16.9355V25H18.5484V31.9226C18.5484 32.5444 18.4008 33.1685 18.1226 33.725L12.4573 45.0556C12.2218 45.5274 12.0968 46.0556 12.0968 46.5839C12.0968 48.4677 13.629 50 15.5129 50H34.4871C36.371 50 37.9032 48.4677 37.9032 46.5839C37.9032 46.0565 37.7782 45.5274 37.5427 45.0556L31.8774 33.725C31.5992 33.1685 31.4516 32.5444 31.4516 31.9226V25H33.0645V20.1613H25.8065V18.3008L32.8935 15.6435L40.3936 25.8226C39.3556 26.8468 38.7097 28.2685 38.7097 29.8387C38.7097 32.9508 41.2419 35.4839 44.3548 35.4839C47.4677 35.4839 50 32.9508 50 29.8387C50 26.7266 47.4677 24.1935 44.3548 24.1935ZM44.3548 6.45161C46.5782 6.45161 48.3871 8.26048 48.3871 10.4839C48.3871 12.7073 46.5782 14.5161 44.3548 14.5161C42.1315 14.5161 40.3226 12.7073 40.3226 10.4839C40.3226 8.26048 42.1315 6.45161 44.3548 6.45161ZM12.0968 9.67742C9.87339 9.67742 8.06452 7.86855 8.06452 5.64516C8.06452 3.42177 9.87339 1.6129 12.0968 1.6129C14.3202 1.6129 16.129 3.42177 16.129 5.64516C16.129 7.86855 14.3202 9.67742 12.0968 9.67742ZM5.64516 20.1613C3.42177 20.1613 1.6129 18.3524 1.6129 16.129C1.6129 13.9056 3.42177 12.0968 5.64516 12.0968C7.86855 12.0968 9.67742 13.9056 9.67742 16.129C9.67742 18.3524 7.86855 20.1613 5.64516 20.1613ZM12.9032 36.2903C12.9032 38.5137 11.0944 40.3226 8.87097 40.3226C6.64758 40.3226 4.83871 38.5137 4.83871 36.2903C4.83871 34.0669 6.64758 32.2581 8.87097 32.2581C11.0944 32.2581 12.9032 34.0669 12.9032 36.2903ZM32.1637 37.9065L36.0992 45.7774C36.2242 46.0258 36.2903 46.3056 36.2903 46.5839C36.2903 47.5782 35.4815 48.3871 34.4871 48.3871H15.5129C14.5185 48.3871 13.7097 47.5782 13.7097 46.5839C13.7097 46.3056 13.7758 46.0266 13.9 45.7774L16.2363 41.1048C20.104 40.9823 22.7306 40.1177 25.0532 39.3403C27.2347 38.6097 29.2992 37.9218 32.1637 37.9065ZM31.4516 21.7742V23.3871H28.2258V25H29.8387V31.9226C29.8387 32.7944 30.0444 33.6669 30.4347 34.4468L31.3694 36.3161C28.6605 36.4395 26.65 37.104 24.5419 37.8105C22.4105 38.5242 20.2089 39.2532 17.0605 39.4565L19.5653 34.4468C19.9556 33.6669 20.1613 32.7944 20.1613 31.9226V25H26.6129V23.3871H18.5484V21.7742H31.4516ZM25 9.67742C22.7766 9.67742 20.9677 7.86855 20.9677 5.64516C20.9677 3.42177 22.7766 1.6129 25 1.6129C27.2234 1.6129 29.0323 3.42177 29.0323 5.64516C29.0323 7.86855 27.2234 9.67742 25 9.67742ZM44.3548 33.871C42.1315 33.871 40.3226 32.0621 40.3226 29.8387C40.3226 27.6153 42.1315 25.8065 44.3548 25.8065C46.5782 25.8065 48.3871 27.6153 48.3871 29.8387C48.3871 32.0621 46.5782 33.871 44.3548 33.871Z" fill="#006CAB" stroke="white" stroke-width="0.2" mask="url(#path-3-inside-1)"/>
<path d="M41.9855 29.8387C41.9855 28.5325 43.0486 27.4694 44.3549 27.4694C45.6612 27.4694 46.7243 28.5325 46.7243 29.8387C46.7243 31.145 45.6612 32.2081 44.3549 32.2081C43.0486 32.2081 41.9855 31.145 41.9855 29.8387ZM43.4985 29.8387C43.4985 30.3115 43.883 30.6952 44.3549 30.6952C44.8268 30.6952 45.2114 30.3115 45.2114 29.8387C45.2114 29.3659 44.8268 28.9823 44.3549 28.9823C43.883 28.9823 43.4985 29.3659 43.4985 29.8387Z" fill="#006CAB" stroke="white" stroke-width="0.1"/>
<path d="M11.2398 36.3403C11.2131 37.6236 10.1606 38.6597 8.87102 38.6597C7.56476 38.6597 6.50166 37.5966 6.50166 36.2903C6.50166 35.0008 7.53774 33.9482 8.82102 33.9215V35.4353C8.37222 35.4613 8.01456 35.8343 8.01456 36.2903C8.01456 36.7631 8.39908 37.1468 8.87102 37.1468C9.3262 37.1468 9.70006 36.7899 9.72603 36.3403H11.2398Z" fill="#006CAB" stroke="white" stroke-width="0.1"/>
<path d="M3.27559 16.129C3.27559 14.8228 4.33868 13.7597 5.64494 13.7597C6.93449 13.7597 7.98706 14.7958 8.01378 16.079H6.49995C6.47398 15.6295 6.10012 15.2726 5.64494 15.2726C5.173 15.2726 4.78849 15.6562 4.78849 16.129C4.78849 16.585 5.14614 16.9581 5.59494 16.984V18.4979C4.31166 18.4712 3.27559 17.4186 3.27559 16.129Z" fill="#006CAB" stroke="white" stroke-width="0.1"/>
<path d="M9.72725 5.64516C9.72725 4.3389 10.7903 3.27581 12.0966 3.27581C13.4029 3.27581 14.466 4.3389 14.466 5.64516C14.466 6.95142 13.4029 8.01452 12.0966 8.01452C10.7903 8.01452 9.72725 6.95142 9.72725 5.64516ZM11.2401 5.64516C11.2401 6.11797 11.6247 6.50161 12.0966 6.50161C12.5685 6.50161 12.9531 6.11797 12.9531 5.64516C12.9531 5.17235 12.5685 4.78871 12.0966 4.78871C11.6247 4.78871 11.2401 5.17235 11.2401 5.64516Z" fill="#006CAB" stroke="white" stroke-width="0.1"/>
</svg>
