<svg width="50" height="50" viewBox="0 0 50 50" fill="none" xmlns="http://www.w3.org/2000/svg">
<path d="M40.5261 18.1456C45.458 15.2974 48.8667 12.5145 49.7424 10.4195C50.0569 9.66634 50.0835 8.97606 49.8215 8.36561C49.0925 6.6633 46.3257 6.0972 41.605 6.67136C41.0825 5.5924 39.9858 4.84002 38.7085 4.84002C37.0158 4.84002 35.6393 6.15446 35.5079 7.81403C33.9515 8.1882 32.3226 8.63253 30.6445 9.14137V6.45283H32.2573V0.00161743H17.742V6.45283H19.3548V9.13734C9.89657 6.25848 1.51322 5.25209 0.178631 8.36561C-0.95033 10.9993 3.50745 14.7297 9.44014 18.1424C4.45094 21.0164 1.09551 23.7961 0.239111 25.9169C-0.057644 26.6524 -0.0786104 27.3281 0.178631 27.9265C0.787464 29.3474 2.75992 29.8441 5.22106 29.8441C6.54839 29.8441 8.01765 29.6957 9.49175 29.474C9.09339 30.8803 8.87163 32.3544 8.87163 33.8705C8.87163 42.7635 16.1067 49.9985 24.9996 49.9985C33.8926 49.9985 41.1277 42.7635 41.1277 33.8705C41.1277 32.352 40.9059 30.8763 40.5059 29.4683C42.1478 29.7151 43.592 29.8449 44.8121 29.8449C47.5942 29.8449 49.2731 29.2038 49.8207 27.9257C50.0827 27.3152 50.0561 26.625 49.7416 25.8718C48.8667 23.7767 45.4572 20.9939 40.5261 18.1456ZM38.7085 6.45283C39.5979 6.45283 40.3213 7.17617 40.3213 8.06563C40.3213 8.95509 39.5979 9.67843 38.7085 9.67843C37.819 9.67843 37.0957 8.95509 37.0957 8.06563C37.0957 7.17617 37.819 6.45283 38.7085 6.45283ZM30.6453 10.8284C32.4218 10.2792 34.1442 9.80342 35.7845 9.40748C36.2949 10.5163 37.4102 11.2912 38.7085 11.2912C40.4213 11.2912 41.8123 9.94616 41.9147 8.25836C46.183 7.75275 48.049 8.32448 48.3393 9.00025C48.4224 9.19459 48.3933 9.46232 48.2538 9.79697C47.5547 11.4703 44.2509 14.2217 38.8867 17.2263C36.4199 15.8845 33.6386 14.5451 30.6453 13.2677V10.8284ZM37.1948 18.1448C35.9885 18.7811 34.6918 19.4254 33.3153 20.0689C32.475 19.5649 31.5863 19.1222 30.6445 18.7706V15.0225C33.0403 16.0619 35.2385 17.1126 37.1948 18.1448ZM19.3548 1.61442H30.6445V4.84002H27.4188V6.45283H29.0316V12.5944C28.5567 12.4008 28.0841 12.2057 27.6011 12.0154C25.3988 11.1501 23.1643 10.351 20.9676 9.64295V6.45283H25.806V4.84002H19.3548V1.61442ZM20.4161 20.1068L20.9676 19.9221V11.334C22.8788 11.9622 24.8956 12.6855 27.0108 13.5161C27.7003 13.787 28.3704 14.0604 29.0316 14.3346V19.9213L29.5832 20.106C30.2453 20.3262 30.8791 20.5971 31.4896 20.9019C30.0719 21.5317 28.5785 22.1575 27.0108 22.7736C24.8472 23.6251 22.6837 24.3896 20.5596 25.075C20.0113 24.0743 18.9613 23.3873 17.742 23.3873C15.9631 23.3873 14.5164 24.8339 14.5164 26.6129C14.5164 26.679 14.5318 26.7403 14.5358 26.8048C13.6504 27.0233 12.8012 27.2209 12.0166 27.3838C13.6996 24.0179 16.6687 21.3543 20.4161 20.1068ZM19.3548 26.6129C19.3548 27.5023 18.6315 28.2257 17.742 28.2257C16.8526 28.2257 16.1292 27.5023 16.1292 26.6129C16.1292 25.7234 16.8526 25.0001 17.742 25.0001C18.6315 25.0001 19.3548 25.7234 19.3548 26.6129ZM16.6857 20.0689C15.2801 19.4125 13.9802 18.769 12.7859 18.1416C14.7213 17.1255 16.9203 16.078 19.3548 15.0233V18.7706C18.4138 19.1222 17.5259 19.5641 16.6857 20.0689ZM1.6608 9.00105C2.33817 7.4197 9.09259 7.63582 19.3548 10.8171V13.2653C16.3276 14.5555 13.5431 15.8918 11.0876 17.2231C3.9921 13.2677 1.1826 10.1171 1.6608 9.00105ZM1.6608 27.2902C1.58016 27.1023 1.60515 26.8427 1.73498 26.5209C2.38978 24.9001 5.51942 22.1688 11.0876 19.0617C12.3996 19.773 13.76 20.4632 15.1317 21.1205C12.8923 22.8502 11.1521 25.1371 10.0812 27.7442C4.55497 28.6764 2.00594 28.0966 1.6608 27.2902ZM10.4844 33.8705C10.4844 32.2367 10.7626 30.6553 11.2707 29.1708C12.6045 28.9192 13.8866 28.6305 15.0309 28.3466C15.6051 29.2409 16.6026 29.8385 17.742 29.8385C19.5113 29.8385 20.9499 28.4063 20.9652 26.6403C23.149 25.9371 25.3754 25.15 27.6011 24.2759C29.5421 23.513 31.4065 22.7155 33.1854 21.9019C35.9804 23.809 38.019 26.6322 38.9472 29.8836C34.4184 30.1013 31.2726 31.3577 27.9777 32.6939C23.6554 34.4462 19.1815 36.2558 10.703 36.2864C10.5699 35.4994 10.4844 34.6954 10.4844 33.8705ZM34.6765 32.2577C34.6765 34.0366 33.2298 35.4833 31.4509 35.4833C30.3832 35.4833 29.4058 34.9519 28.8099 34.0979C30.7622 33.3068 32.5959 32.5891 34.6603 32.0988C34.6636 32.152 34.6765 32.2044 34.6765 32.2577ZM24.9996 48.3857C18.3928 48.3857 12.8141 43.9448 11.0642 37.8944C18.7629 37.8186 23.3844 36.2614 27.2874 34.7099C28.1503 36.1735 29.7227 37.0961 31.4509 37.0961C34.1192 37.0961 36.2893 34.926 36.2893 32.2577C36.2893 32.098 36.2812 31.9375 36.2651 31.7787C37.2086 31.6238 38.2198 31.5238 39.3157 31.4835C39.4447 32.2633 39.5149 33.06 39.5149 33.8705C39.5149 41.874 33.0032 48.3857 24.9996 48.3857ZM48.3385 27.2902C48.0579 27.9458 45.9588 28.7603 39.9164 27.7434C38.8447 25.1347 37.1021 22.8462 34.8603 21.1164C36.2747 20.4382 37.6222 19.752 38.8851 19.0649C44.25 22.0696 47.5539 24.821 48.2522 26.4943C48.3933 26.829 48.4216 27.0967 48.3385 27.2902Z" fill="#006CAB"/>
<path d="M20.9673 38.7089C19.1884 38.7089 17.7417 40.1555 17.7417 41.9345C17.7417 43.7134 19.1884 45.1601 20.9673 45.1601C22.7462 45.1601 24.1929 43.7134 24.1929 41.9345C24.1929 40.1555 22.7462 38.7089 20.9673 38.7089ZM20.9673 43.5473C20.0778 43.5473 19.3545 42.8239 19.3545 41.9345C19.3545 41.045 20.0778 40.3217 20.9673 40.3217C21.8568 40.3217 22.5801 41.045 22.5801 41.9345C22.5801 42.8239 21.8568 43.5473 20.9673 43.5473Z" fill="#006CAB"/>
</svg>
