<svg width="48" height="48" viewBox="0 0 48 48" fill="none" xmlns="http://www.w3.org/2000/svg">
<path d="M18.9377 22.8152V11.5563C19.4208 11.5341 19.876 11.3239 20.2062 10.9706C20.5363 10.6173 20.7152 10.1489 20.7047 9.66541C20.6941 9.18197 20.4949 8.72181 20.1497 8.38326C19.8044 8.0447 19.3404 7.85458 18.8569 7.85352H8.34904C7.86551 7.85468 7.4016 8.04487 7.0564 8.38346C6.71121 8.72204 6.51209 9.18219 6.50159 9.66561C6.49108 10.149 6.67002 10.6174 7.00018 10.9707C7.33034 11.3239 7.78555 11.5341 8.26857 11.5563V22.8152C5.62857 24.0314 3.48347 26.1133 2.18883 28.7157C0.894201 31.3181 0.527786 34.2849 1.15033 37.1241C1.77287 39.9633 3.34699 42.5045 5.61175 44.3265C7.8765 46.1485 10.6959 47.1418 13.6026 47.1418C16.5092 47.1418 19.3286 46.1485 21.5934 44.3265C23.8581 42.5045 25.4322 39.9633 26.0548 37.1241C26.6773 34.2849 26.3109 31.3181 25.0163 28.7157C23.7216 26.1133 21.5765 24.0314 18.9365 22.8152H18.9377ZM7.86193 9.70898C7.86203 9.57952 7.91351 9.45538 8.00506 9.36383C8.09661 9.27228 8.22074 9.22081 8.35021 9.2207H18.858C18.9875 9.2207 19.1117 9.27215 19.2033 9.36372C19.2949 9.45529 19.3463 9.57948 19.3463 9.70898C19.3463 9.83848 19.2949 9.96268 19.2033 10.0543C19.1117 10.1458 18.9875 10.1973 18.858 10.1973H8.35021C8.22074 10.1972 8.09661 10.1457 8.00506 10.0541C7.91351 9.96259 7.86203 9.83845 7.86193 9.70898ZM13.6018 45.7773C10.9718 45.7764 8.42323 44.8648 6.38934 43.1974C4.35545 41.53 2.96172 39.2098 2.44505 36.631C1.92838 34.0523 2.32065 31.3742 3.55519 29.0519C4.78973 26.7297 6.79036 24.9066 9.21701 23.8926C9.34139 23.8405 9.44761 23.7529 9.52232 23.6406C9.59704 23.5284 9.63691 23.3966 9.63693 23.2617V11.5645H17.5705V23.2617C17.5706 23.3965 17.6105 23.5283 17.6852 23.6406C17.7599 23.7528 17.8661 23.8405 17.9904 23.8926C20.4174 24.9067 22.4182 26.7302 23.6527 29.0528C24.8872 31.3754 25.2792 34.054 24.762 36.6329C24.2448 39.2119 22.8504 41.5322 20.8158 43.1993C18.7813 44.8664 16.2321 45.7773 13.6018 45.7773Z" fill="#006CAB"/>
<path d="M13.4738 34.9629C10.353 34.0317 7.10176 33.6133 3.84688 33.7238C3.67191 33.7329 3.50713 33.8089 3.3866 33.9361C3.26606 34.0632 3.19898 34.2318 3.19922 34.407C3.20097 37.1544 4.28947 39.7896 6.22713 41.7373C8.1648 43.685 10.7943 44.7871 13.5416 44.803C16.2889 44.8189 18.931 43.7474 20.8911 41.8223C22.8513 39.8972 23.9703 37.2749 24.0039 34.5277C24.0053 34.4149 23.9788 34.3035 23.9268 34.2035C23.8747 34.1034 23.7986 34.0178 23.7054 33.9542C23.6122 33.8907 23.5047 33.8512 23.3925 33.8393C23.2804 33.8273 23.167 33.8434 23.0625 33.8859C19.5168 35.3207 16.1113 35.7031 13.4738 34.9629ZM22.566 35.5363C22.284 37.7588 21.1864 39.7973 19.4862 41.2561C17.7861 42.715 15.6046 43.4903 13.3651 43.4316C11.1255 43.3728 8.98769 42.4842 7.36635 40.9382C5.745 39.3922 4.75578 37.299 4.59063 35.0648C7.47327 35.0513 10.3423 35.4605 13.1063 36.2793C15.7727 37.0281 19.0996 36.7613 22.566 35.5363Z" fill="#006CAB"/>
<path d="M10.2222 31.2172C10.5891 31.2172 10.9479 31.1083 11.253 30.9045C11.5581 30.7006 11.796 30.4108 11.9364 30.0718C12.0768 29.7327 12.1136 29.3596 12.042 28.9997C11.9704 28.6398 11.7937 28.3092 11.5342 28.0497C11.2747 27.7902 10.9441 27.6135 10.5842 27.5419C10.2242 27.4703 9.85116 27.507 9.51211 27.6475C9.17307 27.7879 8.88328 28.0257 8.6794 28.3309C8.47552 28.636 8.3667 28.9947 8.3667 29.3617C8.36732 29.8536 8.56301 30.3252 8.91084 30.673C9.25867 31.0209 9.73026 31.2165 10.2222 31.2172ZM10.2222 28.8734C10.3187 28.8734 10.4131 28.9021 10.4934 28.9557C10.5737 29.0094 10.6363 29.0856 10.6733 29.1748C10.7102 29.2641 10.7199 29.3622 10.7011 29.457C10.6822 29.5517 10.6357 29.6387 10.5674 29.707C10.4992 29.7753 10.4121 29.8218 10.3174 29.8406C10.2227 29.8594 10.1245 29.8498 10.0353 29.8128C9.94609 29.7759 9.86983 29.7133 9.81618 29.633C9.76253 29.5527 9.73389 29.4583 9.73389 29.3617C9.7341 29.2323 9.78561 29.1082 9.87713 29.0167C9.96866 28.9251 10.0927 28.8736 10.2222 28.8734Z" fill="#006CAB"/>
<path d="M13.0063 25.0605C13.0063 25.4275 13.1152 25.7863 13.3191 26.0914C13.5229 26.3965 13.8127 26.6343 14.1518 26.7748C14.4908 26.9152 14.8639 26.952 15.2238 26.8804C15.5837 26.8088 15.9143 26.6321 16.1738 26.3726C16.4333 26.1131 16.61 25.7825 16.6816 25.4225C16.7532 25.0626 16.7165 24.6895 16.5761 24.3505C16.4356 24.0114 16.1978 23.7217 15.8927 23.5178C15.5875 23.3139 15.2288 23.2051 14.8618 23.2051C14.3699 23.2057 13.8983 23.4014 13.5505 23.7492C13.2027 24.0971 13.007 24.5686 13.0063 25.0605ZM15.3501 25.0605C15.3501 25.1571 15.3215 25.2515 15.2678 25.3318C15.2142 25.4121 15.1379 25.4747 15.0487 25.5117C14.9595 25.5486 14.8613 25.5583 14.7666 25.5394C14.6718 25.5206 14.5848 25.4741 14.5166 25.4058C14.4483 25.3375 14.4018 25.2505 14.3829 25.1558C14.3641 25.0611 14.3737 24.9629 14.4107 24.8737C14.4477 24.7845 14.5102 24.7082 14.5905 24.6546C14.6708 24.6009 14.7652 24.5723 14.8618 24.5723C14.9913 24.5724 15.1154 24.6238 15.207 24.7154C15.2985 24.8069 15.35 24.9311 15.3501 25.0605Z" fill="#006CAB"/>
<path d="M13.2881 18.6809C13.6551 18.6809 14.0138 18.5721 14.3189 18.3682C14.6241 18.1643 14.8619 17.8745 15.0023 17.5355C15.1428 17.1964 15.1795 16.8234 15.1079 16.4634C15.0363 16.1035 14.8596 15.7729 14.6001 15.5134C14.3406 15.2539 14.01 15.0772 13.6501 15.0056C13.2901 14.934 12.9171 14.9707 12.578 15.1112C12.239 15.2516 11.9492 15.4894 11.7453 15.7946C11.5414 16.0997 11.4326 16.4584 11.4326 16.8254C11.4332 17.3173 11.6289 17.7889 11.9768 18.1367C12.3246 18.4846 12.7962 18.6803 13.2881 18.6809ZM13.2881 16.3371C13.3847 16.3371 13.4791 16.3658 13.5594 16.4194C13.6397 16.4731 13.7022 16.5493 13.7392 16.6386C13.7762 16.7278 13.7858 16.826 13.767 16.9207C13.7481 17.0154 13.7016 17.1024 13.6334 17.1707C13.5651 17.239 13.4781 17.2855 13.3833 17.3043C13.2886 17.3231 13.1905 17.3135 13.1012 17.2765C13.012 17.2396 12.9358 17.177 12.8821 17.0967C12.8284 17.0164 12.7998 16.922 12.7998 16.8254C12.7999 16.6959 12.8514 16.5718 12.9429 16.4803C13.0345 16.3887 13.1586 16.3372 13.2881 16.3371Z" fill="#006CAB"/>
<path d="M44.1174 11.5051C43.3228 11.5061 42.5604 11.8193 41.9945 12.3772C41.4287 12.9351 41.1047 13.693 41.0924 14.4875L37.1643 15.341C36.8346 14.5116 36.2435 13.8122 35.4807 13.3488L38.0857 6.86953C38.8201 6.98387 39.5709 6.82404 40.195 6.42049C40.8191 6.01694 41.2729 5.39789 41.47 4.68128C41.6671 3.96467 41.5937 3.2006 41.2637 2.53466C40.9337 1.86872 40.3702 1.34745 39.6807 1.07018C38.9911 0.792917 38.2237 0.77903 37.5245 1.03117C36.8254 1.28331 36.2434 1.78385 35.8896 2.43742C35.5357 3.09099 35.4347 3.8519 35.6057 4.57517C35.7767 5.29844 36.2079 5.93351 36.817 6.35937L34.2131 12.8359C33.5539 12.689 32.8686 12.7072 32.2181 12.8889C31.5676 13.0707 30.9721 13.4103 30.4846 13.8777L28.1408 12.1094C28.4434 11.4294 28.4851 10.6619 28.2582 9.95306C28.0312 9.24426 27.5514 8.64374 26.9102 8.26595C26.2689 7.88816 25.5111 7.75951 24.7811 7.90453C24.0511 8.04954 23.4 8.45808 22.9519 9.05228C22.5037 9.64648 22.2899 10.3848 22.3511 11.1265C22.4123 11.8683 22.7443 12.5615 23.2837 13.0743C23.8232 13.587 24.5325 13.8833 25.2764 13.9067C26.0202 13.9301 26.7467 13.679 27.3174 13.2012L29.6561 14.9648C29.3859 15.4824 29.2292 16.0515 29.1965 16.6344C29.1637 17.2173 29.2557 17.8004 29.4662 18.3449L27.8646 19.2848C27.356 18.7534 26.6697 18.4277 25.9365 18.3694C25.2032 18.3111 24.4742 18.5245 23.888 18.9688C23.3018 19.4131 22.8994 20.0575 22.7574 20.7792C22.6154 21.5009 22.7436 22.2497 23.1178 22.883C23.4919 23.5163 24.0858 23.9899 24.7865 24.2138C25.4871 24.4377 26.2456 24.3962 26.9177 24.0972C27.5897 23.7982 28.1284 23.2626 28.4312 22.5922C28.7341 21.9219 28.7799 21.1636 28.56 20.4617L30.1568 19.5242C30.652 20.1251 31.3082 20.5723 32.0484 20.8136C32.7887 21.0549 33.5824 21.0803 34.3365 20.8867L35.9635 24.6055C35.3896 25.0365 34.9879 25.6577 34.8302 26.3579C34.6726 27.0581 34.7694 27.7915 35.1032 28.4269C35.4371 29.0623 35.9862 29.558 36.6522 29.8254C37.3183 30.0928 38.0577 30.1144 38.7383 29.8863C39.4188 29.6582 39.9958 29.1953 40.3662 28.5805C40.7365 27.9657 40.8759 27.2391 40.7593 26.5309C40.6428 25.8227 40.278 25.1791 39.7302 24.7154C39.1824 24.2517 38.4874 23.9981 37.7697 24C37.5825 24.0007 37.3958 24.0186 37.2119 24.0535L35.5877 20.3406C36.1637 19.9642 36.637 19.4503 36.9648 18.8453C37.2925 18.2402 37.4644 17.5631 37.465 16.875C37.465 16.8082 37.4576 16.743 37.4545 16.677L41.383 15.8234C41.6144 16.3133 41.9731 16.732 42.4216 17.0358C42.8701 17.3397 43.392 17.5176 43.9327 17.5509C44.4734 17.5842 45.0132 17.4718 45.4956 17.2253C45.978 16.9788 46.3854 16.6073 46.6752 16.1496C46.965 15.6919 47.1266 15.1647 47.1432 14.6232C47.1597 14.0818 47.0306 13.5457 46.7692 13.0712C46.5079 12.5967 46.1239 12.201 45.6575 11.9255C45.191 11.65 44.6591 11.5048 44.1174 11.5051ZM38.551 2.22265C38.8793 2.22265 39.2003 2.32002 39.4733 2.50244C39.7463 2.68486 39.9591 2.94414 40.0848 3.24749C40.2104 3.55085 40.2433 3.88465 40.1792 4.20669C40.1152 4.52873 39.9571 4.82454 39.7249 5.05671C39.4927 5.28889 39.1969 5.44701 38.8749 5.51106C38.5528 5.57512 38.219 5.54224 37.9157 5.41659C37.6123 5.29094 37.353 5.07815 37.1706 4.80514C36.9882 4.53213 36.8908 4.21115 36.8908 3.88281C36.8913 3.44266 37.0664 3.0207 37.3776 2.70947C37.6889 2.39824 38.1108 2.22317 38.551 2.22265ZM25.6678 23.0234C25.3394 23.0234 25.0185 22.9261 24.7454 22.7437C24.4724 22.5612 24.2596 22.302 24.134 21.9986C24.0083 21.6952 23.9755 21.3614 24.0395 21.0394C24.1036 20.7174 24.2617 20.4216 24.4939 20.1894C24.726 19.9572 25.0219 19.7991 25.3439 19.735C25.6659 19.671 25.9997 19.7038 26.3031 19.8295C26.6064 19.9552 26.8657 20.1679 27.0481 20.441C27.2306 20.714 27.3279 21.0349 27.3279 21.3633C27.3274 21.8034 27.1523 22.2254 26.8411 22.5366C26.5299 22.8478 26.1079 23.0229 25.6678 23.0234ZM39.4299 27.0277C39.4299 27.3561 39.3325 27.6771 39.1501 27.9501C38.9677 28.2231 38.7084 28.4359 38.405 28.5615C38.1017 28.6872 37.7679 28.7201 37.4458 28.656C37.1238 28.5919 36.828 28.4338 36.5958 28.2016C36.3636 27.9695 36.2055 27.6737 36.1415 27.3516C36.0774 27.0296 36.1103 26.6958 36.2359 26.3924C36.3616 26.0891 36.5744 25.8298 36.8474 25.6474C37.1204 25.4649 37.4414 25.3676 37.7697 25.3676C38.2099 25.3681 38.6318 25.5432 38.9431 25.8544C39.2543 26.1656 39.4294 26.5876 39.4299 27.0277ZM25.3744 12.541C25.0461 12.541 24.7251 12.4436 24.4521 12.2612C24.1791 12.0788 23.9663 11.8195 23.8406 11.5162C23.715 11.2128 23.6821 10.879 23.7462 10.557C23.8102 10.2349 23.9683 9.93913 24.2005 9.70695C24.4327 9.47477 24.7285 9.31666 25.0505 9.2526C25.3726 9.18854 25.7064 9.22142 26.0097 9.34707C26.3131 9.47272 26.5724 9.68551 26.7548 9.95852C26.9372 10.2315 27.0346 10.5525 27.0346 10.8809C27.0341 11.321 26.859 11.743 26.5478 12.0542C26.2365 12.3654 25.8146 12.5405 25.3744 12.541ZM34.4369 19.416C34.0866 19.5696 33.7081 19.6482 33.3256 19.6469C32.5907 19.6458 31.8863 19.3532 31.367 18.8332C30.8477 18.3132 30.5561 17.6083 30.5561 16.8734C30.5539 16.2715 30.7499 15.6857 31.1139 15.2062C31.3727 14.8649 31.7068 14.588 32.0903 14.3971C32.4737 14.2061 32.8961 14.1063 33.3244 14.1055C33.6798 14.1037 34.0319 14.1722 34.3607 14.307C34.7805 14.4741 35.1527 14.7418 35.4446 15.0865C35.7366 15.4313 35.9393 15.8425 36.035 16.284C36.1705 16.9106 36.0854 17.5648 35.794 18.1359C35.5025 18.7069 35.0227 19.1597 34.4357 19.4176L34.4369 19.416ZM44.1174 16.1926C43.7384 16.1919 43.3709 16.0617 43.0761 15.8236C42.7812 15.5854 42.5767 15.2536 42.4963 14.8832C42.4963 14.8777 42.4924 14.873 42.4908 14.8676C42.4685 14.7576 42.4573 14.6458 42.4572 14.5336C42.4572 14.2052 42.5546 13.8843 42.737 13.6113C42.9194 13.3382 43.1787 13.1255 43.4821 12.9998C43.7854 12.8742 44.1192 12.8413 44.4413 12.9053C44.7633 12.9694 45.0591 13.1275 45.2913 13.3597C45.5235 13.5919 45.6816 13.8877 45.7456 14.2097C45.8097 14.5318 45.7768 14.8656 45.6512 15.1689C45.5255 15.4723 45.3127 15.7315 45.0397 15.914C44.7667 16.0964 44.4457 16.1937 44.1174 16.1937V16.1926Z" fill="#006CAB"/>
</svg>
