<svg width="50" height="40" viewBox="0 0 50 40" fill="none" xmlns="http://www.w3.org/2000/svg">
<path d="M20.309 18.407C19.91 18.3395 19.532 18.6076 19.4645 19.0063C19.154 20.8339 19.762 22.6943 21.0914 23.9829C22.1805 25.0388 23.5904 25.5641 24.9992 25.5637C26.4664 25.5637 27.9323 24.9938 29.0317 23.8597C31.1867 21.6369 31.1317 18.0747 28.9085 15.9198C26.6853 13.7645 23.1235 13.8198 20.9682 16.0426C20.6867 16.3333 20.6939 16.7968 20.9842 17.0783C21.2749 17.3602 21.7388 17.3526 22.0199 17.0623C23.613 15.4193 26.2459 15.3785 27.8889 16.9711C29.5318 18.5642 29.5727 21.1971 27.98 22.84C26.387 24.4834 23.7541 24.5242 22.1111 22.9312C21.1284 21.9787 20.6791 20.6031 20.9083 19.2516C20.9762 18.8529 20.7081 18.4749 20.309 18.407Z" fill="#006CAB"/>
<path d="M50 19.9512C50 16.8666 45.731 14.2108 38.2881 12.6647C34.325 11.8415 29.7302 11.4062 25 11.4062C24.5907 11.4062 24.1833 11.4097 23.7774 11.4162C25.8743 9.59541 27.9945 7.97417 30.0472 6.62758C35.5175 3.03909 40.0688 1.73599 41.6416 3.30956C42.7998 4.46732 42.4282 7.24251 40.6223 10.9233C40.4442 11.2865 40.5941 11.7252 40.9573 11.9033C41.3208 12.0815 41.7595 11.9315 41.9376 11.5684C44.0983 7.16393 44.3542 3.95004 42.6777 2.27348C40.4968 0.0922394 35.6003 1.23283 29.2439 5.40268C26.7036 7.06894 24.0662 9.14185 21.4943 11.4864C17.4919 11.6702 13.7203 12.1677 10.461 12.9417C10.1566 12.4164 9.87282 11.8983 9.61189 11.3895C7.63016 7.52632 7.16171 4.50584 8.35838 3.30917C9.11255 2.55501 10.4393 2.56187 11.6249 2.77702C11.591 2.9628 11.5723 3.15392 11.5723 3.34961C11.5723 5.09979 12.9959 6.52344 14.7461 6.52344C15.8581 6.52344 16.8377 5.94818 17.4046 5.07996C18.9716 5.95123 20.623 7.02583 22.3236 8.28201C22.4545 8.37852 22.6067 8.42506 22.7581 8.42506C22.9824 8.42506 23.204 8.32245 23.3475 8.1279C23.5882 7.80251 23.5191 7.34398 23.1937 7.10365C21.3661 5.75363 19.5881 4.60388 17.9028 3.68149C17.9142 3.57239 17.9199 3.46176 17.9199 3.34961C17.9199 1.59943 16.4963 0.175781 14.7461 0.175781C13.728 0.175781 12.8208 0.65834 12.2398 1.40602C10.0285 0.930328 8.37517 1.22063 7.32231 2.27348C6.4064 3.18977 6.06651 4.57413 6.31294 6.38878C6.53038 7.99324 7.20177 9.90059 8.30841 12.0582C8.52127 12.4732 8.74863 12.894 8.98933 13.3193C8.5186 13.4502 8.06007 13.5867 7.61604 13.7298C5.30815 14.4729 3.48434 15.3468 2.19612 16.3276C0.738907 17.4365 0 18.6557 0 19.9512C0 22.2522 2.3243 24.2988 6.72112 25.8693C6.86302 25.92 7.00722 25.9704 7.15294 26.0196C7.23114 26.0463 7.31049 26.0589 7.38831 26.0589C7.69348 26.0589 7.97844 25.8666 8.08182 25.5618C8.2119 25.1785 8.00705 24.7626 7.62405 24.6326C7.48558 24.5856 7.34901 24.538 7.21397 24.4899C3.56026 23.1849 1.46484 21.5305 1.46484 19.9512C1.46484 18.2594 3.93219 16.4546 8.06465 15.1241C8.60939 14.949 9.17625 14.783 9.76257 14.627C10.8292 16.3577 12.101 18.1495 13.5395 19.9527C12.1601 21.6827 10.9276 23.4084 9.87892 25.0896C7.76291 28.4816 6.52771 31.4681 6.28166 33.7722C5.19714 34.2776 4.44336 35.3774 4.44336 36.6504C4.44336 38.4006 5.867 39.8242 7.61719 39.8242C8.58345 39.8242 9.44977 39.3897 10.0323 38.7065C10.1341 38.7115 10.2379 38.7145 10.3436 38.7145C13.422 38.7145 18.0202 36.6122 23.1449 32.8349C23.4703 32.595 23.5397 32.1365 23.2998 31.8107C23.0598 31.4853 22.6013 31.4159 22.2755 31.6558C17.6701 35.0505 13.4693 37.0685 10.7357 37.2386C10.7716 37.0479 10.791 36.8514 10.791 36.6508C10.791 34.9605 9.4635 33.5754 7.79648 33.4823C8.30154 30.3127 10.7674 25.8174 14.4863 21.1127C15.8558 22.7519 17.3557 24.3915 18.9579 25.9937C23.5939 30.6297 28.5427 34.4115 32.8934 36.6431C35.0506 37.7498 36.9579 38.4212 38.5624 38.6386C38.9442 38.6905 39.307 38.7164 39.6503 38.7164C40.9389 38.7164 41.9544 38.3525 42.6777 37.6292C44.8589 35.448 43.7183 30.5515 39.5485 24.195C39.4817 24.0936 39.415 23.9909 39.3478 23.8879C38.9217 23.2345 38.4811 22.5589 37.952 21.9009C33.9043 16.8666 31.1081 14.3363 30.991 14.231C30.6904 13.9606 30.2277 13.985 29.9568 14.286C29.6864 14.5866 29.7108 15.0493 30.0114 15.3201C30.0392 15.3453 32.8449 17.887 36.8107 22.8191C37.294 23.4199 37.7144 24.0646 38.1207 24.6883C38.1886 24.7924 38.2561 24.8958 38.3236 24.9988C41.9125 30.4691 43.2148 35.0204 41.642 36.5932C40.4453 37.7898 37.4245 37.321 33.5621 35.34C29.3434 33.176 24.5247 29.4891 19.9936 24.958C18.3487 23.3131 16.8159 21.6304 15.4263 19.9523C16.8102 18.2815 18.343 16.5961 19.9936 14.9451C20.6856 14.2532 21.3867 13.5806 22.0932 12.9272C23.0503 12.8902 24.0204 12.8711 25 12.8711C29.6318 12.8711 34.1236 13.2957 37.9902 14.099C44.3958 15.4292 48.5352 17.7268 48.5352 19.9512C48.5352 20.7927 47.9336 21.5472 47.266 22.1255C46.6835 21.424 45.8054 20.9766 44.8242 20.9766C43.074 20.9766 41.6504 22.4002 41.6504 24.1504C41.6504 25.9006 43.074 27.3242 44.8242 27.3242C46.5744 27.3242 47.998 25.9006 47.998 24.1504C47.998 23.92 47.9729 23.6953 47.9259 23.4786C49.3011 22.3964 50 21.2115 50 19.9512ZM14.7461 1.64062C15.6883 1.64062 16.4551 2.40738 16.4551 3.34961C16.4551 4.29184 15.6883 5.05859 14.7461 5.05859C13.8039 5.05859 13.0371 4.29184 13.0371 3.34961C13.0371 2.40738 13.8039 1.64062 14.7461 1.64062ZM9.32617 36.6504C9.32617 37.5926 8.55942 38.3594 7.61719 38.3594C6.67496 38.3594 5.9082 37.5926 5.9082 36.6504C5.9082 35.8623 6.44569 35.1985 7.17239 35.0021C7.17735 35.0009 7.18231 34.9998 7.18727 34.9986C7.32498 34.9628 7.46841 34.9414 7.61719 34.9414C8.55942 34.9414 9.32617 35.7082 9.32617 36.6504ZM18.9579 13.9091C17.3584 15.5086 15.8585 17.147 14.4863 18.7904C13.2755 17.2572 12.191 15.7359 11.2591 14.2596C13.8443 13.6752 16.7496 13.2655 19.833 13.0496C19.54 13.3334 19.2478 13.6192 18.9579 13.9091ZM44.8242 25.8594C43.882 25.8594 43.1152 25.0926 43.1152 24.1504C43.1152 23.2082 43.882 22.4414 44.8242 22.4414C45.7664 22.4414 46.5332 23.2082 46.5332 24.1504C46.5332 25.0926 45.7664 25.8594 44.8242 25.8594Z" fill="#006CAB"/>
</svg>
