<svg width="50" height="50" viewBox="0 0 50 50" fill="none" xmlns="http://www.w3.org/2000/svg">
<path d="M20.2834 4.282V12.5187V12.5225V12.5263V21.9872C20.2834 24.8142 22.5833 27.1141 25.4103 27.1141C28.237 27.1141 30.5369 24.8142 30.5369 21.9872V4.26712C30.8421 4.15955 31.1225 3.98636 31.3582 3.75099C31.7733 3.33595 32.0018 2.78435 32.0018 2.19727C32.0018 2.15912 32.0006 2.12593 31.9995 2.09351C31.9724 1.51863 31.7214 0.985336 31.2915 0.593567C30.8737 0.210953 30.3309 0 29.7633 0H20.9746C20.3879 0 19.8359 0.2285 19.4209 0.643539C19.0058 1.05858 18.7773 1.61018 18.7773 2.19727C18.7773 2.78435 19.0058 3.33595 19.4209 3.75099C19.6673 3.99742 19.9622 4.17595 20.2834 4.282ZM20.9746 1.46484H29.7644C29.9617 1.46484 30.1577 1.54076 30.3023 1.67389C30.4461 1.80664 30.527 1.97563 30.5358 2.16103L30.5369 2.16599V2.19727C30.5358 2.60048 30.2077 2.92854 29.8045 2.92969H26.9541C26.5506 2.92969 26.2217 3.2589 26.2217 3.66211C26.2217 4.06647 26.5506 4.39453 26.9541 4.39453H29.0724V11.7901H23.9455C23.5419 11.7901 23.2131 12.1189 23.2131 12.5225C23.2131 12.9269 23.5419 13.2549 23.9455 13.2549H29.0724V21.9872C29.0724 24.0063 27.4295 25.6493 25.4103 25.6493C23.3912 25.6493 21.7482 24.0063 21.7482 21.9872V4.39453H24.0226C24.4258 4.39453 24.755 4.06647 24.755 3.66211C24.755 3.2589 24.4269 2.93083 24.0245 2.92969C24.0164 2.92778 24.0088 2.92969 24.0008 2.92969C22.6298 2.92969 22.5978 2.92969 20.9746 2.92969C20.5714 2.92854 20.2433 2.60048 20.2422 2.19727C20.2433 1.79405 20.5714 1.46599 20.9746 1.46484Z" fill="#006CAB"/>
<path d="M49.3323 41.5699L42.5902 29.9324C42.2922 29.4182 42.0309 27.3354 42.0309 26.3493V21.3329C43.0117 21.1128 43.7472 20.2358 43.7472 19.1895C43.7472 19.1544 43.7464 19.1189 43.7445 19.0842C43.6911 17.9474 42.7298 17.0898 41.5083 17.0898H34.0166C32.7639 17.0898 31.8194 17.9924 31.8194 19.1895C31.8194 20.2358 32.5545 21.1128 33.5352 21.3329V26.3493C33.5352 27.3354 33.2739 29.4182 32.9764 29.932L26.2343 41.5699C24.0652 45.3136 26.763 50 31.0927 50H44.4735C48.8001 50 51.5028 45.3167 49.3323 41.5699ZM44.4735 48.5352H31.0927C27.8948 48.5352 25.8974 45.0733 27.5015 42.3042L34.2436 30.6664C34.8189 29.6734 35.0001 27.0134 35.0001 26.3493V21.3867H36.9429C37.3472 21.3867 37.6753 21.059 37.6753 20.6543C37.6753 20.2496 37.3476 19.9219 36.9429 19.9219H34.0166C33.6127 19.9219 33.2842 19.5934 33.2842 19.1895C33.2842 18.7534 33.6638 18.5547 34.0166 18.5547H41.5083C41.8673 18.5547 42.2621 18.742 42.2816 19.154C42.2819 19.1658 42.2823 19.1776 42.2823 19.1895C42.2823 19.5934 41.9539 19.9219 41.5499 19.9219H39.8688C39.464 19.9219 39.1363 20.2496 39.1363 20.6543C39.1363 21.059 39.464 21.3867 39.8688 21.3867H40.5661V26.3493C40.5661 27.0134 40.7473 29.6734 41.3229 30.6664L48.0647 42.3042C49.668 45.0714 47.674 48.5352 44.4735 48.5352Z" fill="#006CAB"/>
<path d="M43.3991 37.1532C43.1962 36.803 42.7476 36.684 42.3982 36.887C42.048 37.0899 41.929 37.5377 42.1319 37.8879L45.4423 43.5974C45.9516 44.4763 45.3187 45.5772 44.3017 45.5772H31.265C30.2491 45.5772 29.6147 44.477 30.1248 43.5974L33.2234 38.253H40.3241C40.7285 38.253 41.0565 37.9249 41.0565 37.5206C41.0565 37.1158 40.7285 36.7882 40.3241 36.7882H32.8015C32.5402 36.7882 32.2987 36.927 32.1679 37.1528L28.8575 42.8627C27.7814 44.7181 29.1188 47.042 31.265 47.042H44.3017C46.4463 47.042 47.786 44.7197 46.7095 42.8627L43.3991 37.1532Z" fill="#006CAB"/>
<path d="M36.5625 39.8933C36.5625 40.2977 36.2344 40.6257 35.8301 40.6257C35.4253 40.6257 35.0977 40.2977 35.0977 39.8933C35.0977 39.4886 35.4253 39.1609 35.8301 39.1609C36.2344 39.1609 36.5625 39.4886 36.5625 39.8933Z" fill="#006CAB"/>
<path d="M40.957 42.3347C40.957 42.7391 40.6293 43.0672 40.2246 43.0672C39.8203 43.0672 39.4922 42.7391 39.4922 42.3347C39.4922 41.93 39.8203 41.6023 40.2246 41.6023C40.6293 41.6023 40.957 41.93 40.957 42.3347Z" fill="#006CAB"/>
<path d="M37.5391 43.7996C37.5391 44.2039 37.2114 44.532 36.8066 44.532C36.4023 44.532 36.0742 44.2039 36.0742 43.7996C36.0742 43.3949 36.4023 43.0672 36.8066 43.0672C37.2114 43.0672 37.5391 43.3949 37.5391 43.7996Z" fill="#006CAB"/>
<path d="M17.2844 24.836V21.381C18.2613 21.1636 19.0002 20.295 19.0002 19.2383C19.0002 18.0164 17.9844 17.041 16.7622 17.041H9.2701C8.68301 17.041 8.13141 17.2695 7.71637 17.6846C7.30133 18.0996 7.07283 18.6512 7.07283 19.2383C7.07283 19.8254 7.30133 20.377 7.71637 20.792C8.01506 21.0907 8.38547 21.291 8.78792 21.3806L8.7841 24.8375C3.58849 26.6449 0.0976563 31.5567 0.0976563 37.0602C0.0972748 44.1967 5.8979 50 13.0363 50H13.0787C20.19 49.9775 25.9754 44.1727 25.9754 37.0605C25.9754 31.5575 22.4854 26.6457 17.2844 24.836ZM13.0737 48.5352C6.74133 48.5538 1.56212 43.4147 1.5625 37.0602C1.5625 32.1796 4.65813 27.8236 9.26552 26.2207C9.85641 26.0151 10.2535 25.4589 10.2535 24.8363V21.4355H11.5501C11.5582 21.4355 11.5658 21.4382 11.5738 21.4355C11.9759 21.4344 12.3043 21.1063 12.3043 20.7031C12.3043 20.2999 11.9762 19.9707 11.5719 19.9707H9.2701C8.86688 19.9696 8.53882 19.6415 8.53767 19.2383C8.53882 18.8351 8.86688 18.507 9.2701 18.5059H16.7629C17.1612 18.5059 17.5354 18.8137 17.5354 19.2383C17.5346 19.6415 17.2062 19.9696 16.803 19.9707H14.5023C14.0991 19.9707 13.7699 20.2999 13.7699 20.7031C13.7699 21.1075 14.0991 21.4355 14.5023 21.4355H14.5042H15.8195V24.836C15.8195 25.4585 16.2174 26.0155 16.8091 26.2215C21.4157 27.8244 24.5106 32.1804 24.5106 37.0605C24.511 43.3678 19.3802 48.5153 13.0737 48.5352Z" fill="#006CAB"/>
<path d="M18.4068 32.5195C16.7742 32.5195 15.5279 33.4545 14.5242 34.3693C14.2252 34.6416 14.2038 35.1048 14.4762 35.4038C14.7485 35.7033 15.2117 35.7246 15.5107 35.4519C16.6548 34.4097 17.494 33.9844 18.4068 33.9844C20.1097 33.9844 21.6333 35.3573 21.5769 37.3108C21.4971 38.9904 20.1059 40.332 18.4068 40.332C16.543 40.332 15.0968 38.5429 13.566 36.6489C12.0012 34.7134 10.2274 32.5195 7.66504 32.5195C6.44624 32.5195 5.29535 32.9887 4.42407 33.8406C3.50969 34.7343 2.96838 35.9898 3.03247 37.3886C3.2068 42.7662 7.62765 47.0699 13.0388 47.0703H13.0686C18.7166 47.0524 23.0829 42.3527 23.0455 37.1185C23.057 34.7 21.0367 32.5195 18.4068 32.5195ZM13.0636 45.6055H13.0365C7.97288 45.6051 4.40271 41.3708 4.49388 37.0785C4.53546 35.3725 5.95834 33.9844 7.66504 33.9844C9.52775 33.9844 11.0018 35.807 12.4269 37.5698C14.1065 39.6481 15.8434 41.7969 18.4068 41.7969C19.1332 41.7969 19.8209 41.629 20.4336 41.3303C18.9577 43.8751 16.2069 45.5956 13.0636 45.6055Z" fill="#006CAB"/>
<path d="M7.90967 37.5488C7.90967 37.9532 7.58199 38.2812 7.17725 38.2812C6.77289 38.2812 6.44482 37.9532 6.44482 37.5488C6.44482 37.1445 6.77289 36.8164 7.17725 36.8164C7.58199 36.8164 7.90967 37.1445 7.90967 37.5488Z" fill="#006CAB"/>
<path d="M12.3042 39.9902C12.3042 40.3946 11.9761 40.7227 11.5718 40.7227C11.1674 40.7227 10.8394 40.3946 10.8394 39.9902C10.8394 39.5859 11.1674 39.2578 11.5718 39.2578C11.9761 39.2578 12.3042 39.5859 12.3042 39.9902Z" fill="#006CAB"/>
<path d="M8.88623 41.4551C8.88623 41.8594 8.55855 42.1875 8.15381 42.1875C7.74945 42.1875 7.42139 41.8594 7.42139 41.4551C7.42139 41.0507 7.74945 40.7227 8.15381 40.7227C8.55855 40.7227 8.88623 41.0507 8.88623 41.4551Z" fill="#006CAB"/>
</svg>
