<svg width="46" height="50" viewBox="0 0 46 50" fill="none" xmlns="http://www.w3.org/2000/svg">
<path d="M43.3661 9.4213V5.99988C44.6924 5.67115 45.6787 4.47121 45.6787 3.04473C45.6787 1.36581 44.3129 0 42.634 0C40.9551 0 39.5893 1.36581 39.5893 3.04473C39.5893 4.47131 40.5756 5.67124 41.9019 5.99988V9.4213C40.5756 9.75003 39.5893 10.95 39.5893 12.3765C39.5893 12.8413 39.6943 13.2816 39.8813 13.676L36.8977 16.0171C36.4212 15.7076 35.8536 15.527 35.2442 15.527C34.75 15.527 34.2833 15.6461 33.8702 15.856L26.928 11.9299C26.9505 11.7806 26.9624 11.6278 26.9624 11.4723C26.9624 9.7934 25.5966 8.42759 23.9177 8.42759C22.2388 8.42759 20.873 9.7934 20.873 11.4723C20.873 11.6278 20.8848 11.7806 20.9075 11.9299L18.6442 13.2098C18.2922 13.4088 18.1683 13.8556 18.3673 14.2075C18.5019 14.4456 18.75 14.5794 19.0052 14.5794C19.1274 14.5794 19.2511 14.5488 19.365 14.4844L21.4767 13.2902C22.0324 14.0345 22.9197 14.5171 23.9178 14.5171C24.9159 14.5171 25.8032 14.0345 26.3589 13.2902L32.7122 16.8833C32.3887 17.3669 32.1996 17.9477 32.1996 18.5718C32.1996 19.9984 33.1859 21.1983 34.5123 21.5269V27.7613C33.1859 28.09 32.1996 29.2899 32.1996 30.7164C32.1996 31.2807 32.3545 31.8093 32.6231 32.2629L26.3589 35.8055C25.8032 35.0613 24.9159 34.5786 23.9178 34.5786C22.9197 34.5786 22.0324 35.0613 21.4767 35.8055L15.292 32.3079C15.5773 31.8445 15.7423 31.2994 15.7423 30.7164C15.7423 29.2898 14.756 28.0899 13.4296 27.7613V21.5269C14.756 21.1982 15.7423 19.9983 15.7423 18.5718C15.7423 17.9288 15.5414 17.3321 15.1998 16.84L16.4211 16.1493C16.7731 15.9502 16.897 15.5035 16.698 15.1516C16.4989 14.7996 16.0524 14.6757 15.7003 14.8748L14.0158 15.8275C13.6167 15.635 13.1695 15.5271 12.6975 15.5271C11.0186 15.5271 9.65281 16.8929 9.65281 18.5718C9.65281 19.9984 10.6391 21.1983 11.9654 21.5269V27.7613C10.8737 28.0318 10.0129 28.8926 9.74239 29.9843H6.32068C5.99195 28.658 4.79201 27.6717 3.36553 27.6717C1.68662 27.6717 0.320801 29.0375 0.320801 30.7164C0.320801 32.3953 1.68662 33.7612 3.36553 33.7612C4.79201 33.7612 5.99204 32.7749 6.32068 31.4485H9.7422C10.0709 32.7749 11.2709 33.7612 12.6973 33.7612C13.2401 33.7612 13.7498 33.6177 14.1915 33.3678L20.9073 37.1658C20.8847 37.315 20.8728 37.4678 20.8728 37.6234C20.8728 39.0498 21.8591 40.2499 23.1854 40.5785V43.9999C21.8591 44.3287 20.8728 45.5286 20.8728 46.9552C20.8728 48.6341 22.2386 49.9999 23.9175 49.9999C25.5964 49.9999 26.9622 48.6341 26.9622 46.9552C26.9622 45.5286 25.976 44.3287 24.6496 43.9999V40.5785C25.976 40.2498 26.9622 39.0498 26.9622 37.6234C26.9622 37.4678 26.9504 37.315 26.9278 37.1658L33.6971 33.3375C34.1508 33.6062 34.6795 33.7612 35.244 33.7612C35.7266 33.7612 36.1831 33.6478 36.5889 33.4471L39.0392 35.8974C38.4586 36.8606 38.4585 38.078 39.0392 39.0412L36.5265 41.554C35.347 40.7885 33.75 40.922 32.7166 41.9554C31.5295 43.1425 31.5295 45.074 32.7166 46.2613C33.3102 46.8548 34.0899 47.1516 34.8696 47.1516C35.6494 47.1516 36.4291 46.8548 37.0226 46.2613C38.0064 45.2774 38.174 43.7828 37.5274 42.6239L40.0738 40.0774C40.5436 40.3619 41.0834 40.514 41.6466 40.514C42.4598 40.514 43.2244 40.1973 43.7995 39.6222C44.0332 39.3885 44.226 39.1211 44.3724 38.8273C44.5527 38.4655 44.4056 38.0258 44.0437 37.8455C43.6813 37.665 43.2421 37.8123 43.0618 38.1742C42.9861 38.3262 42.8859 38.4651 42.7641 38.5869C42.4657 38.8854 42.0688 39.0498 41.6466 39.0498C41.2244 39.0498 40.8275 38.8854 40.5291 38.5869C39.9129 37.9708 39.9128 36.9684 40.5286 36.3521C40.5288 36.3519 40.529 36.3518 40.5291 36.3516C40.5292 36.3514 40.5294 36.3512 40.5295 36.3511C41.0463 35.8351 41.8422 35.7386 42.4653 36.1167C42.8108 36.3264 43.2612 36.2162 43.471 35.8705C43.6808 35.5249 43.5706 35.0746 43.2248 34.8649C42.2378 34.266 41.0272 34.2855 40.0747 34.862L37.7109 32.4982C38.074 31.9969 38.2889 31.3815 38.2889 30.7165C38.2889 29.2899 37.3026 28.09 35.9763 27.7614V21.527C37.3026 21.1983 38.2889 19.9984 38.2889 18.5719C38.2889 18.0341 38.1482 17.5289 37.9025 17.0899L40.8072 14.8108C41.3164 15.1939 41.9491 15.4214 42.634 15.4214C44.3129 15.4214 45.6787 14.0556 45.6787 12.3766C45.6787 10.9501 44.6924 9.75003 43.3661 9.4213ZM23.9175 13.053C23.046 13.053 22.337 12.3439 22.337 11.4724C22.337 10.6009 23.046 9.89188 23.9175 9.89188C24.789 9.89188 25.4981 10.6009 25.4981 11.4724C25.4981 12.3439 24.789 13.053 23.9175 13.053ZM11.1168 18.5718C11.1168 17.7003 11.8258 16.9913 12.6973 16.9913C13.5688 16.9913 14.2779 17.7003 14.2779 18.5718C14.2779 19.4433 13.5688 20.1523 12.6973 20.1523C11.8258 20.1523 11.1168 19.4433 11.1168 18.5718ZM3.36553 32.297C2.49403 32.297 1.78499 31.5879 1.78499 30.7164C1.78499 29.8449 2.49403 29.1359 3.36553 29.1359C4.23703 29.1359 4.94607 29.8449 4.94607 30.7164C4.94607 31.5879 4.23703 32.297 3.36553 32.297ZM11.1168 30.7165C11.1168 29.845 11.8258 29.136 12.6973 29.136C13.5688 29.136 14.2779 29.845 14.2779 30.7165C14.2779 31.5728 13.5541 32.2971 12.6973 32.2971C11.8258 32.297 11.1168 31.5879 11.1168 30.7165ZM25.4981 46.9553C25.4981 47.8268 24.789 48.5358 23.9175 48.5358C23.046 48.5358 22.337 47.8268 22.337 46.9553C22.337 46.0838 23.046 45.3747 23.9175 45.3747C24.789 45.3747 25.4981 46.0837 25.4981 46.9553ZM23.9175 39.2039C23.046 39.2039 22.337 38.4949 22.337 37.6234C22.337 36.7519 23.046 36.0428 23.9175 36.0428C24.789 36.0428 25.4981 36.7519 25.4981 37.6234C25.4981 38.4949 24.789 39.2039 23.9175 39.2039ZM35.9873 45.226C35.3713 45.8422 34.3686 45.8425 33.7522 45.226C33.1358 44.6097 33.1358 43.607 33.7522 42.9908C34.0603 42.6827 34.465 42.5286 34.8696 42.5286C35.2744 42.5286 35.6791 42.6827 35.9872 42.9908C36.6036 43.6071 36.6036 44.6098 35.9873 45.226ZM41.0535 3.04473C41.0535 2.17323 41.7625 1.46419 42.634 1.46419C43.5055 1.46419 44.2145 2.17323 44.2145 3.04473C44.2145 3.91623 43.5055 4.62527 42.634 4.62527C41.7625 4.62527 41.0535 3.91623 41.0535 3.04473ZM36.8246 30.7165C36.8246 31.5658 36.0962 32.2971 35.2441 32.2971C34.3726 32.2971 33.6636 31.588 33.6636 30.7165C33.6636 29.845 34.3727 29.136 35.2442 29.136C36.1156 29.136 36.8246 29.845 36.8246 30.7165ZM35.2441 20.1523C34.3726 20.1523 33.6635 19.4433 33.6635 18.5718C33.6635 17.7003 34.3726 16.9913 35.2441 16.9913C36.1156 16.9913 36.8246 17.7003 36.8246 18.5718C36.8246 19.4433 36.1156 20.1523 35.2441 20.1523ZM42.634 13.9571C41.7625 13.9571 41.0535 13.248 41.0535 12.3765C41.0535 11.505 41.7625 10.796 42.634 10.796C43.5055 10.796 44.2145 11.505 44.2145 12.3765C44.2145 13.248 43.5055 13.9571 42.634 13.9571Z" fill="#006CAB"/>
</svg>
