<svg width="46" height="50" viewBox="0 0 46 50" fill="none" xmlns="http://www.w3.org/2000/svg">
<path d="M18.3978 8.29468C18.4005 8.29926 18.4035 8.30269 18.4062 8.30688C19.361 10.0475 21.2112 11.2305 23.3325 11.2305C25.0911 11.2305 26.6631 10.4172 27.6935 9.14764L32.727 12.0537C32.8384 12.1181 32.9654 12.1525 33.0932 12.1525C33.3541 12.1525 33.5971 12.0117 33.728 11.7863C33.929 11.4365 33.8088 10.9875 33.4594 10.7853L28.4602 7.89909C28.7727 7.201 28.9478 6.42815 28.9478 5.61523C28.9478 2.51884 26.4289 0 23.3325 0C20.2361 0 17.7173 2.51884 17.7173 5.61523C17.7173 6.55594 17.9511 7.44286 18.3616 8.22258C18.3723 8.24699 18.3841 8.27141 18.3978 8.29468ZM23.3325 1.46484C25.621 1.46484 27.4829 3.3268 27.4829 5.61523C27.4829 7.90367 25.621 9.76562 23.3325 9.76562C21.0441 9.76562 19.1821 7.90367 19.1821 5.61523C19.1821 3.3268 21.0441 1.46484 23.3325 1.46484Z" fill="#006CAB"/>
<path d="M16.861 10.0281C17.2104 9.82628 17.3306 9.37767 17.1296 9.0271C16.9987 8.80165 16.7553 8.66089 16.4948 8.66089C16.3666 8.66089 16.24 8.69522 16.1286 8.75969L10.6648 11.9148C9.63597 10.6075 8.04105 9.76562 6.25195 9.76562C3.15556 9.76562 0.636719 12.2845 0.636719 15.3809C0.636719 18.4769 3.15518 20.9957 6.25119 20.9961H6.25157H6.25195C9.34834 20.9961 11.8672 18.4772 11.8672 15.3809C11.8672 14.5973 11.7054 13.8508 11.414 13.1725L16.861 10.0281ZM6.25195 19.5312C3.96352 19.5312 2.10156 17.6693 2.10156 15.3809C2.10156 13.0924 3.96352 11.2305 6.25195 11.2305C8.54039 11.2305 10.4023 13.0924 10.4023 15.3809C10.4023 17.6693 8.54039 19.5312 6.25195 19.5312Z" fill="#006CAB"/>
<path d="M28.1207 41.4513C28.1055 41.4249 28.0883 41.3998 28.0704 41.3761C27.0728 39.8106 25.3226 38.7695 23.3329 38.7695C21.4683 38.7695 19.8142 39.6835 18.7923 41.0866L13.3838 37.9639C13.2724 37.8994 13.1454 37.8662 13.0176 37.8662C12.7566 37.8662 12.5136 38.0058 12.3828 38.2324C12.1814 38.5818 12.3016 39.0305 12.6514 39.2323L18.0915 42.3733C17.8508 42.9985 17.7177 43.676 17.7177 44.3848C17.7177 47.4812 20.2365 50 23.3329 50C26.4289 50 28.9481 47.4812 28.9481 44.3848C28.9481 43.3178 28.6487 42.3195 28.1299 41.4688C28.1268 41.4631 28.1242 41.457 28.1207 41.4513ZM23.3329 48.5352C21.0445 48.5352 19.1825 46.6732 19.1825 44.3848C19.1825 42.0963 21.0445 40.2344 23.3329 40.2344C25.6213 40.2344 27.4833 42.0963 27.4833 44.3848C27.4833 46.6732 25.6213 48.5352 23.3329 48.5352Z" fill="#006CAB"/>
<path d="M39.094 20.9465V26.8799C39.094 27.2831 39.4232 27.6123 39.8275 27.6123C40.2307 27.6123 40.56 27.2831 40.56 26.8799V20.9469C43.3111 20.5864 45.4424 18.2285 45.4424 15.3809C45.4424 12.2845 42.9235 9.76562 39.8271 9.76562C37.7867 9.76562 35.9976 10.8597 35.0141 12.4916C35.0084 12.5008 35.0016 12.5092 34.9962 12.5183C34.989 12.5309 34.9832 12.5439 34.9768 12.5568C34.4915 13.3873 34.2119 14.3517 34.2119 15.3809C34.2119 18.2285 36.3432 20.5864 39.094 20.9465ZM39.8271 11.2305C42.1156 11.2305 43.9775 13.0924 43.9775 15.3809C43.9775 17.6693 42.1156 19.5312 39.8271 19.5312C37.5387 19.5312 35.6768 17.6693 35.6768 15.3809C35.6768 13.0924 37.5387 11.2305 39.8271 11.2305Z" fill="#006CAB"/>
<path d="M6.98399 29.1264V23.1934C6.98399 22.789 6.65593 22.4609 6.25157 22.4609C5.84836 22.4609 5.51915 22.789 5.51915 23.1934V29.1264C2.76799 29.4868 0.636719 31.8447 0.636719 34.6924C0.636719 37.7888 3.15556 40.3076 6.25195 40.3076C8.31303 40.3076 10.1166 39.1911 11.0936 37.5317C11.1004 37.521 11.1084 37.5111 11.1149 37.5C11.1237 37.4844 11.1317 37.4683 11.1393 37.4523C11.6017 36.6364 11.8672 35.6953 11.8672 34.6924C11.8672 31.8443 9.73553 29.4865 6.98399 29.1264ZM6.25195 38.8428C3.96352 38.8428 2.10156 36.9808 2.10156 34.6924C2.10156 32.4039 3.96352 30.542 6.25195 30.542C8.54039 30.542 10.4023 32.4039 10.4023 34.6924C10.4023 36.9808 8.54039 38.8428 6.25195 38.8428Z" fill="#006CAB"/>
<path d="M39.8282 29.0771H39.8278C39.8275 29.0771 39.8275 29.0771 39.8275 29.0771C36.7311 29.0771 34.2122 31.596 34.2122 34.6924C34.2122 35.453 34.3652 36.179 34.6402 36.8412L29.6567 39.7186C29.4869 39.8163 29.366 39.9746 29.316 40.163C29.2653 40.3526 29.2905 40.5499 29.3893 40.7188C29.5194 40.9451 29.7624 41.0851 30.0241 41.0851C30.1522 41.0851 30.2781 41.0519 30.3891 40.9874L35.3753 38.1084C36.4026 39.4444 38.0159 40.3076 39.8275 40.3076C42.9238 40.3076 45.4427 37.7888 45.4427 34.6924C45.4427 31.5964 42.9242 29.0775 39.8282 29.0771ZM39.8275 38.8428C37.539 38.8428 35.6771 36.9808 35.6771 34.6924C35.6771 32.4039 37.539 30.542 39.8275 30.542C42.1159 30.542 43.9778 32.4039 43.9778 34.6924C43.9778 36.9808 42.1159 38.8428 39.8275 38.8428Z" fill="#006CAB"/>
</svg>
