<svg width="32" height="50" viewBox="0 0 32 50" fill="none" xmlns="http://www.w3.org/2000/svg">
<path d="M11.4617 37.1533L8.15135 42.8627C7.0756 44.7178 8.41227 47.0421 10.5588 47.0421H23.5959C25.7409 47.0421 27.0806 44.7197 26.0037 42.8627L22.6934 37.1533C22.4904 36.8031 22.0422 36.684 21.6924 36.887C21.3426 37.0899 21.2232 37.5378 21.4261 37.888L24.7365 43.5974C25.2461 44.4763 24.6129 45.5772 23.5959 45.5772H10.5588C9.54295 45.5772 8.90818 44.4771 9.41821 43.5974L12.5173 38.253H19.6183C20.0227 38.253 20.3507 37.925 20.3507 37.5206C20.3507 37.1159 20.0227 36.7882 19.6183 36.7882H12.0954C11.8344 36.7882 11.593 36.927 11.4617 37.1533Z" fill="#006CAB"/>
<path d="M15.8574 39.8933C15.8574 40.2977 15.5297 40.6258 15.125 40.6258C14.7206 40.6258 14.3926 40.2977 14.3926 39.8933C14.3926 39.4886 14.7206 39.1609 15.125 39.1609C15.5297 39.1609 15.8574 39.4886 15.8574 39.8933Z" fill="#006CAB"/>
<path d="M20.252 42.3347C20.252 42.7391 19.9243 43.0672 19.5195 43.0672C19.1152 43.0672 18.7871 42.7391 18.7871 42.3347C18.7871 41.93 19.1152 41.6023 19.5195 41.6023C19.9243 41.6023 20.252 41.93 20.252 42.3347Z" fill="#006CAB"/>
<path d="M16.834 43.7996C16.834 44.2039 16.5063 44.532 16.1016 44.532C15.6972 44.532 15.3691 44.2039 15.3691 43.7996C15.3691 43.3949 15.6972 43.0672 16.1016 43.0672C16.5063 43.0672 16.834 43.3949 16.834 43.7996Z" fill="#006CAB"/>
<path d="M7.89453 17.3096C10.183 17.3096 12.0449 15.4476 12.0449 13.1592C12.0449 10.8707 10.183 9.00879 7.89453 9.00879C5.60609 9.00879 3.74414 10.8707 3.74414 13.1592C3.74414 15.4476 5.60609 17.3096 7.89453 17.3096ZM7.89453 10.4736C9.3754 10.4736 10.5801 11.6783 10.5801 13.1592C10.5801 14.64 9.3754 15.8447 7.89453 15.8447C6.41367 15.8447 5.20898 14.64 5.20898 13.1592C5.20898 11.6783 6.41367 10.4736 7.89453 10.4736Z" fill="#006CAB"/>
<path d="M16.6836 11.4502C19.5107 11.4502 21.8105 9.15031 21.8105 6.32324C21.8105 3.49617 19.5107 1.19629 16.6836 1.19629C13.8565 1.19629 11.5566 3.49617 11.5566 6.32324C11.5566 9.15031 13.8565 11.4502 16.6836 11.4502ZM16.6836 2.66113C18.7027 2.66113 20.3457 4.30374 20.3457 6.32324C20.3457 8.34274 18.7031 9.98535 16.6836 9.98535C14.6641 9.98535 13.0215 8.34274 13.0215 6.32324C13.0215 4.30374 14.6641 2.66113 16.6836 2.66113Z" fill="#006CAB"/>
<path d="M8.87109 8.52051C9.27545 8.52051 9.60352 8.19283 9.60352 7.78809C9.60352 7.38335 9.27545 7.05566 8.87109 7.05566C8.46712 7.05566 8.13867 6.72722 8.13867 6.32324C8.13867 5.91927 8.46712 5.59082 8.87109 5.59082C9.27507 5.59082 9.60352 5.91927 9.60352 6.32324C9.60352 6.72798 9.93158 7.05566 10.3359 7.05566C10.7403 7.05566 11.0684 6.72798 11.0684 6.32324C11.0684 5.11169 10.0826 4.12598 8.87109 4.12598C7.65955 4.12598 6.67383 5.11169 6.67383 6.32324C6.67383 7.53479 7.65955 8.52051 8.87109 8.52051Z" fill="#006CAB"/>
<path d="M25.4727 9.39941C25.4727 9.80377 25.1446 10.1318 24.7402 10.1318C24.3359 10.1318 24.0078 9.80377 24.0078 9.39941C24.0078 8.99506 24.3359 8.66699 24.7402 8.66699C25.1446 8.66699 25.4727 8.99506 25.4727 9.39941Z" fill="#006CAB"/>
<path d="M11.8008 0.732422C11.8008 1.13678 11.4727 1.46484 11.0684 1.46484C10.664 1.46484 10.3359 1.13678 10.3359 0.732422C10.3359 0.328064 10.664 0 11.0684 0C11.4727 0 11.8008 0.328064 11.8008 0.732422Z" fill="#006CAB"/>
<path d="M2.03516 10.8643C2.03516 11.2686 1.70709 11.5967 1.30273 11.5967C0.898376 11.5967 0.570312 11.2686 0.570312 10.8643C0.570312 10.4599 0.898376 10.1318 1.30273 10.1318C1.70709 10.1318 2.03516 10.4599 2.03516 10.8643Z" fill="#006CAB"/>
<path d="M31.332 12.3291C31.332 12.7335 31.004 13.0615 30.5996 13.0615C30.1953 13.0615 29.8672 12.7335 29.8672 12.3291C29.8672 11.9247 30.1953 11.5967 30.5996 11.5967C31.004 11.5967 31.332 11.9247 31.332 12.3291Z" fill="#006CAB"/>
<path d="M26.7045 32.489C26.6969 32.4883 26.6919 32.4852 26.6889 32.4825V21.8487C26.5931 18.2919 23.6924 15.4346 20.1009 15.4324C18.3549 15.4324 16.6475 16.1209 15.3726 17.4324C13.8112 15.451 10.6122 16.5321 10.5794 19.0731V19.0742V19.0945C10.5794 19.944 11.0254 20.7233 11.5323 21.2009C11.2683 21.5477 11.1135 21.9795 11.1135 22.4609C11.1135 23.5073 11.8486 24.3843 12.8293 24.6044V26.3493C12.8293 27.3354 12.568 29.4182 12.2705 29.9324L5.52799 41.5699C3.35934 45.3136 6.05709 50 10.3868 50H23.7683C28.0946 50 30.7977 45.3163 28.6271 41.5699L21.8846 29.9324C21.5871 29.4182 21.3254 27.3354 21.3254 26.3493V24.6044C22.3062 24.3843 23.0416 23.5073 23.0416 22.4609C23.0416 21.2513 22.0418 20.3613 20.8028 20.3613H13.3107C12.9163 20.3613 12.6584 20.4193 12.222 19.7254C12.1091 19.5492 12.0443 19.3344 12.0443 19.0868C12.0431 18.4734 12.5589 17.8738 13.268 17.8738C13.8684 17.8738 14.3861 18.3243 14.4712 18.9209C14.5658 19.5847 15.4382 19.7853 15.809 19.2196C16.763 17.7658 18.3675 16.8976 20.1009 16.8976H20.1028C22.8948 16.8976 25.1447 19.0842 25.224 21.8761V32.4863C25.224 33.1806 25.7219 33.7852 26.4074 33.9237C27.6517 34.1824 28.5539 35.2921 28.5531 36.5635C28.552 36.9667 28.4661 37.3535 28.296 37.7129C28.0667 38.1973 28.4219 38.7577 28.9582 38.7577C29.2405 38.7577 29.5003 38.5937 29.6205 38.3377C29.8841 37.7804 30.018 37.1826 30.018 36.5635C30.0142 34.552 28.5962 32.8812 26.7045 32.489ZM21.5757 22.4224C21.5764 22.4354 21.5768 22.448 21.5768 22.4609C21.5768 22.8649 21.2484 23.1934 20.8444 23.1934H19.1632C18.7585 23.1934 18.4308 23.521 18.4308 23.9258C18.4308 24.3305 18.7585 24.6582 19.1632 24.6582H19.861V26.3493C19.861 27.0134 20.0422 29.6734 20.6174 30.6664L27.3595 42.3042C28.9628 45.0714 26.9685 48.5352 23.7683 48.5352H10.3868C7.18891 48.5352 5.19115 45.0733 6.79562 42.3042L13.5377 30.6664C14.1133 29.6734 14.2945 27.0134 14.2945 26.3493V24.6582H16.2374C16.6417 24.6582 16.9698 24.3305 16.9698 23.9258C16.9698 23.521 16.6417 23.1934 16.2374 23.1934H13.3111C12.9071 23.1934 12.5787 22.8649 12.5787 22.4609C12.5787 22.1031 12.8686 21.8456 13.2035 21.8456C13.2604 21.8456 13.3157 21.8384 13.3691 21.8262H20.8032C21.1618 21.8262 21.5566 22.0135 21.5757 22.4224Z" fill="#006CAB"/>
</svg>
