<svg width="50" height="50" viewBox="0 0 50 50" fill="none" xmlns="http://www.w3.org/2000/svg">
<path d="M5.69502 41.9355C5.69502 40.6292 6.75812 39.5661 8.06437 39.5661C9.37063 39.5661 10.4337 40.6292 10.4337 41.9355C10.4337 43.2417 9.37063 44.3048 8.06437 44.3048C6.75812 44.3048 5.69502 43.2417 5.69502 41.9355ZM7.20792 41.9355C7.20792 42.4083 7.5916 42.7919 8.06437 42.7919C8.53715 42.7919 8.92083 42.4083 8.92083 41.9355C8.92083 41.4627 8.53715 41.079 8.06437 41.079C7.5916 41.079 7.20792 41.4627 7.20792 41.9355Z" fill="#006CAB" stroke="white" stroke-width="0.1"/>
<path d="M44.3048 13.7097V13.7597H44.3548H49.95V20.1113H47.5806H47.5306V20.1613V49.95H46.0177V20.1613V20.1113H45.9677H44.3548H44.3048V20.1613V40.3226C44.3048 42.9635 42.157 45.1113 39.5161 45.1113C36.8752 45.1113 34.7274 42.9635 34.7274 40.3226V20.1613V20.1113H34.6774H33.0645H33.0145V20.1613V49.95H31.5016V20.1613V20.1113H31.4516H29.0822V13.7597H34.6774H34.7274V13.7097V8.06452V8.01452H34.6774H33.1145V6.50161H38.7096H45.9177V8.01452H44.3548H44.3048V8.06452V13.7097ZM36.2903 8.01452H36.2403V8.06452V13.7097V13.7597H36.2903H42.7419H42.7919V13.7097V8.06452V8.01452H42.7419H36.2903ZM36.6876 41.8089L36.6198 41.8215L36.6529 41.882C37.2086 42.8986 38.2764 43.5984 39.5161 43.5984C41.3227 43.5984 42.7919 42.1292 42.7919 40.3226V30.1968V30.1098L42.7168 30.1536C42.2468 30.4271 41.7094 30.5952 41.129 30.5952C39.3776 30.5952 37.9532 29.1708 37.9532 27.4194C37.9532 26.8389 38.1213 26.3015 38.3948 25.8316L38.4385 25.7565H38.3516H36.2903H36.2403V25.8064V33.0847V33.1303L36.2858 33.1345C38.5176 33.337 40.2725 35.2173 40.2725 37.5C40.2725 39.6439 38.7241 41.4309 36.6876 41.8089ZM36.2403 40.2815V40.3392L36.2975 40.3309C37.6858 40.1299 38.7596 38.9433 38.7596 37.5C38.7596 36.0567 37.6858 34.8701 36.2975 34.6691L36.2403 34.6608V34.7185V40.2815ZM42.7419 24.2435H42.7919V24.1935V20.1613V20.1113H42.7419H36.2903H36.2403V20.1613V24.1935V24.2435H36.2903H42.7419ZM48.3871 18.5984H48.4371V18.5484V15.3226V15.2726H48.3871H30.6451H30.5951V15.3226V18.5484V18.5984H30.6451H48.3871ZM39.4661 27.4194C39.4661 28.3365 40.2119 29.0823 41.129 29.0823C42.0461 29.0823 42.7919 28.3365 42.7919 27.4194C42.7919 26.5022 42.0461 25.7565 41.129 25.7565C40.2119 25.7565 39.4661 26.5022 39.4661 27.4194Z" fill="#006CAB" stroke="white" stroke-width="0.1"/>
<path d="M38.7099 1.6629C40.0161 1.6629 41.0792 2.726 41.0792 4.03226C41.0792 5.33852 40.0161 6.40161 38.7099 6.40161C37.4036 6.40161 36.3405 5.33852 36.3405 4.03226C36.3405 2.726 37.4036 1.6629 38.7099 1.6629ZM37.8534 4.03226C37.8534 4.50503 38.2371 4.88871 38.7099 4.88871C39.1827 4.88871 39.5663 4.50503 39.5663 4.03226C39.5663 3.55948 39.1827 3.17581 38.7099 3.17581C38.2371 3.17581 37.8534 3.55948 37.8534 4.03226Z" fill="#006CAB" stroke="white" stroke-width="0.1"/>
<path d="M45.1612 2.46935C46.5059 2.46935 47.6033 1.38851 47.63 0.05H49.1431C49.1162 2.22283 47.3402 3.98226 45.1612 3.98226C42.9821 3.98226 41.2061 2.22283 41.1792 0.05H42.6923C42.719 1.38851 43.8164 2.46935 45.1612 2.46935Z" fill="#006CAB" stroke="white" stroke-width="0.1"/>
<path d="M1.99231 33.1145L2.00988 33.0512C3.14762 28.9496 6.39158 25.6465 10.673 24.5427L1.99231 33.1145ZM1.99231 33.1145H2.05806M1.99231 33.1145H2.05806M2.05806 33.1145H25.3613H25.427M2.05806 33.1145H25.427M25.427 33.1145L25.4095 33.0512M25.427 33.1145L25.4095 33.0512M25.4095 33.0512C24.2717 28.9496 21.0278 25.6465 16.7464 24.5427L25.4095 33.0512ZM17.6919 23.2V23.237L17.7273 23.2478C23.4354 24.9995 27.3694 30.2761 27.3694 36.2903C27.3694 43.8224 21.2417 49.95 13.7097 49.95C6.17761 49.95 0.05 43.8224 0.05 36.2903C0.05 30.2761 3.98395 24.9995 9.69209 23.2478L9.72742 23.237V23.2V4.03226V3.98226H9.67742H8.11452V2.46935H9.67742H12.9032H12.9532V2.41935V0.05H14.4661V2.41935V2.46935H14.5161H17.7419H19.3048V3.98226H17.7419H17.6919V4.03226V23.2ZM1.73065 34.6274H1.6869L1.68109 34.6708C1.60992 35.2021 1.5629 35.7415 1.5629 36.2903C1.5629 42.9881 7.0119 48.4371 13.7097 48.4371C20.4075 48.4371 25.8565 42.9881 25.8565 36.2903C25.8565 35.7415 25.8094 35.2021 25.7383 34.6708L25.7325 34.6274H25.6887H22.4992H22.4584L22.4502 34.6674C22.0798 36.4826 20.4717 37.8532 18.5484 37.8532C16.6251 37.8532 15.0169 36.4826 14.6466 34.6674L14.6384 34.6274H14.5976H1.73065ZM16.2774 34.6274H16.2065L16.2303 34.6942C16.5709 35.6494 17.4762 36.3403 18.5484 36.3403C19.6206 36.3403 20.5258 35.6494 20.8665 34.6942L20.8903 34.6274H20.8194H16.2774ZM11.2403 24.396L10.673 24.5427H16.7464L16.179 24.396V4.03226V3.98226H16.129H11.2903H11.2403V4.03226V24.396Z" fill="#006CAB" stroke="white" stroke-width="0.1"/>
</svg>
