<svg width="40" height="50" viewBox="0 0 40 50" fill="none" xmlns="http://www.w3.org/2000/svg">
<path d="M8.61914 32.9406C8.7878 32.9406 8.94955 32.8736 9.06882 32.7544C9.18808 32.6351 9.25508 32.4733 9.25508 32.3047V31.7354C9.25508 31.5667 9.18808 31.4049 9.06882 31.2857C8.94955 31.1664 8.7878 31.0994 8.61914 31.0994C8.45048 31.0994 8.28873 31.1664 8.16946 31.2857C8.0502 31.4049 7.9832 31.5667 7.9832 31.7354V32.3047C7.9832 32.4733 8.0502 32.6351 8.16946 32.7544C8.28873 32.8736 8.45048 32.9406 8.61914 32.9406Z" fill="#006CAB" stroke="#006CAB" stroke-width="0.1"/>
<path d="M8.61914 43.4328C8.7878 43.4328 8.94955 43.3658 9.06882 43.2466C9.18808 43.1273 9.25508 42.9655 9.25508 42.7969V34.1514C9.25508 33.9827 9.18808 33.821 9.06882 33.7017C8.94955 33.5824 8.7878 33.5154 8.61914 33.5154C8.45048 33.5154 8.28873 33.5824 8.16946 33.7017C8.0502 33.821 7.9832 33.9827 7.9832 34.1514V42.7969C7.9832 42.9655 8.0502 43.1273 8.16946 43.2466C8.28873 43.3658 8.45048 43.4328 8.61914 43.4328Z" fill="#006CAB" stroke="#006CAB" stroke-width="0.1"/>
<path d="M28.6429 4.32306L28.686 4.34833L28.6429 4.32306L25.0618 10.4363L25.0618 10.4364C24.4745 11.4407 24.273 12.6244 24.495 13.7665C24.717 14.9085 25.3472 15.9306 26.268 16.6418C27.1887 17.3529 28.3369 17.7045 29.498 17.6307C30.659 17.5569 31.7535 17.0628 32.5768 16.2408L32.5769 16.2408C33.3249 15.4916 33.8038 14.5158 33.9386 13.4657C34.0735 12.4157 33.8567 11.3505 33.3222 10.4367L33.3222 10.4366L29.7403 4.32306C29.6842 4.22733 29.604 4.14794 29.5078 4.09277C29.4115 4.0376 29.3025 4.00858 29.1916 4.00858C29.0806 4.00858 28.9716 4.0376 28.8753 4.09277C28.7791 4.14794 28.6989 4.22733 28.6429 4.32306ZM31.6497 15.369C31.0488 15.9578 30.2563 16.3119 29.4159 16.3661C28.5625 16.4212 27.7183 16.1631 27.0415 15.6404C26.3646 15.1176 25.9017 14.366 25.7392 13.5264C25.5768 12.6868 25.7261 11.8168 26.1592 11.0793L26.1592 11.0793L29.1914 5.90262L32.2244 11.079C32.6169 11.7501 32.7761 12.5323 32.6771 13.3035C32.5781 14.0746 32.2265 14.7912 31.6772 15.3414L31.6497 15.369Z" fill="#006CAB" stroke="#006CAB" stroke-width="0.1"/>
<path d="M30.8337 12.6686L30.8337 12.6686C30.8503 12.5867 30.8829 12.509 30.9295 12.4397C30.9762 12.3704 31.036 12.311 31.1057 12.2649C31.1753 12.2187 31.2533 12.1868 31.3353 12.1708C31.4172 12.1548 31.5015 12.1551 31.5834 12.1717L30.8337 12.6686ZM30.8337 12.6686C30.7683 12.9921 30.6087 13.289 30.3749 13.522L30.3747 13.5222M30.8337 12.6686L30.3747 13.5222M30.3747 13.5222C30.1962 13.7021 29.9785 13.8383 29.7387 13.9203L29.7387 13.9203M30.3747 13.5222L29.7387 13.9203M29.7387 13.9203C29.5791 13.9751 29.4479 14.0911 29.3739 14.2426C29.2999 14.3942 29.2891 14.5689 29.3439 14.7284C29.3987 14.8879 29.5146 15.0191 29.6662 15.0932C29.8177 15.1672 29.9925 15.178 30.152 15.1232L30.1521 15.1231M29.7387 13.9203L30.1521 15.1231M30.1521 15.1231C30.6372 14.9555 31.0702 14.6642 31.4083 14.2781C31.7464 13.892 31.978 13.4244 32.0803 12.9215L32.0803 12.9215M30.1521 15.1231L32.0803 12.9215M32.0803 12.9215C32.0969 12.8396 32.0972 12.7553 32.0812 12.6733M32.0803 12.9215L32.0812 12.6733M32.0812 12.6733C32.0653 12.5913 32.0333 12.5133 31.9871 12.4437M32.0812 12.6733L31.9871 12.4437M31.9871 12.4437C31.941 12.374 31.8816 12.3142 31.8123 12.2675M31.9871 12.4437L31.8123 12.2675M31.8123 12.2675C31.743 12.2209 31.6653 12.1883 31.5834 12.1717L31.8123 12.2675Z" fill="#006CAB" stroke="#006CAB" stroke-width="0.1"/>
<mask id="path-5-outside-1" maskUnits="userSpaceOnUse" x="-0.00390625" y="0.0615082" width="40" height="49" fill="black">
<rect fill="white" x="-0.00390625" y="0.0615082" width="40" height="49"/>
<path d="M29.1914 1.06151C27.6361 1.06047 26.1029 1.4297 24.7186 2.13868C23.3342 2.84765 22.1386 3.87599 21.2305 5.13866H3.26953C2.66658 5.13866 2.08832 5.37818 1.66197 5.80453C1.23562 6.23089 0.996094 6.80914 0.996094 7.4121C0.996094 8.01505 1.23562 8.59331 1.66197 9.01966C2.08832 9.44601 2.66658 9.68553 3.26953 9.68553H3.87012V24.7656H3.26953C2.97104 24.7656 2.67548 24.8244 2.39971 24.9386C2.12394 25.0529 1.87338 25.2203 1.66231 25.4313C1.45125 25.6424 1.28383 25.893 1.1696 26.1687C1.05537 26.4445 0.996582 26.7401 0.996582 27.0386C0.996582 27.337 1.05537 27.6326 1.1696 27.9084C1.28383 28.1841 1.45125 28.4347 1.66231 28.6458C1.87338 28.8568 2.12394 29.0243 2.39971 29.1385C2.67548 29.2527 2.97104 29.3115 3.26953 29.3115H3.87012V44.3916H3.26953C2.66658 44.3916 2.08832 44.6311 1.66197 45.0575C1.23562 45.4838 0.996094 46.0621 0.996094 46.665C0.996094 47.268 1.23562 47.8462 1.66197 48.2726C2.08832 48.6989 2.66658 48.9385 3.26953 48.9385H30.8203C31.4233 48.9385 32.0015 48.6989 32.4279 48.2726C32.8542 47.8462 33.0938 47.268 33.0938 46.665C33.0938 46.0621 32.8542 45.4838 32.4279 45.0575C32.0015 44.6311 31.4233 44.3916 30.8203 44.3916H30.2188V29.3115H30.8203C31.4231 29.3115 32.0013 29.072 32.4275 28.6458C32.8538 28.2195 33.0933 27.6414 33.0933 27.0386C33.0933 26.4357 32.8538 25.8576 32.4275 25.4313C32.0013 25.0051 31.4231 24.7656 30.8203 24.7656H30.2188V20.6324C32.7183 20.3693 35.0217 19.1571 36.6538 17.2457C38.2859 15.3343 39.1223 12.8695 38.9905 10.3595C38.8588 7.84959 37.7689 5.4859 35.9457 3.75588C34.1224 2.02587 31.7048 1.06146 29.1914 1.06151ZM3.26953 8.51366C2.97738 8.51366 2.69719 8.3976 2.49061 8.19102C2.28403 7.98444 2.16797 7.70425 2.16797 7.4121C2.16797 7.11994 2.28403 6.83976 2.49061 6.63317C2.69719 6.42659 2.97738 6.31053 3.26953 6.31053H20.5033C20.1354 7.00799 19.8543 7.74787 19.6662 8.51366H3.26953ZM30.8203 45.5635C31.1125 45.5635 31.3927 45.6795 31.5992 45.8861C31.8058 46.0927 31.9219 46.3729 31.9219 46.665C31.9219 46.9572 31.8058 47.2374 31.5992 47.444C31.3927 47.6505 31.1125 47.7666 30.8203 47.7666H3.26953C3.05159 47.7665 2.83856 47.7019 2.65738 47.5807C2.4762 47.4596 2.33502 47.2875 2.25169 47.0861C2.16837 46.8847 2.14664 46.6631 2.18925 46.4494C2.23187 46.2357 2.33692 46.0394 2.49111 45.8853C2.59302 45.7827 2.71433 45.7014 2.84796 45.646C2.9816 45.5907 3.1249 45.5625 3.26953 45.5631H5.77471C5.93011 45.5631 6.07914 45.5013 6.18903 45.3915C6.29891 45.2816 6.36064 45.1325 6.36064 44.9771C6.36064 44.8217 6.29891 44.6727 6.18903 44.5628C6.07914 44.4529 5.93011 44.3912 5.77471 44.3912H5.04229V29.3115H29.0469V44.3916H8.15108C7.99568 44.3916 7.84664 44.4533 7.73675 44.5632C7.62687 44.6731 7.56514 44.8221 7.56514 44.9775C7.56514 45.1329 7.62687 45.282 7.73675 45.3918C7.84664 45.5017 7.99568 45.5635 8.15108 45.5635H30.8203ZM30.8203 25.9375C31.1123 25.9375 31.3924 26.0535 31.5989 26.26C31.8054 26.4665 31.9214 26.7465 31.9214 27.0386C31.9214 27.3306 31.8054 27.6106 31.5989 27.8171C31.3924 28.0236 31.1123 28.1396 30.8203 28.1396H3.26953C2.97748 28.1393 2.69749 28.0231 2.49098 27.8166C2.28447 27.6101 2.1683 27.3301 2.16797 27.0381C2.16803 26.8935 2.19658 26.7503 2.25197 26.6167C2.30736 26.4832 2.38852 26.3618 2.49081 26.2596C2.5931 26.1574 2.71452 26.0764 2.84813 26.0211C2.98174 25.9658 3.12494 25.9374 3.26953 25.9375H22.7019C22.8573 25.9375 23.0063 25.8758 23.1162 25.7659C23.2261 25.656 23.2878 25.507 23.2878 25.3515C23.2878 25.1961 23.2261 25.0471 23.1162 24.9372C23.0063 24.8273 22.8573 24.7656 22.7019 24.7656H5.04199V9.68553H19.4514C19.2856 11.0519 19.4089 12.4379 19.8135 13.7535C20.218 15.0691 20.8946 16.285 21.7994 17.3222C22.7043 18.3594 23.8171 19.1947 25.0656 19.774C26.3142 20.3533 27.6706 20.6635 29.0469 20.6847V24.7656H25.4362C25.2808 24.7656 25.1318 24.8273 25.0219 24.9372C24.912 25.0471 24.8503 25.1961 24.8503 25.3515C24.8503 25.507 24.912 25.656 25.0219 25.7659C25.1318 25.8758 25.2808 25.9375 25.4362 25.9375H30.8203ZM29.6034 19.5046C29.4586 19.5113 29.3238 19.5143 29.1914 19.5143C27.9166 19.5137 26.6578 19.2311 25.5051 18.6868C24.3524 18.1425 23.3343 17.3499 22.5238 16.366C21.7134 15.382 21.1306 14.231 20.8172 12.9953C20.5038 11.7597 20.4676 10.47 20.7111 9.21874C20.9269 8.09798 21.3652 7.03188 22.0002 6.08348C22.8184 4.85524 23.9376 3.85704 25.2511 3.18405C26.5645 2.51105 28.0285 2.1857 29.5034 2.239C30.9782 2.29229 32.4149 2.72247 33.6763 3.48851C34.9378 4.25455 35.982 5.33092 36.7095 6.61502C37.4369 7.89913 37.8233 9.34815 37.8319 10.824C37.8405 12.2998 37.4709 13.7532 36.7584 15.0456C36.0459 16.3381 35.0142 17.4265 33.7617 18.2071C32.5092 18.9878 31.0777 19.4346 29.6035 19.505L29.6034 19.5046Z"/>
</mask>
<path d="M29.1914 1.06151C27.6361 1.06047 26.1029 1.4297 24.7186 2.13868C23.3342 2.84765 22.1386 3.87599 21.2305 5.13866H3.26953C2.66658 5.13866 2.08832 5.37818 1.66197 5.80453C1.23562 6.23089 0.996094 6.80914 0.996094 7.4121C0.996094 8.01505 1.23562 8.59331 1.66197 9.01966C2.08832 9.44601 2.66658 9.68553 3.26953 9.68553H3.87012V24.7656H3.26953C2.97104 24.7656 2.67548 24.8244 2.39971 24.9386C2.12394 25.0529 1.87338 25.2203 1.66231 25.4313C1.45125 25.6424 1.28383 25.893 1.1696 26.1687C1.05537 26.4445 0.996582 26.7401 0.996582 27.0386C0.996582 27.337 1.05537 27.6326 1.1696 27.9084C1.28383 28.1841 1.45125 28.4347 1.66231 28.6458C1.87338 28.8568 2.12394 29.0243 2.39971 29.1385C2.67548 29.2527 2.97104 29.3115 3.26953 29.3115H3.87012V44.3916H3.26953C2.66658 44.3916 2.08832 44.6311 1.66197 45.0575C1.23562 45.4838 0.996094 46.0621 0.996094 46.665C0.996094 47.268 1.23562 47.8462 1.66197 48.2726C2.08832 48.6989 2.66658 48.9385 3.26953 48.9385H30.8203C31.4233 48.9385 32.0015 48.6989 32.4279 48.2726C32.8542 47.8462 33.0938 47.268 33.0938 46.665C33.0938 46.0621 32.8542 45.4838 32.4279 45.0575C32.0015 44.6311 31.4233 44.3916 30.8203 44.3916H30.2188V29.3115H30.8203C31.4231 29.3115 32.0013 29.072 32.4275 28.6458C32.8538 28.2195 33.0933 27.6414 33.0933 27.0386C33.0933 26.4357 32.8538 25.8576 32.4275 25.4313C32.0013 25.0051 31.4231 24.7656 30.8203 24.7656H30.2188V20.6324C32.7183 20.3693 35.0217 19.1571 36.6538 17.2457C38.2859 15.3343 39.1223 12.8695 38.9905 10.3595C38.8588 7.84959 37.7689 5.4859 35.9457 3.75588C34.1224 2.02587 31.7048 1.06146 29.1914 1.06151ZM3.26953 8.51366C2.97738 8.51366 2.69719 8.3976 2.49061 8.19102C2.28403 7.98444 2.16797 7.70425 2.16797 7.4121C2.16797 7.11994 2.28403 6.83976 2.49061 6.63317C2.69719 6.42659 2.97738 6.31053 3.26953 6.31053H20.5033C20.1354 7.00799 19.8543 7.74787 19.6662 8.51366H3.26953ZM30.8203 45.5635C31.1125 45.5635 31.3927 45.6795 31.5992 45.8861C31.8058 46.0927 31.9219 46.3729 31.9219 46.665C31.9219 46.9572 31.8058 47.2374 31.5992 47.444C31.3927 47.6505 31.1125 47.7666 30.8203 47.7666H3.26953C3.05159 47.7665 2.83856 47.7019 2.65738 47.5807C2.4762 47.4596 2.33502 47.2875 2.25169 47.0861C2.16837 46.8847 2.14664 46.6631 2.18925 46.4494C2.23187 46.2357 2.33692 46.0394 2.49111 45.8853C2.59302 45.7827 2.71433 45.7014 2.84796 45.646C2.9816 45.5907 3.1249 45.5625 3.26953 45.5631H5.77471C5.93011 45.5631 6.07914 45.5013 6.18903 45.3915C6.29891 45.2816 6.36064 45.1325 6.36064 44.9771C6.36064 44.8217 6.29891 44.6727 6.18903 44.5628C6.07914 44.4529 5.93011 44.3912 5.77471 44.3912H5.04229V29.3115H29.0469V44.3916H8.15108C7.99568 44.3916 7.84664 44.4533 7.73675 44.5632C7.62687 44.6731 7.56514 44.8221 7.56514 44.9775C7.56514 45.1329 7.62687 45.282 7.73675 45.3918C7.84664 45.5017 7.99568 45.5635 8.15108 45.5635H30.8203ZM30.8203 25.9375C31.1123 25.9375 31.3924 26.0535 31.5989 26.26C31.8054 26.4665 31.9214 26.7465 31.9214 27.0386C31.9214 27.3306 31.8054 27.6106 31.5989 27.8171C31.3924 28.0236 31.1123 28.1396 30.8203 28.1396H3.26953C2.97748 28.1393 2.69749 28.0231 2.49098 27.8166C2.28447 27.6101 2.1683 27.3301 2.16797 27.0381C2.16803 26.8935 2.19658 26.7503 2.25197 26.6167C2.30736 26.4832 2.38852 26.3618 2.49081 26.2596C2.5931 26.1574 2.71452 26.0764 2.84813 26.0211C2.98174 25.9658 3.12494 25.9374 3.26953 25.9375H22.7019C22.8573 25.9375 23.0063 25.8758 23.1162 25.7659C23.2261 25.656 23.2878 25.507 23.2878 25.3515C23.2878 25.1961 23.2261 25.0471 23.1162 24.9372C23.0063 24.8273 22.8573 24.7656 22.7019 24.7656H5.04199V9.68553H19.4514C19.2856 11.0519 19.4089 12.4379 19.8135 13.7535C20.218 15.0691 20.8946 16.285 21.7994 17.3222C22.7043 18.3594 23.8171 19.1947 25.0656 19.774C26.3142 20.3533 27.6706 20.6635 29.0469 20.6847V24.7656H25.4362C25.2808 24.7656 25.1318 24.8273 25.0219 24.9372C24.912 25.0471 24.8503 25.1961 24.8503 25.3515C24.8503 25.507 24.912 25.656 25.0219 25.7659C25.1318 25.8758 25.2808 25.9375 25.4362 25.9375H30.8203ZM29.6034 19.5046C29.4586 19.5113 29.3238 19.5143 29.1914 19.5143C27.9166 19.5137 26.6578 19.2311 25.5051 18.6868C24.3524 18.1425 23.3343 17.3499 22.5238 16.366C21.7134 15.382 21.1306 14.231 20.8172 12.9953C20.5038 11.7597 20.4676 10.47 20.7111 9.21874C20.9269 8.09798 21.3652 7.03188 22.0002 6.08348C22.8184 4.85524 23.9376 3.85704 25.2511 3.18405C26.5645 2.51105 28.0285 2.1857 29.5034 2.239C30.9782 2.29229 32.4149 2.72247 33.6763 3.48851C34.9378 4.25455 35.982 5.33092 36.7095 6.61502C37.4369 7.89913 37.8233 9.34815 37.8319 10.824C37.8405 12.2998 37.4709 13.7532 36.7584 15.0456C36.0459 16.3381 35.0142 17.4265 33.7617 18.2071C32.5092 18.9878 31.0777 19.4346 29.6035 19.505L29.6034 19.5046Z" fill="#006CAB"/>
<path d="M29.1914 1.06151C27.6361 1.06047 26.1029 1.4297 24.7186 2.13868C23.3342 2.84765 22.1386 3.87599 21.2305 5.13866H3.26953C2.66658 5.13866 2.08832 5.37818 1.66197 5.80453C1.23562 6.23089 0.996094 6.80914 0.996094 7.4121C0.996094 8.01505 1.23562 8.59331 1.66197 9.01966C2.08832 9.44601 2.66658 9.68553 3.26953 9.68553H3.87012V24.7656H3.26953C2.97104 24.7656 2.67548 24.8244 2.39971 24.9386C2.12394 25.0529 1.87338 25.2203 1.66231 25.4313C1.45125 25.6424 1.28383 25.893 1.1696 26.1687C1.05537 26.4445 0.996582 26.7401 0.996582 27.0386C0.996582 27.337 1.05537 27.6326 1.1696 27.9084C1.28383 28.1841 1.45125 28.4347 1.66231 28.6458C1.87338 28.8568 2.12394 29.0243 2.39971 29.1385C2.67548 29.2527 2.97104 29.3115 3.26953 29.3115H3.87012V44.3916H3.26953C2.66658 44.3916 2.08832 44.6311 1.66197 45.0575C1.23562 45.4838 0.996094 46.0621 0.996094 46.665C0.996094 47.268 1.23562 47.8462 1.66197 48.2726C2.08832 48.6989 2.66658 48.9385 3.26953 48.9385H30.8203C31.4233 48.9385 32.0015 48.6989 32.4279 48.2726C32.8542 47.8462 33.0938 47.268 33.0938 46.665C33.0938 46.0621 32.8542 45.4838 32.4279 45.0575C32.0015 44.6311 31.4233 44.3916 30.8203 44.3916H30.2188V29.3115H30.8203C31.4231 29.3115 32.0013 29.072 32.4275 28.6458C32.8538 28.2195 33.0933 27.6414 33.0933 27.0386C33.0933 26.4357 32.8538 25.8576 32.4275 25.4313C32.0013 25.0051 31.4231 24.7656 30.8203 24.7656H30.2188V20.6324C32.7183 20.3693 35.0217 19.1571 36.6538 17.2457C38.2859 15.3343 39.1223 12.8695 38.9905 10.3595C38.8588 7.84959 37.7689 5.4859 35.9457 3.75588C34.1224 2.02587 31.7048 1.06146 29.1914 1.06151ZM3.26953 8.51366C2.97738 8.51366 2.69719 8.3976 2.49061 8.19102C2.28403 7.98444 2.16797 7.70425 2.16797 7.4121C2.16797 7.11994 2.28403 6.83976 2.49061 6.63317C2.69719 6.42659 2.97738 6.31053 3.26953 6.31053H20.5033C20.1354 7.00799 19.8543 7.74787 19.6662 8.51366H3.26953ZM30.8203 45.5635C31.1125 45.5635 31.3927 45.6795 31.5992 45.8861C31.8058 46.0927 31.9219 46.3729 31.9219 46.665C31.9219 46.9572 31.8058 47.2374 31.5992 47.444C31.3927 47.6505 31.1125 47.7666 30.8203 47.7666H3.26953C3.05159 47.7665 2.83856 47.7019 2.65738 47.5807C2.4762 47.4596 2.33502 47.2875 2.25169 47.0861C2.16837 46.8847 2.14664 46.6631 2.18925 46.4494C2.23187 46.2357 2.33692 46.0394 2.49111 45.8853C2.59302 45.7827 2.71433 45.7014 2.84796 45.646C2.9816 45.5907 3.1249 45.5625 3.26953 45.5631H5.77471C5.93011 45.5631 6.07914 45.5013 6.18903 45.3915C6.29891 45.2816 6.36064 45.1325 6.36064 44.9771C6.36064 44.8217 6.29891 44.6727 6.18903 44.5628C6.07914 44.4529 5.93011 44.3912 5.77471 44.3912H5.04229V29.3115H29.0469V44.3916H8.15108C7.99568 44.3916 7.84664 44.4533 7.73675 44.5632C7.62687 44.6731 7.56514 44.8221 7.56514 44.9775C7.56514 45.1329 7.62687 45.282 7.73675 45.3918C7.84664 45.5017 7.99568 45.5635 8.15108 45.5635H30.8203ZM30.8203 25.9375C31.1123 25.9375 31.3924 26.0535 31.5989 26.26C31.8054 26.4665 31.9214 26.7465 31.9214 27.0386C31.9214 27.3306 31.8054 27.6106 31.5989 27.8171C31.3924 28.0236 31.1123 28.1396 30.8203 28.1396H3.26953C2.97748 28.1393 2.69749 28.0231 2.49098 27.8166C2.28447 27.6101 2.1683 27.3301 2.16797 27.0381C2.16803 26.8935 2.19658 26.7503 2.25197 26.6167C2.30736 26.4832 2.38852 26.3618 2.49081 26.2596C2.5931 26.1574 2.71452 26.0764 2.84813 26.0211C2.98174 25.9658 3.12494 25.9374 3.26953 25.9375H22.7019C22.8573 25.9375 23.0063 25.8758 23.1162 25.7659C23.2261 25.656 23.2878 25.507 23.2878 25.3515C23.2878 25.1961 23.2261 25.0471 23.1162 24.9372C23.0063 24.8273 22.8573 24.7656 22.7019 24.7656H5.04199V9.68553H19.4514C19.2856 11.0519 19.4089 12.4379 19.8135 13.7535C20.218 15.0691 20.8946 16.285 21.7994 17.3222C22.7043 18.3594 23.8171 19.1947 25.0656 19.774C26.3142 20.3533 27.6706 20.6635 29.0469 20.6847V24.7656H25.4362C25.2808 24.7656 25.1318 24.8273 25.0219 24.9372C24.912 25.0471 24.8503 25.1961 24.8503 25.3515C24.8503 25.507 24.912 25.656 25.0219 25.7659C25.1318 25.8758 25.2808 25.9375 25.4362 25.9375H30.8203ZM29.6034 19.5046C29.4586 19.5113 29.3238 19.5143 29.1914 19.5143C27.9166 19.5137 26.6578 19.2311 25.5051 18.6868C24.3524 18.1425 23.3343 17.3499 22.5238 16.366C21.7134 15.382 21.1306 14.231 20.8172 12.9953C20.5038 11.7597 20.4676 10.47 20.7111 9.21874C20.9269 8.09798 21.3652 7.03188 22.0002 6.08348C22.8184 4.85524 23.9376 3.85704 25.2511 3.18405C26.5645 2.51105 28.0285 2.1857 29.5034 2.239C30.9782 2.29229 32.4149 2.72247 33.6763 3.48851C34.9378 4.25455 35.982 5.33092 36.7095 6.61502C37.4369 7.89913 37.8233 9.34815 37.8319 10.824C37.8405 12.2998 37.4709 13.7532 36.7584 15.0456C36.0459 16.3381 35.0142 17.4265 33.7617 18.2071C32.5092 18.9878 31.0777 19.4346 29.6035 19.505L29.6034 19.5046Z" stroke="#006CAB" stroke-width="0.2" mask="url(#path-5-outside-1)"/>
</svg>
