<svg width="50" height="50" viewBox="0 0 50 50" fill="none" xmlns="http://www.w3.org/2000/svg">
<path d="M26.129 32.9032C25.4008 33.8734 25 35.0758 25 36.2903C25 39.4024 27.5331 41.9355 30.6452 41.9355C33.7573 41.9355 36.2903 39.4024 36.2903 36.2903C36.2903 35.0758 35.8895 33.8734 35.1613 32.904L30.6452 26.8814L26.129 32.9032ZM34.6774 36.2903C34.6774 38.5137 32.8686 40.3226 30.6452 40.3226C28.4218 40.3226 26.6129 38.5137 26.6129 36.2903C26.6129 35.4234 26.8992 34.5637 27.4194 33.871L30.6452 29.5701L33.871 33.8718C34.3911 34.5637 34.6774 35.4234 34.6774 36.2903Z" fill="#006CAB"/>
<path d="M25.4842 15.9685L20.968 9.94595L16.4518 15.9677C15.7236 16.9379 15.3228 18.1403 15.3228 19.3548C15.3228 22.4669 17.8558 25 20.968 25C24.0801 25 26.6132 22.4669 26.6132 19.3548C26.6132 18.1403 26.2124 16.9379 25.4842 15.9685ZM20.968 23.3871C18.7446 23.3871 16.9357 21.5782 16.9357 19.3548C16.9357 18.4879 17.222 17.6282 17.7421 16.9355L20.968 12.6347L24.1938 16.9363C24.714 17.6282 25.0003 18.4879 25.0003 19.3548C25.0003 21.5782 23.1914 23.3871 20.968 23.3871Z" fill="#006CAB"/>
<path d="M46.7742 21.7742C44.9952 21.7742 43.5484 23.221 43.5484 25C43.5484 25.3669 43.6234 25.7145 43.7363 26.0435L40.3169 28.0952L31.4516 22.9242V12.5597L41.129 6.91452V0H39.5161V5.98871L30.6452 11.1637L21.7742 5.98871V0H20.1613V5.98871L11.3048 11.1548L6.34113 8.05242C6.40645 7.79677 6.45161 7.53387 6.45161 7.25806C6.45161 5.47903 5.00484 4.03226 3.22581 4.03226C1.44677 4.03226 0 5.47903 0 7.25806C0 9.0371 1.44677 10.4839 3.22581 10.4839C4.14758 10.4839 4.975 10.0903 5.56371 9.46855L10.4839 12.5435V22.9242L1.20645 28.3355L2.01935 29.7298L11.2903 24.3202L15.7258 26.9073L20.1613 29.4944V39.8589L12.0411 44.5952C11.4516 43.9556 10.6145 43.5484 9.67742 43.5484C7.89839 43.5484 6.45161 44.9952 6.45161 46.7742C6.45161 48.5532 7.89839 50 9.67742 50C11.4565 50 12.9032 48.5532 12.9032 46.7742C12.9032 46.5129 12.8637 46.2621 12.8048 46.0185L20.9677 41.2565L29.8387 46.4306V50H31.4516V46.4306L35.3589 44.1508L40.3266 41.2532L45.5677 44.2484L46.3677 42.8484L41.129 39.8548V29.4887L44.6274 27.3895C45.1992 27.904 45.9468 28.2258 46.7742 28.2258C48.5532 28.2258 50 26.779 50 25C50 23.221 48.5532 21.7742 46.7742 21.7742ZM3.22581 8.87097C2.33629 8.87097 1.6129 8.14758 1.6129 7.25806C1.6129 6.36855 2.33629 5.64516 3.22581 5.64516C4.11532 5.64516 4.83871 6.36855 4.83871 7.25806C4.83871 8.14758 4.11532 8.87097 3.22581 8.87097ZM9.67742 48.3871C8.7879 48.3871 8.06452 47.6637 8.06452 46.7742C8.06452 45.8847 8.7879 45.1613 9.67742 45.1613C10.5669 45.1613 11.2903 45.8847 11.2903 46.7742C11.2903 47.6637 10.5669 48.3871 9.67742 48.3871ZM16.5323 25.5113L12.0968 22.9242V12.5597L20.9677 7.38468L29.8387 12.5597V22.9242L25.4032 25.5113L20.9677 28.0984L16.5323 25.5113ZM39.5161 39.8597L34.5411 42.7621L30.6452 45.0347L21.7742 39.8597V29.4952L26.2097 26.9081L30.6452 24.321L39.5161 29.496V39.8597ZM46.7742 26.6129C45.8847 26.6129 45.1613 25.8895 45.1613 25C45.1613 24.1105 45.8847 23.3871 46.7742 23.3871C47.6637 23.3871 48.3871 24.1105 48.3871 25C48.3871 25.8895 47.6637 26.6129 46.7742 26.6129Z" fill="#006CAB"/>
<path d="M44.3546 16.9355H42.7417V18.5484H44.3546V16.9355Z" fill="#006CAB"/>
<path d="M41.1297 16.9355H39.5166V18.5484H41.1297V16.9355Z" fill="#006CAB"/>
<path d="M37.9034 16.9355H36.2905V18.5484H37.9034V16.9355Z" fill="#006CAB"/>
<path d="M15.3224 33.871H13.7095V35.4839H15.3224V33.871Z" fill="#006CAB"/>
<path d="M12.0968 33.871H10.4839V35.4839H12.0968V33.871Z" fill="#006CAB"/>
<path d="M8.87114 33.871H7.2583V35.4839H8.87114V33.871Z" fill="#006CAB"/>
</svg>
