<svg width="50" height="50" viewBox="0 0 50 50" fill="none" xmlns="http://www.w3.org/2000/svg">
<path d="M41.1709 19.8734V18.388C41.1709 17.9771 40.8378 17.6437 40.4266 17.6437C40.0158 17.6437 39.6828 17.9771 39.6828 18.388V20.3483C39.6828 20.6421 39.8556 20.9083 40.1241 21.0281C45.1599 23.2704 48.4142 28.2799 48.4142 33.7902C48.4142 41.4894 42.1497 47.7532 34.4501 47.7532C32.8819 47.7532 31.353 47.4972 29.8923 46.9918C29.9469 46.909 29.9999 46.8247 30.0502 46.7377C30.2555 46.3822 30.4115 46.011 30.5236 45.6314C31.7859 46.0518 33.1028 46.2651 34.4505 46.2651C41.3296 46.2651 46.9261 40.6689 46.9261 33.7902C46.9261 30.4192 45.5292 27.1412 43.0939 24.7967C42.955 24.6632 42.77 24.5884 42.5777 24.5884H26.324C26.1318 24.5884 25.9468 24.6628 25.8079 24.7963C24.5014 26.054 23.4931 27.5673 22.8382 29.2377L21.9139 27.6367C23.3566 24.7009 25.7808 22.3625 28.7777 21.0277C29.0462 20.9083 29.219 20.6421 29.219 20.348V12.981H39.6828V15.4114C39.6828 15.8226 40.0158 16.1556 40.427 16.1556C40.8378 16.1556 41.1709 15.8226 41.1709 15.4114V12.981H41.8247C43.3018 12.981 44.5034 11.7794 44.5034 10.3023C44.5034 8.82565 43.3018 7.62402 41.8247 7.62402H38.7913C38.3804 7.62402 38.0474 7.95705 38.0474 8.36789C38.0474 8.77873 38.3804 9.11214 38.7913 9.11214H41.8247C42.4812 9.11214 43.0153 9.6462 43.0153 10.3023C43.0153 10.9588 42.4812 11.4929 41.8247 11.4929H40.4316C40.43 11.4929 40.4285 11.4929 40.427 11.4929H28.4751C28.4732 11.4929 28.4717 11.4929 28.4702 11.4929H27.2396C26.5831 11.4929 26.049 10.9588 26.049 10.3023C26.049 9.6462 26.5831 9.11214 27.2396 9.11214H35.815C36.2259 9.11214 36.5589 8.77873 36.5589 8.36789C36.5589 7.95705 36.2259 7.62402 35.815 7.62402H27.2396C25.7625 7.62402 24.5609 8.82565 24.5609 10.3023C24.5609 11.7794 25.7625 12.981 27.2396 12.981H27.7309V19.8734C24.9126 21.236 22.5837 23.4142 21.0365 26.1173L20.5985 25.359V17.7429H21.2108C22.6879 17.7429 23.8895 16.5413 23.8895 15.0642C23.8895 13.5875 22.6879 12.3859 21.2108 12.3859H9.4207C7.94365 12.3859 6.74201 13.5875 6.74201 15.0642C6.74201 16.5413 7.94365 17.7429 9.4207 17.7429H10.033V25.359L0.581266 41.7298C-0.323964 43.2976 -0.323964 45.1699 0.581266 46.7377C1.4865 48.3055 3.10736 49.2417 4.91782 49.2417H17.6601C18.0713 49.2417 18.4043 48.9083 18.4043 48.4974C18.4043 48.0866 18.0713 47.7536 17.6601 47.7536H4.91782C3.64562 47.7536 2.50617 47.0955 1.86987 45.9935C1.23358 44.8918 1.23358 43.5757 1.86987 42.474L11.4215 25.9304C11.4867 25.8171 11.5211 25.6889 11.5211 25.5581V17.7429H19.1104V25.5581C19.1104 25.6889 19.1448 25.8171 19.21 25.9304L28.7613 42.474C29.3975 43.5757 29.3975 44.8914 28.7613 45.9935C28.1253 47.0955 26.9859 47.7536 25.7133 47.7536H20.6367C20.2258 47.7536 19.8928 48.0866 19.8928 48.4974C19.8928 48.9083 20.2258 49.2417 20.6367 49.2417H25.7133C26.8676 49.2417 27.9441 48.8594 28.8082 48.1774C30.6041 48.8831 32.4997 49.2417 34.4501 49.2417C42.9706 49.2417 49.9023 42.3104 49.9023 33.7906C49.9023 27.8553 46.4909 22.4457 41.1709 19.8734ZM10.7768 16.2548H9.4207C8.76419 16.2548 8.23013 15.7207 8.23013 15.0642C8.23013 14.4081 8.76419 13.874 9.4207 13.874H21.2108C21.8669 13.874 22.401 14.4081 22.401 15.0642C22.401 15.7207 21.8669 16.2548 21.2108 16.2548H10.7768ZM23.8353 30.965C24.3278 29.1191 25.2868 27.4395 26.6296 26.0769H42.2718C44.2875 28.1258 45.438 30.92 45.438 33.7902C45.438 39.8483 40.5086 44.7769 34.4501 44.7769C33.1676 44.7769 31.9172 44.558 30.7254 44.1258C30.7075 43.3018 30.484 42.4809 30.0502 41.7298L23.8353 30.965Z" fill="#006CAB"/>
<path d="M27.4726 45.2496C27.8453 44.6041 27.8453 43.8637 27.4726 43.2179L20.4539 31.0612C20.3212 30.8311 20.0755 30.6892 19.8096 30.6892H10.8218C10.5559 30.6892 10.3102 30.8311 10.1775 31.0612L3.15843 43.2179C2.78573 43.8633 2.78573 44.6038 3.15843 45.2492C3.53113 45.895 4.17238 46.2651 4.91777 46.2651H25.7133C26.4586 46.2651 27.0999 45.895 27.4726 45.2496ZM4.44742 44.5053C4.29063 44.2337 4.40469 44.0365 4.44742 43.9621L11.2513 32.1774H19.3801L26.184 43.9621C26.2267 44.0361 26.3408 44.2337 26.1836 44.5053C26.0268 44.7769 25.7991 44.7769 25.7133 44.7769H4.91777C4.83232 44.7769 4.6042 44.7769 4.44742 44.5053Z" fill="#006CAB"/>
<path d="M17.6036 38.8867C17.3457 38.2756 16.4409 38.2904 16.2162 38.921C15.9907 39.5546 16.6896 40.149 17.2801 39.8205C17.6051 39.6397 17.7451 39.2296 17.6036 38.8867Z" fill="#006CAB"/>
<path d="M13.6338 9.41006C14.2815 9.41006 14.6203 8.59677 14.1598 8.139C13.9035 7.88418 13.49 7.85213 13.1966 8.06347C12.9578 8.23589 12.8426 8.54679 12.9094 8.83366C12.9876 9.16592 13.2916 9.41006 13.6338 9.41006Z" fill="#006CAB"/>
<path d="M16.1827 6.45673C16.7503 6.83935 17.5072 6.2721 17.3069 5.62207C17.2134 5.31881 16.9319 5.10251 16.6134 5.0945C16.2895 5.08687 15.9904 5.29668 15.8893 5.60491C15.7875 5.91581 15.9046 6.27782 16.1827 6.45673Z" fill="#006CAB"/>
<path d="M14.2947 1.80736C14.4187 2.10186 14.7231 2.29145 15.0435 2.26436C15.3319 2.23995 15.5833 2.04502 15.6817 1.77379C15.9098 1.1436 15.2163 0.55652 14.6311 0.866656C14.2996 1.04251 14.1482 1.4606 14.2947 1.80736Z" fill="#006CAB"/>
<path d="M40.2975 29.4853C40.4054 29.7611 40.6904 29.9458 40.9841 29.9458C41.3343 29.9454 41.6456 29.6898 41.7142 29.3465C41.8416 28.7117 41.1169 28.2288 40.5775 28.5786C40.2822 28.7701 40.1601 29.1603 40.2975 29.4853Z" fill="#006CAB"/>
<path d="M41.3573 33.4351C40.7245 33.5671 40.5459 34.4219 41.0895 34.7832C41.3535 34.9587 41.7098 34.9461 41.96 34.7511C42.2206 34.5482 42.316 34.185 42.1897 33.8803C42.055 33.5556 41.7025 33.3672 41.3573 33.4351Z" fill="#006CAB"/>
<path d="M31.11 40.0513C31.2325 40.3416 31.5277 40.5289 31.8436 40.5091C32.135 40.4904 32.3948 40.2966 32.4955 40.0223C32.7271 39.3925 32.0347 38.7989 31.4465 39.1102C31.1146 39.2861 30.9639 39.7045 31.11 40.0513Z" fill="#006CAB"/>
<path d="M28.2285 32.7869C27.9069 32.8541 27.6608 33.1265 27.633 33.4545C27.6067 33.7631 27.7814 34.0614 28.0618 34.1911C28.3368 34.3178 28.6698 34.2632 28.8888 34.0538C29.1123 33.8406 29.1791 33.5003 29.0555 33.218C28.917 32.9033 28.5664 32.7194 28.2285 32.7869Z" fill="#006CAB"/>
<path d="M36.765 32.0153C36.876 32.2979 37.1693 32.481 37.4695 32.4742C37.7743 32.4673 38.0494 32.2674 38.1523 31.9813C38.2553 31.6948 38.1668 31.3668 37.9376 31.168C37.6877 30.9513 37.3135 30.93 37.0385 31.1123C36.7482 31.3057 36.6292 31.6925 36.765 32.0153Z" fill="#006CAB"/>
<path d="M12.3947 40.4274C12.2791 40.1532 12.0068 39.9681 11.7077 39.9681C11.3964 39.9681 11.113 40.1696 11.0073 40.4614C10.7735 41.1091 11.5112 41.7046 12.0964 41.3468C12.4031 41.1591 12.5351 40.7601 12.3947 40.4274Z" fill="#006CAB"/>
<path d="M13.4969 35.1681C13.1803 35.2337 12.9327 35.5 12.9022 35.8246C12.8732 36.1313 13.0395 36.4327 13.3176 36.5669C13.6056 36.7054 13.9566 36.6425 14.1782 36.4128C14.3972 36.1862 14.4468 35.8364 14.3033 35.5572C14.1538 35.2665 13.8177 35.1036 13.4969 35.1681Z" fill="#006CAB"/>
</svg>
