<svg width="34" height="50" viewBox="0 0 34 50" fill="none" xmlns="http://www.w3.org/2000/svg">
<path d="M20.4188 38.7011H18.6183C18.1994 38.7011 17.8599 38.3616 17.8599 37.9427C17.8599 37.5238 18.1993 37.1843 18.6183 37.1843H20.4188C20.7593 37.1843 20.9348 36.9598 20.9944 36.8634C21.0541 36.7669 21.1764 36.5095 21.024 36.205L20.4445 35.0462C20.2572 34.6716 20.409 34.216 20.7836 34.0287C21.1584 33.8416 21.6138 33.9932 21.8011 34.3677L22.3805 35.5265C22.723 36.2115 22.6871 37.0094 22.2845 37.6607C21.882 38.3122 21.1845 38.7011 20.4188 38.7011Z" fill="#006CAB"/>
<path d="M19.5057 32.2305C19.2275 32.2305 18.9596 32.0768 18.8268 31.8111L17.6053 29.3682C17.4365 29.0305 17.1258 28.994 17 28.994C16.8744 28.994 16.5636 29.0305 16.3948 29.3682L15.1736 31.8105C14.9864 32.1852 14.5306 32.3372 14.1562 32.1497C13.7816 31.9624 13.6297 31.5068 13.817 31.1323L15.0382 28.6898C15.4122 27.9419 16.1639 27.4772 17 27.4772C17.8362 27.4772 18.5879 27.9419 18.962 28.6897L20.1834 31.1327C20.3707 31.5073 20.2189 31.9629 19.8444 32.1502C19.7354 32.2046 19.6196 32.2305 19.5057 32.2305Z" fill="#006CAB"/>
<path d="M15.3822 38.7011H13.5817C12.8159 38.7011 12.1184 38.3122 11.7158 37.6608C11.3133 37.0094 11.2773 36.2115 11.6198 35.5266L12.1991 34.3679C12.3863 33.9933 12.8419 33.8413 13.2166 34.0288C13.5911 34.2161 13.743 34.6717 13.5556 35.0463L12.9763 36.205C12.8241 36.5096 12.9464 36.7669 13.0059 36.8634C13.0656 36.9599 13.2411 37.1843 13.5816 37.1843H15.3821C15.801 37.1843 16.1405 37.5237 16.1405 37.9427C16.1406 38.3615 15.8011 38.7011 15.3822 38.7011Z" fill="#006CAB"/>
<path d="M32.1335 11.3958L29.6998 2.87793C29.2156 1.1835 27.6468 0 25.8845 0H8.11592C6.35361 0 4.78477 1.1835 4.30049 2.87793L1.86689 11.3958C0.846875 11.6522 0.0893555 12.5768 0.0893555 13.6751V16.9107C0.0893555 17.9642 0.786035 18.8579 1.74287 19.1556L2.33603 29.2405C2.35889 29.6297 2.68164 29.93 3.0665 29.93C3.08086 29.93 3.09561 29.9296 3.11016 29.9287C3.51396 29.9049 3.82207 29.5583 3.79834 29.1545L3.40674 22.4967H23.6751C24.0797 22.4967 24.4075 22.1687 24.4075 21.7643C24.4075 21.3598 24.0797 21.0318 23.6751 21.0318H3.32061L3.21641 19.261H30.7839L30.6797 21.0318H26.6048C26.2002 21.0318 25.8724 21.3598 25.8724 21.7643C25.8724 22.1687 26.2002 22.4967 26.6048 22.4967H30.5936L29.3909 42.9432C29.3132 44.2645 28.2155 45.2994 26.892 45.2994H7.1084C5.78486 45.2994 4.68721 44.2645 4.60947 42.9432L3.9707 32.0841C3.94697 31.6803 3.60049 31.3729 3.19648 31.3959C2.79268 31.4197 2.48457 31.7663 2.5083 32.1701L3.14707 43.0292C3.25937 44.9382 4.71504 46.4696 6.56064 46.7259V48.4863C6.56064 49.321 7.23965 50 8.07432 50H25.926C26.7606 50 27.4396 49.321 27.4396 48.4863V46.726C29.2853 46.4697 30.7409 44.9383 30.8532 43.0293L32.2575 19.1557C33.2144 18.858 33.911 17.9643 33.911 16.9108V13.6752C33.911 12.5768 33.1534 11.6521 32.1335 11.3958ZM25.9748 48.4863C25.9748 48.5133 25.9528 48.5352 25.926 48.5352H8.07441C8.04756 48.5352 8.02559 48.5133 8.02559 48.4863V46.7644H25.9748V48.4863ZM5.70898 3.28037C6.01445 2.21143 7.0043 1.46484 8.11592 1.46484H25.8844C26.9961 1.46484 27.9859 2.21143 28.2912 3.28037L30.5896 11.3249H27.3076L26.0678 5.125C25.8488 4.03027 24.8796 3.23564 23.7631 3.23564H10.2373C9.1208 3.23564 8.15166 4.03027 7.93262 5.125L6.69258 11.3248H3.41064L5.70898 3.28037ZM25.8139 11.3249H8.18652L9.36904 5.4124C9.45156 4.9999 9.8167 4.70059 10.2373 4.70059H23.7631C24.1837 4.70059 24.5488 4.9999 24.6313 5.4124L25.8139 11.3249ZM32.4462 16.9108C32.4462 17.399 32.049 17.7963 31.5607 17.7963H2.43965C1.95137 17.7963 1.5542 17.3991 1.5542 16.9108V13.6752C1.5542 13.187 1.95137 12.7898 2.43965 12.7898H31.5607C32.049 12.7898 32.4462 13.187 32.4462 13.6752V16.9108Z" fill="#006CAB"/>
<path d="M20.4188 37.2102H18.6182C18.2136 37.2102 17.8857 37.5382 17.8857 37.9426C17.8857 38.3471 18.2136 38.6751 18.6182 38.6751H20.4188C21.1755 38.6751 21.8648 38.2908 22.2625 37.647C22.6604 37.0034 22.6959 36.215 22.3574 35.5382L21.778 34.3794C21.5972 34.0176 21.1572 33.8711 20.7955 34.0517C20.4337 34.2327 20.287 34.6725 20.468 35.0343L21.0474 36.1931C21.2055 36.5094 21.0785 36.7766 21.0166 36.8768C20.9545 36.9772 20.7723 37.2102 20.4188 37.2102Z" fill="#006CAB"/>
<path d="M18.9388 28.7015C18.5693 27.9624 17.8263 27.5032 17.0001 27.5032C16.1738 27.5032 15.4309 27.9623 15.0614 28.7015L13.8402 31.1439C13.6593 31.5057 13.8059 31.9456 14.1677 32.1265C14.5297 32.3075 14.9696 32.1607 15.1504 31.7989L16.3716 29.3566C16.4931 29.1133 16.7281 28.9682 17.0001 28.9682C17.272 28.9682 17.507 29.1134 17.6286 29.3566L18.85 31.7994C18.9782 32.0561 19.237 32.2045 19.5056 32.2044C19.6157 32.2044 19.7275 32.1795 19.8326 32.127C20.1944 31.946 20.3411 31.5061 20.1601 31.1443L18.9388 28.7015Z" fill="#006CAB"/>
<path d="M13.5325 35.0346C13.7134 34.6728 13.5668 34.2328 13.205 34.052C12.8431 33.871 12.4031 34.0178 12.2224 34.3795L11.643 35.5382C11.3045 36.215 11.3399 37.0034 11.7379 37.6471C12.1356 38.2909 12.8249 38.6751 13.5816 38.6751H15.3822C15.7868 38.6751 16.1146 38.3472 16.1146 37.9427C16.1146 37.5382 15.7868 37.2103 15.3822 37.2103H13.5816C13.2281 37.2103 13.0459 36.9772 12.984 36.877C12.922 36.7768 12.795 36.5096 12.9532 36.1933L13.5325 35.0346Z" fill="#006CAB"/>
</svg>
