<svg width="21" height="24" viewBox="0 0 21 24" fill="none" xmlns="http://www.w3.org/2000/svg">
<g clip-path="url(#clip0)">
<path d="M4.5 0C3.675 0 3 0.675 3 1.5V22.5C3 23.325 3.675 24 4.5 24H19.5C20.325 24 21 23.325 21 22.5V6L15 0H4.5Z" fill="#E2E5E7"/>
<path d="M16.5 6H21L15 0V4.5C15 5.325 15.675 6 16.5 6Z" fill="#B0B7BD"/>
<path d="M21 10.5L16.5 6H21V10.5Z" fill="#CAD1D8"/>
<path d="M18 19.5C18 19.9125 17.6625 20.25 17.25 20.25H0.75C0.3375 20.25 0 19.9125 0 19.5V12C0 11.5875 0.3375 11.25 0.75 11.25H17.25C17.6625 11.25 18 11.5875 18 12V19.5Z" fill="#F15642"/>
<path d="M3.26709 14.2123C3.26709 14.0154 3.42178 13.7998 3.6749 13.7998H5.0624C5.84053 13.7998 6.54365 14.3201 6.54365 15.3232C6.54365 16.2701 5.84053 16.7998 5.0624 16.7998H4.05928V17.592C4.05928 17.8545 3.89053 18.0045 3.6749 18.0045C3.47803 18.0045 3.26709 17.8545 3.26709 17.592V14.2123ZM4.05928 14.5498V16.0451H5.0624C5.46553 16.0451 5.78428 15.6889 5.78428 15.3186C5.78428 14.9014 5.46553 14.5498 5.0624 14.5498H4.05928Z" fill="white"/>
<path d="M7.72036 18C7.52349 18 7.30786 17.8922 7.30786 17.6297V14.2219C7.30786 14.0062 7.52349 13.8516 7.72036 13.8516H9.0938C11.836 13.8516 11.775 18 9.15005 18H7.72036ZM8.09536 14.5828V17.2687H9.0938C10.711 17.2687 10.786 14.5828 9.0938 14.5828H8.09536Z" fill="white"/>
<path d="M12.7453 14.6297V15.5812H14.2734C14.489 15.5812 14.7046 15.7969 14.7046 16.0078C14.7046 16.2047 14.489 16.3688 14.2734 16.3688H12.7453V17.6297C12.7453 17.8406 12.5953 18 12.3843 18C12.1218 18 11.9578 17.8406 11.9578 17.6297V14.2219C11.9578 14.0062 12.1218 13.8516 12.3843 13.8516H14.489C14.7515 13.8516 14.9109 14.0062 14.9109 14.2219C14.9109 14.4141 14.7562 14.6297 14.489 14.6297H12.7453Z" fill="white"/>
<path d="M17.25 20.25H3V21H17.25C17.6625 21 18 20.6625 18 20.25V19.5C18 19.9125 17.6625 20.25 17.25 20.25Z" fill="#CAD1D8"/>
</g>
<defs>
<clipPath id="clip0">
<rect width="21" height="24" fill="white"/>
</clipPath>
</defs>
</svg>
