<svg width="34" height="31" viewBox="0 0 34 31" fill="none" xmlns="http://www.w3.org/2000/svg">
<g clip-path="url(#clip0)">
<path fill-rule="evenodd" clip-rule="evenodd" d="M13.6523 24.7259C11.1581 21.8014 9.71413 17.9463 9.71413 13.6925C9.8454 7.84356 12.6021 2.79216 17.0654 -0.398193C21.3975 2.79216 24.2855 7.84356 24.2855 13.6925C24.2855 14.0913 24.2855 14.4901 24.2855 14.756C23.7604 14.4901 23.104 14.2243 22.5789 14.0913C22.5789 13.9584 22.5789 13.8255 22.5789 13.6925C22.5789 8.90701 20.4785 4.6532 17.0654 1.86164C13.6523 4.6532 11.552 8.90701 11.552 13.6925C11.552 17.5476 12.8647 21.0038 15.0963 23.6624C14.7025 24.0612 14.1774 24.46 13.6523 24.7259ZM17.0654 2.39337C14.0461 5.18493 12.077 9.17287 12.077 13.6925C12.077 17.4146 13.3898 20.7379 15.6214 23.3965C16.0152 22.9977 16.4091 22.7319 16.8029 22.2002L16.9342 22.0672L16.8029 21.9343C14.9651 19.6745 13.9149 16.75 13.9149 13.6925C13.9149 10.3693 15.0963 7.1789 17.1967 4.91906C19.1658 7.1789 20.4785 10.2363 20.4785 13.5596C21.0036 13.6925 21.66 13.8255 22.1851 13.9584C22.1851 13.8255 22.1851 13.8255 22.1851 13.6925C22.0538 9.17287 20.0847 5.18493 17.0654 2.39337Z" fill="#006CAB"/>
<path fill-rule="evenodd" clip-rule="evenodd" d="M13.6523 24.7259C11.1581 21.8014 9.71413 17.9463 9.71413 13.6925C9.8454 7.84356 12.6021 2.79216 17.0654 -0.398193C21.3975 2.79216 24.2855 7.84356 24.2855 13.6925C24.2855 14.0913 24.2855 14.4901 24.2855 14.756C23.7604 14.4901 23.104 14.2243 22.5789 14.0913C22.5789 13.9584 22.5789 13.8255 22.5789 13.6925C22.5789 8.90701 20.4785 4.6532 17.0654 1.86164C13.6523 4.6532 11.552 8.90701 11.552 13.6925C11.552 17.5476 12.8647 21.0038 15.0963 23.6624C14.7025 24.0612 14.1774 24.46 13.6523 24.7259ZM17.0654 2.39337C14.0461 5.18493 12.077 9.17287 12.077 13.6925C12.077 17.4146 13.3898 20.7379 15.6214 23.3965C16.0152 22.9977 16.4091 22.7319 16.8029 22.2002L16.9342 22.0672L16.8029 21.9343C14.9651 19.6745 13.9149 16.75 13.9149 13.6925C13.9149 10.3693 15.0963 7.1789 17.1967 4.91906C19.1658 7.1789 20.4785 10.2363 20.4785 13.5596C21.0036 13.6925 21.66 13.8255 22.1851 13.9584C22.1851 13.8255 22.1851 13.8255 22.1851 13.6925C22.0538 9.17287 20.0847 5.18493 17.0654 2.39337Z" fill="#006CAB"/>
<path fill-rule="evenodd" clip-rule="evenodd" d="M14.1777 13.9584C17.9847 13.2937 21.9229 13.9584 25.5985 16.0853C30.5869 19.0098 33.6062 24.0612 34 29.5114C29.1429 31.7712 23.3669 31.6383 18.3785 28.7138C18.1159 28.5808 17.7221 28.315 17.4596 28.1821C17.9847 27.7833 18.3785 27.3845 18.9036 26.9857C19.0348 27.1186 19.1661 27.1186 19.2974 27.2515C23.3669 29.6443 28.0927 29.9102 32.1622 28.4479C31.3745 24.0612 28.8803 20.0732 24.8109 17.6805C21.529 15.8194 17.8534 15.1548 14.4403 15.8194C14.309 15.1548 14.1777 14.4901 14.1777 13.9584ZM31.6371 28.0491C30.8494 23.9282 28.3553 20.2062 24.5483 17.9463C21.3978 16.0853 17.8534 15.5536 14.5716 16.0853C14.7028 16.617 14.8341 17.1487 14.9654 17.6805V17.8134H15.0966C17.9847 17.4146 21.0039 17.9463 23.6294 19.4086C26.5174 21.1367 28.4865 23.7953 29.5367 26.7198C26.5174 27.3845 23.3669 26.8527 20.4789 25.2576C20.085 25.6564 19.6912 26.1881 19.2974 26.5869C19.4287 26.5869 19.4287 26.7198 19.5599 26.7198C23.2356 28.9796 27.6989 29.3784 31.6371 28.0491Z" fill="#006CAB"/>
<path fill-rule="evenodd" clip-rule="evenodd" d="M23.1041 19.8074C21.7914 23.3965 19.1659 26.5869 15.6215 28.7138C10.6331 31.6383 4.85711 31.6383 0 29.3785C0.525093 23.9283 3.54438 18.8769 8.53277 15.9524C8.79531 15.8194 9.18913 15.5536 9.45168 15.4207C9.45168 16.0853 9.58295 16.617 9.71423 17.2817C9.58295 17.4146 9.45168 17.4146 9.32041 17.5476C5.25093 19.9403 2.62547 23.9283 1.9691 28.315C6.03857 29.7772 10.7644 29.5114 14.8339 27.1186C18.1157 25.2576 20.3474 22.3331 21.5288 19.0098C22.0539 19.2757 22.579 19.5415 23.1041 19.8074ZM2.36292 28.0491C6.30112 29.3785 10.6331 29.1126 14.5713 26.8528C17.7219 24.9917 19.9535 22.2002 21.135 18.8769C20.6099 18.7439 20.0848 18.611 19.5597 18.4781H19.4285V18.611C18.3783 21.2696 16.4092 23.6624 13.7837 25.2576C10.8957 26.9857 7.61385 27.3845 4.59457 26.7198C5.51348 23.7953 7.48258 21.1367 10.3706 19.5415C10.2393 19.0098 9.97677 18.3451 9.8455 17.8134C9.71423 17.8134 9.71423 17.9464 9.58295 17.9464C5.77603 20.2062 3.28183 23.9283 2.36292 28.0491Z" fill="#006CAB"/>
</g>
<defs>
<clipPath id="clip0">
<rect width="34" height="31" fill="white"/>
</clipPath>
</defs>
</svg>
