<svg width="256" height="10" viewBox="0 0 256 10" fill="none" xmlns="http://www.w3.org/2000/svg">
<path fill-rule="evenodd" clip-rule="evenodd" d="M0 9.91597H2.60075V5.37815H9.53607V9.91597H12.1368V0.0840335H9.53607V3.69748H2.60075V0.0840335H0V9.91597ZM14.044 9.91597H16.9915L23.5801 2.94118V9.91597H26.1808V0.0840335H23.2333L16.6448 7.05882V0.0840335H14.044V9.91597ZM27.3078 9.91597H30.5154L34.2431 6.30252L35.1101 7.14286V10H37.7108V7.14286L38.5777 6.30252L42.3055 9.91597H45.513L40.2249 4.70588L44.9929 0.0840335H41.7853L37.7975 3.94958V0.0840335H35.1968V3.94958L31.2089 0.0840335H28.0014L32.7694 4.70588L27.3078 9.91597ZM46.7267 9.91597H49.3275V5.37815H56.2628V9.91597H58.8635V0.0840335H56.2628V3.69748H49.3275V0.0840335H46.7267V9.91597ZM60.6841 9.91597H72.0406V8.2353H63.2848V5.29412H71.2604V3.61345H63.2848V1.76471H72.0406V0.0840335H60.6841V9.91597ZM73.9479 9.91597H76.5486V8.40336L78.8026 6.21849L82.5303 9.83193H85.7379L80.363 4.62185L85.1311 0H81.9235L76.5486 5.21008V0.0840335H73.9479V9.91597ZM86.1713 9.91597H88.9455L90.4192 7.05882H95.6207L97.0945 9.91597H99.8686L94.7538 0.0840335H91.1995L86.1713 9.91597ZM91.1995 5.46218L92.9333 2.01681L94.6671 5.46218H91.1995ZM100.909 9.91597H103.51V3.19328L106.977 9.91597H109.405L112.872 3.19328V9.91597H115.473V0.0840335H112.005L108.191 7.56303L104.377 0.0840335H100.909V9.91597ZM117.38 7.89916C117.38 9.91597 119.201 9.91597 121.108 9.91597H128.824V8.2353H121.021C120.588 8.2353 120.068 8.2353 120.068 7.73109V2.26891C120.068 1.76471 120.501 1.76471 121.021 1.76471H128.824V0.0840335H121.108C119.288 0.0840335 117.38 0.0840331 117.38 2.10084V7.89916ZM130.644 9.91597H133.245V8.40336L135.499 6.21849L139.227 9.83193H142.434L137.059 4.62185L141.827 0H138.62L133.245 5.21008V0.0840335H130.644V9.91597ZM143.561 9.91597H146.162V5.37815H153.097V9.91597H155.698V0.0840335H153.097V3.69748H146.162V0.0840335H143.561V9.91597ZM157.605 9.91597H168.962V8.2353H160.206V5.29412H168.182V3.61345H160.206V1.76471H168.962V0.0840335H157.605V9.91597ZM170.869 6.80672C170.869 8.82353 172.689 8.82353 174.597 8.82353H176.591V9.91597H179.191V8.82353H181.185C183.006 8.82353 184.913 8.82353 184.913 6.80672V3.19328C184.913 1.17647 183.092 1.17647 181.185 1.17647H179.191V0.0840335H176.591V1.17647H174.597C172.776 1.17647 170.869 1.17647 170.869 3.19328V6.80672ZM173.47 6.63866V3.36134C173.47 2.85714 173.903 2.85714 174.423 2.85714H176.591V7.22689H174.423C173.903 7.22689 173.47 7.22689 173.47 6.63866ZM179.191 7.22689V2.85714H181.359C181.792 2.85714 182.312 2.85714 182.312 3.36134V6.63866C182.312 7.14286 181.879 7.14286 181.359 7.14286H179.191V7.22689ZM186.127 1.76471H191.328V10H193.929V1.76471H199.13V0.0840335H186.04V1.76471H186.127ZM200.431 9.91597H211.787V8.2353H203.032V5.29412H211.007V3.61345H203.032V1.76471H211.787V0.0840335H200.431V9.91597ZM212.914 9.91597H216.122L219.59 6.55462L223.057 9.91597H226.265L221.15 4.95798L226.265 0H223.057L219.59 3.36134L216.122 0H212.914L218.029 4.95798L212.914 9.91597ZM227.392 9.91597H230.339L236.928 2.94118V9.91597H239.529V0.0840335H236.668L230.079 7.05882V0.0840335H227.479V9.91597H227.392ZM241.436 9.91597H244.037V3.19328L247.504 9.91597H249.932L253.399 3.19328V9.91597H256V0.0840335H252.532L248.718 7.56303L244.904 0.0840335H241.436V9.91597Z" fill="#006CAB"/>
</svg>
